<svg xmlns="http://www.w3.org/2000/svg" version="1.1" xmlns:xlink="http://www.w3.org/1999/xlink" width="512" height="512" x="0" y="0" viewBox="0 0 512 512" style="enable-background:new 0 0 512 512" xml:space="preserve" class=""><g><g fill-rule="evenodd"><path fill="#005c8f" d="M417.07 264.496V95.695c0-7.647-3.467-14.565-9.013-19.546-5.334-4.842-12.748-7.845-20.854-7.845h-42.027V56.581c0-6.416-2.667-12.246-6.88-16.47s-10.026-6.842-16.48-6.842c-6.399 0-12.212 2.618-16.426 6.842-4.266 4.224-6.88 10.054-6.88 16.47v11.723h-48.534V56.581c0-6.416-2.612-12.246-6.88-16.47-4.212-4.224-10.026-6.842-16.447-6.842s-12.246 2.618-16.47 6.842-6.848 10.054-6.848 16.47v11.723h-48.56V56.581c0-6.416-2.624-12.246-6.849-16.47-4.224-4.224-10.054-6.842-16.469-6.842s-12.244 2.618-16.468 6.842-6.842 10.054-6.842 16.47v11.723H66.078c-8.091 0-15.478 3.002-20.864 7.845-5.541 4.982-8.976 11.9-8.976 19.546v178.668h-5.515a14.68 14.68 0 0 0-10.404 4.319 14.68 14.68 0 0 0-4.321 10.406v174.918c0 4.058 1.654 7.737 4.321 10.404s6.347 4.321 10.404 4.321h174.918a14.69 14.69 0 0 0 10.406-4.321 14.684 14.684 0 0 0 4.319-10.404v-52.133h65.664a109.585 109.585 0 0 0 23.467 34.858c19.786 19.776 47.094 32 77.228 32s57.493-12.224 77.279-32c19.787-19.77 32.001-47.082 32.001-77.248s-12.214-57.484-32.001-77.253c-12.906-12.875-28.96-22.555-46.933-27.733z" opacity="1" data-original="#005c8f" class=""></path><path fill="#d7e9ff" d="M100.903 285.355v43.082l12.988-15.696a5.485 5.485 0 0 1 8.516-.076l13.045 15.771v-43.082h-34.549z" opacity="1" data-original="#d7e9ff" class=""></path><path fill="#d7e9ff" d="M146.445 285.355v58.341a5.497 5.497 0 0 1-9.904 3.286l-18.363-22.203-18.539 22.416a5.485 5.485 0 0 1-7.727.732 5.473 5.473 0 0 1-1.99-4.23h-.01v-58.341h-59.19c-1.024 0-1.956.42-2.634 1.098a3.726 3.726 0 0 0-1.099 2.635v174.918c0 1.024.422 1.956 1.099 2.634a3.722 3.722 0 0 0 2.634 1.099H205.64a3.736 3.736 0 0 0 2.635-1.099 3.72 3.72 0 0 0 1.098-2.634V289.089a3.72 3.72 0 0 0-1.098-2.635 3.735 3.735 0 0 0-2.635-1.098h-59.195zM42.478 454.123a5.497 5.497 0 0 1 0-10.993h36.634c3.034 0 5.492 2.464 5.492 5.499s-2.458 5.494-5.492 5.494zm0-23.445c-3.036 0-5.494-2.464-5.494-5.5s2.458-5.492 5.494-5.492h36.634c3.034 0 5.492 2.458 5.492 5.492s-2.458 5.5-5.492 5.5z" opacity="1" data-original="#d7e9ff" class=""></path><path fill="#f1f8ff" d="M146.445 285.355v58.341a5.497 5.497 0 0 1-9.904 3.286l-18.363-22.203-11.751 14.208c20.396 44.229 57.364 79.238 102.945 97.068V289.088a3.72 3.72 0 0 0-1.098-2.635 3.735 3.735 0 0 0-2.635-1.098h-59.195z" opacity="1" data-original="#f1f8ff" class=""></path><g fill="#d7e9ff"><path d="M140.151 47.883c-2.235-2.235-5.317-3.621-8.699-3.621s-6.463 1.386-8.698 3.621a12.284 12.284 0 0 0-3.622 8.699v31.003c0 3.386 1.388 6.463 3.622 8.697 2.234 2.24 5.317 3.627 8.698 3.627s6.464-1.386 8.699-3.627c2.234-2.235 3.622-5.311 3.622-8.697V56.582c0-3.382-1.388-6.458-3.622-8.699zM235.362 47.883c-2.239-2.235-5.334-3.621-8.714-3.621s-6.464 1.386-8.699 3.621c-2.234 2.234-3.627 5.317-3.627 8.699v31.003c0 3.386 1.392 6.463 3.627 8.697 2.235 2.24 5.317 3.627 8.699 3.627s6.475-1.386 8.714-3.621c2.24-2.241 3.627-5.317 3.627-8.704V56.581c0-3.382-1.386-6.465-3.627-8.699zM330.563 47.883a12.354 12.354 0 0 0-8.748-3.621c-3.359 0-6.452 1.386-8.693 3.621-2.239 2.234-3.627 5.317-3.627 8.699v31.003c0 3.386 1.388 6.463 3.627 8.697 2.24 2.24 5.334 3.627 8.693 3.627 3.414 0 6.507-1.386 8.748-3.621 2.186-2.241 3.574-5.317 3.574-8.704V56.581c0-3.382-1.388-6.465-3.574-8.699z" fill="#d7e9ff" opacity="1" data-original="#d7e9ff" class=""></path><path d="M345.176 79.295h42.027c5.334 0 10.081 1.92 13.548 5.015 3.253 2.954 5.332 6.986 5.332 11.385v47.169H47.229V95.695c0-4.399 2.043-8.431 5.328-11.385 3.439-3.095 8.224-5.015 13.52-5.015h42.065v8.289c0 6.416 2.618 12.25 6.842 16.474 4.224 4.218 10.054 6.842 16.468 6.842s12.246-2.624 16.469-6.842c4.224-4.224 6.849-10.054 6.849-16.474v-8.289h48.56v8.289c0 6.416 2.624 12.25 6.848 16.474 4.224 4.218 10.054 6.842 16.47 6.842s12.235-2.624 16.447-6.842c4.268-4.224 6.88-10.054 6.88-16.474v-8.289h48.534v8.289c0 6.416 2.614 12.25 6.88 16.474 4.213 4.218 10.026 6.842 16.426 6.842 6.454 0 12.267-2.624 16.48-6.842 4.213-4.224 6.88-10.054 6.88-16.474v-8.289z" fill="#d7e9ff" opacity="1" data-original="#d7e9ff" class=""></path></g><path fill="#f1f8ff" d="M406.082 120.622v22.242H129.701c19.333-24.498 44.6-44.089 73.629-56.625v1.345c0 6.416 2.624 12.25 6.848 16.474 4.224 4.218 10.054 6.842 16.47 6.842s12.235-2.624 16.447-6.842c4.268-4.224 6.88-10.054 6.88-16.474v-8.289h48.534v8.289c0 6.416 2.614 12.25 6.88 16.474 4.213 4.218 10.026 6.842 16.426 6.842 6.454 0 12.267-2.624 16.48-6.842 4.213-4.224 6.88-10.054 6.88-16.474v-4.551c22.714 8.607 43.341 21.454 60.907 37.589zM151.443 274.362v-13.398c0-.101-.091-.234-.23-.357-.293-.268-.741-.432-1.264-.432H115.64c-.523 0-.971.165-1.264.432-.139.122-.23.256-.23.357v13.398h37.296zM220.365 292.607v-3.519c0-4.058-1.654-7.739-4.319-10.406a14.687 14.687 0 0 0-8.043-4.127v-13.59c0-.101.085-.234.228-.357.293-.268.736-.432 1.264-.432h34.294c.534 0 .96.165 1.28.432.16.122.213.256.213.357v30.853c0 .101-.053.23-.213.358-.32.266-.747.431-1.28.431zM220.365 367.381h24.118a.872.872 0 0 0 .586-.241c.16-.143.213-.342.213-.549v-30.849c0-.213-.053-.41-.213-.555a.865.865 0 0 0-.586-.234h-24.118v32.427z" opacity="1" data-original="#f1f8ff" class=""></path><path fill="#d7e9ff" d="M456.215 300c17.814 17.782 28.8 42.347 28.8 69.483s-10.986 51.697-28.8 69.477c-17.759 17.782-42.346 28.779-69.492 28.779s-51.681-10.997-69.44-28.779c-17.814-17.78-28.8-42.341-28.8-69.477s10.986-51.701 28.8-69.483c17.759-17.776 42.346-28.773 69.44-28.773s51.733 10.997 69.492 28.773zm-69.492-20.021c-24.694 0-47.094 10.02-63.254 26.218-16.213 16.193-26.24 38.571-26.24 63.286s10.028 47.088 26.24 63.284c16.16 16.198 38.56 26.219 63.254 26.219s47.093-10.022 63.306-26.219c16.214-16.196 26.241-38.569 26.241-63.284s-10.027-47.093-26.241-63.286c-16.212-16.198-38.56-26.218-63.306-26.218z" opacity="1" data-original="#d7e9ff" class=""></path><path fill="#f1f8ff" d="M456.215 300a98.622 98.622 0 0 1 5.437 5.889 187.753 187.753 0 0 1-2.912 10.408 89.946 89.946 0 0 0-8.712-10.099c-16.212-16.198-38.56-26.218-63.306-26.218s-47.094 10.02-63.254 26.218c-16.213 16.193-26.24 38.571-26.24 63.286s10.028 47.088 26.24 63.284a89.559 89.559 0 0 0 9.393 8.185 187.688 187.688 0 0 1-10.419 2.817 98.123 98.123 0 0 1-5.16-4.809c-17.814-17.78-28.8-42.341-28.8-69.477s10.986-51.701 28.8-69.483c17.759-17.776 42.346-28.773 69.44-28.773s51.733 10.997 69.492 28.773z" opacity="1" data-original="#f1f8ff" class=""></path><path fill="#d7e9ff" d="M386.723 260.235c-12.8 0-25.12 2.213-36.587 6.283v-5.553c0-3.355-1.494-6.368-3.893-8.517-2.24-2.015-5.281-3.264-8.587-3.264h-34.294c-3.359 0-6.399 1.253-8.64 3.264-2.399 2.15-3.84 5.163-3.84 8.517v30.853c0 3.355 1.441 6.363 3.84 8.518 1.441 1.296 3.253 2.278 5.228 2.81-14.081 18.39-22.454 41.387-22.454 66.337 0 10.912 1.599 21.451 4.587 31.397h-61.718v-22.506h24.118c3.253 0 6.239-1.329 8.319-3.456 2.133-2.133 3.467-5.078 3.467-8.326v-30.849c0-3.247-1.333-6.192-3.467-8.325-2.08-2.133-5.066-3.456-8.319-3.456h-24.118v-20.363h23.424c3.306 0 6.399-1.253 8.64-3.264 2.346-2.154 3.84-5.163 3.84-8.518v-30.853c0-3.355-1.494-6.368-3.84-8.517-2.241-2.011-5.334-3.264-8.64-3.264h-34.294c-3.321 0-6.368 1.253-8.606 3.264-2.395 2.15-3.878 5.163-3.878 8.517v13.398h-34.577v-13.398c0-3.355-1.488-6.368-3.876-8.517-2.24-2.011-5.291-3.264-8.608-3.264h-34.309c-3.318 0-6.369 1.253-8.608 3.264-2.39 2.15-3.878 5.163-3.878 8.517v13.398H47.23V153.856h358.853v108.079a110.268 110.268 0 0 0-19.359-1.701zm-271.787-85.824a11.707 11.707 0 0 0-8.298 3.456h-.021a11.749 11.749 0 0 0-3.462 8.326v30.847a11.75 11.75 0 0 0 3.462 8.326h.021a11.707 11.707 0 0 0 8.298 3.456h35.716c3.228 0 6.171-1.323 8.305-3.456h.021a11.76 11.76 0 0 0 3.456-8.326v-30.847c0-3.249-1.327-6.192-3.456-8.326h-.021a11.731 11.731 0 0 0-8.305-3.456zm93.856 0a11.722 11.722 0 0 0-8.304 3.456h-.021a11.743 11.743 0 0 0-3.456 8.326v30.847c0 3.249 1.323 6.192 3.456 8.326h.021a11.722 11.722 0 0 0 8.304 3.456h35.691c3.253 0 6.239-1.323 8.319-3.456 2.133-2.133 3.467-5.077 3.467-8.326v-30.847c0-3.249-1.333-6.192-3.467-8.326-2.08-2.133-5.066-3.456-8.319-3.456zm93.878 0c-3.253 0-6.241 1.323-8.374 3.456s-3.414 5.077-3.414 8.326v30.847c0 3.249 1.281 6.192 3.414 8.326a11.85 11.85 0 0 0 8.374 3.456h35.68c3.253 0 6.186-1.323 8.319-3.456s3.467-5.077 3.467-8.326v-30.847c0-3.249-1.333-6.192-3.467-8.326a11.72 11.72 0 0 0-8.319-3.456z" opacity="1" data-original="#d7e9ff" class=""></path><path fill="#f1f8ff" d="M386.723 260.235c-12.8 0-25.12 2.213-36.587 6.283v-5.553c0-3.355-1.494-6.368-3.893-8.517-2.24-2.015-5.281-3.264-8.587-3.264h-34.294c-3.359 0-6.399 1.253-8.64 3.264-2.399 2.15-3.84 5.163-3.84 8.517v30.853c0 3.355 1.441 6.363 3.84 8.518 1.441 1.296 3.253 2.278 5.228 2.81-14.081 18.39-22.454 41.387-22.454 66.337 0 10.912 1.599 21.451 4.587 31.397h-61.718v-22.506h24.118c3.253 0 6.239-1.329 8.319-3.456 2.133-2.133 3.467-5.078 3.467-8.326v-30.849c0-3.247-1.333-6.192-3.467-8.325-2.08-2.133-5.066-3.456-8.319-3.456h-24.118v-20.363h23.424c3.306 0 6.399-1.253 8.64-3.264 2.346-2.154 3.84-5.163 3.84-8.518v-30.853c0-3.355-1.494-6.368-3.84-8.517-2.241-2.011-5.334-3.264-8.64-3.264h-34.294c-3.321 0-6.368 1.253-8.606 3.264-2.395 2.15-3.878 5.163-3.878 8.517v13.398h-34.577v-13.398c0-3.355-1.488-6.368-3.876-8.517-2.24-2.011-5.291-3.264-8.608-3.264h-34.309c-3.318 0-6.369 1.253-8.608 3.264-2.39 2.15-3.878 5.163-3.878 8.517v13.398H89.677a191.734 191.734 0 0 1-.546-14.462c0-25.325 4.991-49.481 14.024-71.554v28.693a11.75 11.75 0 0 0 3.462 8.326h.021a11.707 11.707 0 0 0 8.298 3.456h35.716c3.228 0 6.171-1.323 8.305-3.456h.021a11.76 11.76 0 0 0 3.456-8.326v-30.847c0-3.249-1.327-6.192-3.456-8.326h-.021a11.731 11.731 0 0 0-8.305-3.456h-35.716c-2.329 0-4.511.689-6.344 1.875a188.383 188.383 0 0 1 13.058-22.429h284.433v108.079a110.268 110.268 0 0 0-19.359-1.701zm-177.931-85.824a11.722 11.722 0 0 0-8.304 3.456h-.021a11.743 11.743 0 0 0-3.456 8.326v30.847c0 3.249 1.323 6.192 3.456 8.326h.021a11.722 11.722 0 0 0 8.304 3.456h35.691c3.253 0 6.239-1.323 8.319-3.456 2.133-2.133 3.467-5.077 3.467-8.326v-30.847c0-3.249-1.333-6.192-3.467-8.326-2.08-2.133-5.066-3.456-8.319-3.456zm93.878 0c-3.253 0-6.241 1.323-8.374 3.456s-3.414 5.077-3.414 8.326v30.847c0 3.249 1.281 6.192 3.414 8.326a11.85 11.85 0 0 0 8.374 3.456h35.68c3.253 0 6.186-1.323 8.319-3.456s3.467-5.077 3.467-8.326v-30.847c0-3.249-1.333-6.192-3.467-8.326a11.72 11.72 0 0 0-8.319-3.456z" opacity="1" data-original="#f1f8ff" class=""></path><path fill="#d7e9ff" d="M442.243 313.967c-14.187-14.208-33.813-22.997-55.52-22.997s-41.28 8.79-55.467 22.997c-14.241 14.203-23.04 33.834-23.04 55.515s8.799 41.307 23.04 55.515c14.187 14.208 33.813 22.992 55.467 22.992s41.333-8.784 55.52-22.992c14.24-14.208 22.986-33.836 22.986-55.515s-8.746-41.312-22.986-55.515zm-41.6 61.632 11.894 11.878a5.523 5.523 0 0 1 0 7.775c-2.186 2.144-5.653 2.144-7.787 0l-11.894-11.877a15.109 15.109 0 0 1-6.132 1.285c-4.16 0-7.948-1.701-10.72-4.448a15.221 15.221 0 0 1 0-21.462 15.438 15.438 0 0 1 5.226-3.424v-32.149c0-3.036 2.506-5.494 5.494-5.494a5.488 5.488 0 0 1 5.492 5.494v32.149a15.163 15.163 0 0 1 5.281 3.424 15.21 15.21 0 0 1 4.426 10.731c0 2.175-.481 4.245-1.28 6.117zm-73.654-.618h-10.132v-10.997h10.132zm65.227 54.262v10.1H381.23v-10.1zm54.293-65.259h10.079v10.997h-10.079zm-65.28-54.262v-10.101h10.986v10.101z" opacity="1" data-original="#d7e9ff" class=""></path><path fill="#f1f8ff" d="M442.243 313.967c-14.187-14.208-33.813-22.997-55.52-22.997s-41.28 8.79-55.467 22.997c-14.241 14.203-23.04 33.834-23.04 55.515s8.799 41.307 23.04 55.515a78.602 78.602 0 0 0 14.601 11.512c23.526-9.016 44.795-22.589 62.717-39.649a5.444 5.444 0 0 1-3.825-1.607l-11.894-11.877a15.109 15.109 0 0 1-6.132 1.285c-4.16 0-7.948-1.701-10.72-4.448a15.221 15.221 0 0 1 0-21.462 15.438 15.438 0 0 1 5.226-3.424v-32.149c0-3.036 2.506-5.494 5.494-5.494a5.488 5.488 0 0 1 5.492 5.494v32.149a15.163 15.163 0 0 1 5.281 3.424 15.21 15.21 0 0 1 4.426 10.731c0 2.175-.481 4.245-1.28 6.117l11.894 11.878a5.499 5.499 0 0 1 1.599 3.85c17.132-17.711 30.838-38.759 40.037-62.076a78.443 78.443 0 0 0-11.929-15.284zm-115.254 61.014h-10.132v-10.997h10.132zm54.24-65.259v-10.101h10.986v10.101z" opacity="1" data-original="#f1f8ff" class=""></path><path fill="#d7e9ff" d="M389.709 366.522a4.213 4.213 0 0 1 1.226 2.96 4.21 4.21 0 0 1-1.226 2.954v.011a4.2 4.2 0 0 1-2.986 1.221c-1.12 0-2.187-.469-2.934-1.226s-1.226-1.804-1.226-2.96.479-2.203 1.226-2.96 1.814-1.226 2.934-1.226c1.173 0 2.239.469 2.986 1.226z" opacity="1" data-original="#d7e9ff" class=""></path><path fill="#f1f8ff" d="M309.122 292.607h-5.76c-.532 0-.96-.165-1.279-.431-.16-.128-.213-.257-.213-.358v-30.853c0-.101.053-.234.213-.357.319-.268.747-.432 1.279-.432h34.294c.534 0 .96.165 1.28.432.106.122.213.256.213.357v10.155a109.73 109.73 0 0 0-29.654 21.109c-.106.128-.266.251-.373.378zM150.652 185.403h-35.716a.798.798 0 0 0-.559.224l.01.011a.776.776 0 0 0-.236.555v30.847c0 .215.086.411.236.555l-.01.011c.143.139.34.225.559.225h35.716a.805.805 0 0 0 .561-.225l-.011-.011c.15-.144.24-.34.24-.555v-30.847a.784.784 0 0 0-.24-.555l.011-.011a.804.804 0 0 0-.561-.224zM244.483 185.403h-35.691a.812.812 0 0 0-.565.224l.011.011a.799.799 0 0 0-.234.555v30.847c0 .215.091.411.234.555l-.011.011a.815.815 0 0 0 .565.225h35.691a.891.891 0 0 0 .586-.236c.16-.144.213-.34.213-.555v-30.847c0-.213-.053-.405-.213-.555a.894.894 0 0 0-.586-.234zM338.35 185.403h-35.68a.904.904 0 0 0-.587.234c-.16.15-.213.342-.213.555v30.847c0 .215.053.411.213.555.16.145.373.236.587.236h35.68a.91.91 0 0 0 .586-.225v-.011c.106-.144.213-.34.213-.555v-30.847c0-.213-.107-.405-.213-.555v-.011a.91.91 0 0 0-.586-.224z" opacity="1" data-original="#f1f8ff" class=""></path></g></g></svg>