<svg xmlns="http://www.w3.org/2000/svg" version="1.1" xmlns:xlink="http://www.w3.org/1999/xlink" width="512" height="512" x="0" y="0" viewBox="0 0 512 512" style="enable-background:new 0 0 512 512" xml:space="preserve" class=""><g><path fill="#eaf6ff" d="M481.095 139.083H62.511v128.223l13.666 146.291h404.917c17.069 0 30.905-13.837 30.905-30.905V169.989c.001-17.069-13.836-30.906-30.904-30.906z" opacity="1" data-original="#eaf6ff" class=""></path><path fill="#d7ecff" d="M481.095 139.083v210.643c0 17.068-13.837 30.905-30.905 30.905H62.511l13.666 32.966h404.917c17.069 0 30.905-13.837 30.905-30.905V169.988c.001-17.068-13.836-30.905-30.904-30.905z" opacity="1" data-original="#d7ecff"></path><path fill="#ffeb58" d="M38.089 98.402C17.053 98.402 0 115.455 0 136.491v236.426h76.177V136.491c0-21.036-17.053-38.089-38.088-38.089z" opacity="1" data-original="#ffeb58"></path><path fill="#f8b718" d="M76.177 413.598H36.031C16.132 413.598 0 397.466 0 377.566v-2.203c0-20.419 16.553-36.973 36.973-36.973h2.232c20.419 0 36.973 16.553 36.973 36.973v38.235z" opacity="1" data-original="#f8b718" class=""></path><path fill="#5cb6ff" d="M313.92 218.954H125.682c-5.523 0-10-4.477-10-10v-23.522c0-5.523 4.477-10 10-10H313.92c5.523 0 10 4.477 10 10v23.522c0 5.522-4.477 10-10 10z" opacity="1" data-original="#5cb6ff" class=""></path><path fill="#0071d1" d="M339.208 380.177a7.725 7.725 0 0 1-7.614-9.088c1.35-7.55 3.617-14.753 6.738-21.405.172-.367.356-.77.55-1.196 2.588-5.667 7.987-17.456 18.966-16.91 5.007.25 9.601 3.294 12.604 8.355 1.5 2.529 2.703 5.52 3.977 8.688 4.513 11.221 6.549 13.041 8.927 12.602.42-.078 1.78-1.528 2.511-2.307 2.077-2.214 4.924-5.247 9.443-6.593 3.425-1.019 7.132-1.069 11.337-.158 9.538 2.073 18.158 3.13 26.354 3.228l30.568.367a7.726 7.726 0 0 1-.09 15.452l-.095-.001-30.568-.367c-9.251-.111-18.884-1.282-29.45-3.578-1.613-.351-2.773-.394-3.647-.133-.517.154-1.711 1.427-2.584 2.357-2.345 2.498-5.556 5.92-10.953 6.924-16.033 2.985-22.328-12.674-26.091-22.027-1.046-2.603-2.035-5.06-2.93-6.569a6.188 6.188 0 0 0-.153-.242c-1.521 1.75-3.386 5.835-4.069 7.331-.218.478-.424.928-.617 1.34-2.549 5.434-4.405 11.342-5.518 17.564a7.727 7.727 0 0 1-7.596 6.366zM323.92 262.991H115.682a7.725 7.725 0 0 1-7.726-7.726 7.725 7.725 0 0 1 7.726-7.726H323.92a7.725 7.725 0 0 1 7.726 7.726 7.725 7.725 0 0 1-7.726 7.726z" opacity="1" data-original="#0071d1"></path><g fill="#5cb6ff"><path d="M283.745 346.277H115.682a7.726 7.726 0 1 1 0-15.452h168.063c4.268 0 7.726 3.459 7.726 7.726s-3.458 7.726-7.726 7.726zM244.912 380.63h-129.23a7.726 7.726 0 1 1 0-15.452h129.23c4.268 0 7.726 3.459 7.726 7.726s-3.458 7.726-7.726 7.726zM396.876 299.304H115.682a7.726 7.726 0 1 1 0-15.452h281.194c4.268 0 7.726 3.459 7.726 7.726s-3.458 7.726-7.726 7.726z" fill="#5cb6ff" opacity="1" data-original="#5cb6ff" class=""></path></g><path fill="#f8b718" d="M428.625 208.667c-5.573-1.97-11.724-4.34-15.085-6.975-.577-.453-.991-1.817-.665-3.548.159-.841.893-3.652 3.682-4.492 5.982-1.801 11.956 1.066 12.369 1.414l1.455 1.066a7.017 7.017 0 0 0 9.415-1.023c2.665-3.027 2.255-7.69-.931-10.162-3.253-2.525-7.387-4.608-11.782-5.838v-4.558a7.726 7.726 0 1 0-15.452 0v4.465c-7.16 2.351-12.483 8.533-13.94 16.266-1.379 7.317 1.04 14.432 6.314 18.568 5.105 4.004 12.375 6.877 19.471 9.386 5.131 1.814 5.285 5.725 4.92 7.896-.621 3.696-3.731 7.69-9.09 7.725-5.914.042-7.439-.203-11.83-3.076a7.728 7.728 0 0 0-11.159 3.044c-1.784 3.574-.35 7.92 3.005 10.086 4.647 3 8.221 4.386 12.309 4.986v4.156a7.726 7.726 0 1 0 15.452 0v-4.979c9.264-3.044 15.187-11.264 16.551-19.381 1.872-11.133-4.16-21.191-15.009-25.026z" opacity="1" data-original="#f8b718" class=""></path></g></svg>
