<svg xmlns="http://www.w3.org/2000/svg" version="1.1" xmlns:xlink="http://www.w3.org/1999/xlink" width="512"
     height="512" x="0" y="0" viewBox="0 0 68 68" style="enable-background:new 0 0 512 512" xml:space="preserve"
     class="hovered-paths"><g><path fill="#c3632e" d="M66 34.256c0 17.041-13.817 30.859-30.859 30.859-17.03 0-30.847-13.818-30.847-30.86 0-17.03 13.817-30.847 30.847-30.847C52.183 3.408 66 17.226 66 34.256z" opacity="1" data-original="#c3632e"></path><path
        fill="#f5d451"
        d="M63.706 33.733c0 17.041-13.817 30.859-30.858 30.859C15.818 64.592 2 50.774 2 33.732 2 16.703 15.817 2.886 32.848 2.886c17.041 0 30.858 13.818 30.858 30.848z"
        opacity="1" data-original="#f5d451" class="hovered-path"></path><path fill="#fffb7d"
                                                                              d="m63.303 32.118-1.22-.511.996-.59a.713.713 0 0 0-.09-1.274l-1.195-.502.98-.815a.714.714 0 0 0 .225-.76l-1.442-4.665a.71.71 0 0 0-.678-.505L59.6 22.49l.679-.85a.71.71 0 0 0 .088-.753.71.71 0 0 0-.64-.407l-1.222-.009.635-1.086a.71.71 0 0 0-.047-.792l-2.949-3.895a.709.709 0 0 0-.808-.24l-1.205.429.347-1.03a.707.707 0 0 0-.173-.737.708.708 0 0 0-.742-.165l-1.095.389.4-1.822-4.764-3.332a.712.712 0 0 0-.844.019l-1.157.888.018-1.298a.71.71 0 0 0-.395-.648.709.709 0 0 0-.755.072l-1.127.864-.135-1.222a.713.713 0 0 0-.52-.611l-5.14-1.42a.71.71 0 0 0-.79.3l-.84 1.296-.883-1.756a.518.518 0 0 0-.466-.29h-.008a.518.518 0 0 0-.467.302l-.773 1.653-.769-1.53a.514.514 0 0 0-.551-.283l-5.813.932a.523.523 0 0 0-.425.395l-.387 1.615-1.17-1.062a.71.71 0 0 0-.745-.135.709.709 0 0 0-.447.613l-.1 1.428-1.164-1.058a.712.712 0 0 0-.84-.09l-4.859 2.824a.712.712 0 0 0-.349.712l.205 1.54-1.29-.459a.71.71 0 0 0-.743.165.71.71 0 0 0-.175.737l.388 1.146-1.302-.464a.713.713 0 0 0-.81.242L9.37 17.709a.712.712 0 0 0-.047.791l.683 1.171-1.344.01a.71.71 0 0 0-.64.406.709.709 0 0 0 .086.754l.756.945-1.383.008a.71.71 0 0 0-.678.504l-1.52 4.916a.715.715 0 0 0 .225.76l1.055.877-1.31.55a.71.71 0 0 0-.437.61.708.708 0 0 0 .347.663l1.102.654-1.318.552a.713.713 0 0 0-.437.709l.376 5.349c.02.287.209.533.483.627l1.287.437-1.041.946a.71.71 0 0 0-.207.72.709.709 0 0 0 .55.51l1.257.247-1.058.96a.716.716 0 0 0-.175.815l2.144 4.917c.114.261.371.428.655.428h.01l1.424-.02-.6 1.342a.711.711 0 0 0 .101.743.71.71 0 0 0 .707.245l1.251-.278-.584 1.306a.716.716 0 0 0 .167.815l3.937 3.642a.716.716 0 0 0 .782.125l1.272-.58-.025 1.444a.711.711 0 0 0 .715.727.713.713 0 0 0 .416-.134l1.041-.746-.026 1.43a.715.715 0 0 0 .475.684l5.048 1.807a.71.71 0 0 0 .768-.19l.894-.978.34 1.307a.711.711 0 0 0 .694.536.708.708 0 0 0 .553-.267l.804-.996.358 1.384c.078.296.335.51.64.533l5.349.392a.713.713 0 0 0 .688-.39l.633-1.245.795 1.025a.706.706 0 0 0 .664.27.705.705 0 0 0 .563-.44l.467-1.158.983.945a.713.713 0 0 0 .722.163l3.341-1.119a.717.717 0 0 0 .487-.657l.055-1.894.706.772a.713.713 0 0 0 .753.196l2.923-.976a.712.712 0 0 0 .488-.69l-.024-1.317.942.674a.707.707 0 0 0 .746.052.71.71 0 0 0 .384-.645l-.023-1.318 1.184.54a.713.713 0 0 0 .781-.127l3.738-3.457a.715.715 0 0 0 .167-.816l-.54-1.208 1.128.251a.711.711 0 0 0 .71-.246.71.71 0 0 0 .099-.742l-.548-1.227 1.326.019h.01c.283 0 .54-.167.656-.429l2.034-4.668a.715.715 0 0 0-.175-.814l-.979-.889 1.136-.224a.711.711 0 0 0 .55-.51.71.71 0 0 0-.208-.72l-.948-.862 1.194-.405a.71.71 0 0 0 .483-.627l.357-5.078a.713.713 0 0 0-.437-.71zm-.46-1.726a.126.126 0 0 1-.064.121l-1.358.805-1.185-.599a.125.125 0 0 1-.07-.102.127.127 0 0 1 .049-.114l1.069-.84 1.48.62c.063.027.076.08.078.11zm-1.846-7.22 1.442 4.667c.016.05 0 .104-.04.138l-1.228 1.02-1.557-.5a.13.13 0 0 1-.083-.084l-1.233-3.981a.125.125 0 0 1 .016-.11l.836-1.25 1.724.01c.058 0 .107.036.123.09zm-1.16-2.034a.121.121 0 0 1-.016.136l-.958 1.2-1.284-.099a.125.125 0 0 1-.105-.07.122.122 0 0 1 .005-.125l.683-1.127 1.56.011c.07 0 .103.047.115.074zm-4.304-6.13a.13.13 0 0 1 .146.043l2.948 3.895a.13.13 0 0 1 .008.143l-.805 1.378-1.635.062c-.02-.001-.083-.017-.108-.051l-2.517-3.322a.131.131 0 0 1-.022-.108l.36-1.462zm-1.775-1.502a.121.121 0 0 1 .135.03c.022.02.054.066.031.132l-.49 1.455-1.241.346a.13.13 0 0 1-.161-.149l.256-1.284.03-.011.003-.009zm-6.14-4.835a.129.129 0 0 1 .151-.002l4.443 3.108-.394 1.797-.036.013-.002.011-1.657.604a.126.126 0 0 1-.117-.015l-3.728-2.603a.134.134 0 0 1-.056-.097l-.116-1.654zm-2.29-.985a.128.128 0 0 1 .136-.013.125.125 0 0 1 .071.117l-.023 1.747-1.222.808a.125.125 0 0 1-.125.01.129.129 0 0 1-.074-.103l-.171-1.487zm-1.108 3.266c.137 0 .275-.04.394-.119l.932-.617.093 1.313c.015.215.126.41.303.535l3.729 2.603a.714.714 0 0 0 .654.085l1.32-.482-.187.935c-.05.245.03.493.215.663a.706.706 0 0 0 .678.165l.905-.253-.278 1.129c-.05.21-.005.43.125.6l2.518 3.323a.718.718 0 0 0 .57.283h.027l1.252-.048-.492.81a.71.71 0 0 0-.025.696.711.711 0 0 0 .58.386l.94.072-.646.965a.713.713 0 0 0-.089.609l1.234 3.982a.713.713 0 0 0 .464.468l1.187.382-.77.606a.714.714 0 0 0 .119 1.2l.897.452-.974.699a.706.706 0 0 0-.297.53l-.301 4.335a.716.716 0 0 0 .249.593l1.01.858-.959.323a.712.712 0 0 0-.288 1.17l.694.728-1.152.331a.708.708 0 0 0-.458.402L56.66 45.65a.719.719 0 0 0 .038.642l.653 1.128-.99-.087a.722.722 0 0 0-.628.276.713.713 0 0 0-.107.68l.344.944-1.188-.159a.73.73 0 0 0-.58.184l-3.187 2.952a.717.717 0 0 0-.224.605l.144 1.28-.862-.46a.712.712 0 0 0-.688.007.71.71 0 0 0-.363.584l-.053 1.003-1.039-.616a.723.723 0 0 0-.586-.064l-2.22.727a.711.711 0 0 0-.46.474l-.44 1.468-1.586-.518a.72.72 0 0 0-.469.007l-2.879 1.058a.714.714 0 0 0-.465.626l-.075 1.188-.674-.865a.713.713 0 0 0-1.24.21l-.353 1.038-.703-1.119a.72.72 0 0 0-.552-.333l-4.559-.336a.724.724 0 0 0-.57.218l-.892.93-.352-1.05a.712.712 0 0 0-1.171-.29l-.843.803-.415-1.388a.718.718 0 0 0-.444-.467l-4.302-1.544a.713.713 0 0 0-.606.058l-1.11.658-.059-1.106a.718.718 0 0 0-1.05-.592l-.955.51.156-1.378a.716.716 0 0 0-.225-.604l-3.354-3.107a.698.698 0 0 0-.58-.183l-1.277.17.378-1.04a.711.711 0 0 0-.105-.68.712.712 0 0 0-.629-.277l-1.095.097.702-1.214a.715.715 0 0 0 .038-.644l-1.824-4.192a.713.713 0 0 0-.457-.401l-1.24-.357.765-.802a.715.715 0 0 0-.288-1.17l-1.058-.356 1.083-.921a.705.705 0 0 0 .25-.594l-.316-4.562a.714.714 0 0 0-.296-.53l-1.049-.751.988-.5a.712.712 0 0 0 .12-1.199l-.853-.671 1.282-.411a.714.714 0 0 0 .463-.47l1.298-4.19a.714.714 0 0 0-.09-.609l-.695-1.039 1.04-.08a.71.71 0 0 0 .582-.386.708.708 0 0 0-.025-.696l-.546-.898 1.348.05h.028a.717.717 0 0 0 .57-.283l2.65-3.496a.711.711 0 0 0 .124-.602l-.299-1.215 1.005.28a.712.712 0 0 0 .893-.828l-.2-.992 1.353.627a.719.719 0 0 0 .66-.03l4.138-2.403a.711.711 0 0 0 .346-.508l.218-1.395.963.76a.709.709 0 0 0 .687.112.71.71 0 0 0 .457-.53l.24-1.192 1.12 1.158a.525.525 0 0 0 .458.151l4.913-.785a.518.518 0 0 0 .37-.255l.75-1.303.784 1.325c.094.157.26.253.443.255h.008a.52.52 0 0 0 .441-.241l.82-1.292.511 1.167a.71.71 0 0 0 .465.405l4.365 1.203a.716.716 0 0 0 .684-.173l1.032-.987.123 1.07a.715.715 0 0 0 .71.632zm-6.47-5.5a.125.125 0 0 1 .144-.054l5.138 1.419a.13.13 0 0 1 .095.11l.174 1.574-.001.001.002.021-1.352 1.292a.133.133 0 0 1-.124.03l-4.363-1.201a.13.13 0 0 1-.085-.074l-.664-1.52zm-2.679-.402.975 1.941-.976 1.537-.909-1.536zm-8.288.985 5.767-.925L33.499 7l-.877 1.568-4.86.803-1.396-1.443zm-2.685.89c.006-.07.053-.1.081-.111a.125.125 0 0 1 .135.024l1.411 1.284-.316 1.577a.125.125 0 0 1-.083.096.122.122 0 0 1-.123-.02L23.967 8.8zm-7.25 3.568 4.858-2.824a.129.129 0 0 1 .151.016l1.494 1.359-.271 1.735a.13.13 0 0 1-.063.091l-4.137 2.402a.134.134 0 0 1-.119.005l-1.73-.8-.247-1.856a.126.126 0 0 1 .063-.128zm-2.061 1.869a.123.123 0 0 1 .134-.03l1.587.563.279 1.394a.13.13 0 0 1-.161.15l-1.34-.373-.531-1.572a.123.123 0 0 1 .032-.132zm-4.95 5.7 3.106-4.103a.134.134 0 0 1 .146-.044l1.723.614.382 1.549c.009.036 0 .077-.023.108l-2.65 3.495a.136.136 0 0 1-.108.052l-1.73-.065-.855-1.462a.132.132 0 0 1 .008-.144zM8.55 20.339a.122.122 0 0 1 .115-.073l1.683-.012.738 1.216a.123.123 0 0 1 .004.125.122.122 0 0 1-.105.07l-1.385.106-1.035-1.295a.123.123 0 0 1-.015-.137zm-2.708 7.048 1.52-4.917a.127.127 0 0 1 .122-.09l1.829-.012.886 1.325a.126.126 0 0 1 .016.11l-1.298 4.192a.129.129 0 0 1-.082.084l-1.65.53-1.303-1.084a.128.128 0 0 1-.04-.138zM5.4 30.052a.126.126 0 0 1 .08-.11l1.594-.67 1.152.907c.048.037.05.087.048.113s-.015.075-.07.103l-1.277.645-1.464-.87a.125.125 0 0 1-.063-.118zm.07 7.845-.376-5.35a.13.13 0 0 1 .08-.127l1.704-.713 1.308.936a.134.134 0 0 1 .055.096l.317 4.563a.127.127 0 0 1-.046.105l-1.35 1.148-1.603-.544a.131.131 0 0 1-.088-.114zm.503 2.614a.124.124 0 0 1 .036-.13l1.28-1.164 1.389.469c.058.02.077.066.083.092a.123.123 0 0 1-.03.12l-.989 1.034-1.671-.329a.124.124 0 0 1-.098-.092zm2.811 7.449c-.032.008-.1-.03-.121-.078l-2.143-4.915a.128.128 0 0 1 .031-.148l1.368-1.242 1.546.445c.037.01.068.038.083.073l1.823 4.192a.123.123 0 0 1-.006.116l-.888 1.533zm1.513 2.323a.124.124 0 0 1-.127-.044.122.122 0 0 1-.019-.133l.705-1.58 1.459-.129c.08-.005.098.03.114.05.016.021.04.065.018.123l-.488 1.345zm5.438 5.65a.13.13 0 0 1-.142-.023l-3.937-3.642a.129.129 0 0 1-.03-.147l.754-1.687 1.595-.213c.036-.01.076.006.105.033l3.354 3.107a.13.13 0 0 1 .04.109l-.198 1.76zm2.28 1.512a.128.128 0 0 1-.137.01.124.124 0 0 1-.068-.116l.028-1.73 1.293-.69c.054-.03.1-.011.125.002a.124.124 0 0 1 .064.106l.078 1.428zm7.214 3.067a.125.125 0 0 1-.138.034l-5.05-1.807a.129.129 0 0 1-.085-.124l.032-1.847 1.386-.822c.03-.019.07-.024.108-.01l4.303 1.544a.133.133 0 0 1 .08.085l.507 1.697zm2.458.626a.12.12 0 0 1-.128.046.124.124 0 0 1-.097-.095l-.435-1.673 1.061-1.01a.124.124 0 0 1 .12-.032.123.123 0 0 1 .09.083l.458 1.356zm7.773 1.026c-.023.045-.071.082-.125.07l-5.347-.392a.13.13 0 0 1-.117-.096l-.462-1.79 1.114-1.16c.025-.027.049-.047.103-.04l4.557.337a.13.13 0 0 1 .1.06l.944 1.5zm2.633-.345a.122.122 0 0 1-.1.079.123.123 0 0 1-.122-.05l-.98-1.265.498-1.472a.127.127 0 0 1 .101-.087.123.123 0 0 1 .124.049l1.045 1.342zm5.958-1.623a.13.13 0 0 1-.088.119l-3.34 1.118a.128.128 0 0 1-.13-.03l-1.198-1.152.114-1.825a.127.127 0 0 1 .083-.112l2.878-1.058a.133.133 0 0 1 .086 0l1.665.542zm4.836-2.442-2.922.977a.128.128 0 0 1-.136-.036l-1.082-1.182.478-1.597a.125.125 0 0 1 .082-.085l2.22-.727a.13.13 0 0 1 .105.012l1.314.779.03 1.735a.128.128 0 0 1-.089.124zm2.068-1.244a.12.12 0 0 1-.135-.009l-1.284-.92.072-1.325a.123.123 0 0 1 .065-.105.12.12 0 0 1 .123-.001l1.2.64.027 1.604a.123.123 0 0 1-.068.116zm5.936-4.918-3.738 3.458a.128.128 0 0 1-.14.022l-1.454-.662-.187-1.661a.13.13 0 0 1 .041-.11l3.187-2.952a.118.118 0 0 1 .105-.033l1.506.2.71 1.59a.128.128 0 0 1-.03.148zm1.41-1.959a.131.131 0 0 1-.128.044l-1.542-.342-.454-1.247a.122.122 0 0 1 .02-.123.12.12 0 0 1 .113-.05l1.355.12.653 1.465a.123.123 0 0 1-.017.133zm3.493-6.91-2.033 4.665a.132.132 0 0 1-.12.08h-.002l-1.596-.024L57.203 46a.134.134 0 0 1-.007-.118l1.736-3.985a.122.122 0 0 1 .081-.071l1.46-.42 1.289 1.17a.127.127 0 0 1 .03.147zm.505-2.36a.125.125 0 0 1-.1.092l-1.549.305-.917-.96a.129.129 0 0 1 .053-.212l1.288-.435 1.187 1.08a.124.124 0 0 1 .038.13zm.502-2.498a.13.13 0 0 1-.087.112l-1.513.513-1.275-1.084a.132.132 0 0 1-.045-.107l.302-4.335a.133.133 0 0 1 .053-.094l1.235-.885 1.607.672a.13.13 0 0 1 .08.128z"
                                                                              opacity="1" data-original="#fffb7d"
                                                                              class=""></path><path fill="#cb6030"
                                                                                                    d="m62.694 31.996-1.22-.511.996-.59a.713.713 0 0 0-.089-1.274l-1.196-.502.98-.815a.714.714 0 0 0 .225-.76l-1.442-4.665a.71.71 0 0 0-.678-.505l-1.279-.007.68-.85a.71.71 0 0 0 .087-.753.71.71 0 0 0-.64-.407l-1.221-.009.634-1.086a.71.71 0 0 0-.047-.792l-2.948-3.895a.709.709 0 0 0-.809-.24l-1.205.429.348-1.03a.707.707 0 0 0-.174-.737.708.708 0 0 0-.742-.165l-1.094.389.4-1.822-4.764-3.332a.712.712 0 0 0-.844.019l-1.157.888.017-1.298a.71.71 0 0 0-.395-.648.709.709 0 0 0-.754.072l-1.128.864-.134-1.222a.713.713 0 0 0-.52-.611l-5.14-1.42a.71.71 0 0 0-.79.3l-.84 1.296-.883-1.756a.518.518 0 0 0-.467-.29h-.008a.518.518 0 0 0-.466.302l-.774 1.653-.769-1.53a.514.514 0 0 0-.55-.283l-5.813.932a.523.523 0 0 0-.426.395l-.387 1.615-1.169-1.062a.71.71 0 0 0-.745-.135.709.709 0 0 0-.447.613l-.101 1.428-1.164-1.058a.712.712 0 0 0-.84-.09l-4.858 2.824a.712.712 0 0 0-.35.712l.206 1.54-1.291-.459a.71.71 0 0 0-.742.165.71.71 0 0 0-.175.737l.388 1.146-1.303-.464a.713.713 0 0 0-.81.242l-3.106 4.103a.712.712 0 0 0-.047.791l.684 1.171-1.345.01a.71.71 0 0 0-.64.406.709.709 0 0 0 .087.754l.755.945-1.383.008a.71.71 0 0 0-.678.504l-1.52 4.916a.715.715 0 0 0 .226.76l1.054.877-1.31.55a.71.71 0 0 0-.437.61.708.708 0 0 0 .348.663l1.101.654-1.318.552a.713.713 0 0 0-.436.709l.376 5.35c.02.286.208.532.482.626l1.287.437-1.04.946a.71.71 0 0 0-.208.72.709.709 0 0 0 .55.51l1.257.247-1.058.96a.716.716 0 0 0-.175.815l2.144 4.917c.114.261.372.428.655.428h.01l1.424-.02-.6 1.342a.711.711 0 0 0 .101.743.71.71 0 0 0 .707.245l1.252-.277-.584 1.305a.716.716 0 0 0 .167.815l3.936 3.642a.716.716 0 0 0 .782.125l1.272-.58-.024 1.444a.711.711 0 0 0 .714.727.714.714 0 0 0 .416-.134l1.041-.746-.025 1.43a.715.715 0 0 0 .474.684l5.048 1.807a.71.71 0 0 0 .768-.19l.895-.978.34 1.307a.711.711 0 0 0 .693.536.708.708 0 0 0 .554-.266l.804-.997.357 1.384c.078.296.335.51.64.533l5.35.392a.713.713 0 0 0 .688-.39l.633-1.245.795 1.025a.706.706 0 0 0 .664.27.705.705 0 0 0 .562-.44l.468-1.158.982.945a.713.713 0 0 0 .723.163l3.34-1.119a.717.717 0 0 0 .488-.657l.054-1.894.706.772a.713.713 0 0 0 .753.196l2.923-.976a.712.712 0 0 0 .488-.69l-.023-1.317.941.674a.707.707 0 0 0 .747.052.71.71 0 0 0 .383-.645l-.023-1.318 1.185.54a.713.713 0 0 0 .78-.127L56.68 51.9a.715.715 0 0 0 .167-.816l-.54-1.208 1.129.251a.711.711 0 0 0 .71-.246.71.71 0 0 0 .098-.742l-.548-1.227 1.327.019h.009c.284 0 .54-.167.656-.429l2.034-4.668a.715.715 0 0 0-.175-.814l-.979-.889 1.136-.224a.711.711 0 0 0 .55-.51.71.71 0 0 0-.208-.72l-.948-.862 1.195-.405a.71.71 0 0 0 .482-.627l.357-5.078a.713.713 0 0 0-.437-.71zm-.46-1.726a.126.126 0 0 1-.063.121l-1.359.805-1.184-.599a.125.125 0 0 1-.07-.102.127.127 0 0 1 .048-.114l1.07-.84 1.479.62c.064.027.076.08.079.11zm-1.846-7.22 1.442 4.667c.016.05 0 .104-.04.138l-1.228 1.02-1.556-.5a.13.13 0 0 1-.084-.084L57.69 24.31a.125.125 0 0 1 .016-.11l.836-1.25 1.724.01c.057 0 .106.036.122.09zm-1.16-2.034a.121.121 0 0 1-.015.136l-.958 1.2-1.284-.099a.125.125 0 0 1-.106-.07.122.122 0 0 1 .005-.125l.684-1.126 1.56.01c.07 0 .102.047.115.074zm-4.304-6.13a.13.13 0 0 1 .146.043l2.948 3.895a.13.13 0 0 1 .008.143l-.805 1.379-1.635.06c-.02 0-.082-.016-.107-.05l-2.518-3.322a.131.131 0 0 1-.022-.108l.36-1.461zm-1.774-1.502a.121.121 0 0 1 .134.03c.022.02.054.066.031.132l-.49 1.455-1.24.346a.13.13 0 0 1-.162-.149l.257-1.284.03-.011.002-.009zM47.009 8.55a.129.129 0 0 1 .152-.003l4.443 3.108-.395 1.797-.035.013-.002.011-1.657.605a.126.126 0 0 1-.118-.016l-3.727-2.603a.134.134 0 0 1-.056-.097l-.117-1.654zm-2.29-.986a.127.127 0 0 1 .137-.013.125.125 0 0 1 .07.117l-.022 1.747-1.223.808a.125.125 0 0 1-.124.01.129.129 0 0 1-.075-.103l-.171-1.487zm-1.107 3.267c.137 0 .274-.04.393-.12l.933-.617.093 1.313c.014.215.125.41.303.535l3.728 2.603a.714.714 0 0 0 .654.085l1.32-.481-.187.934c-.05.245.031.493.215.663a.706.706 0 0 0 .678.165l.906-.253-.278 1.129c-.05.21-.006.43.124.6l2.518 3.323a.718.718 0 0 0 .57.283h.027l1.252-.048-.492.81a.71.71 0 0 0-.025.696.711.711 0 0 0 .58.386l.94.072-.645.965a.713.713 0 0 0-.09.609l1.234 3.982a.713.713 0 0 0 .464.468l1.188.382-.77.606a.714.714 0 0 0 .119 1.2l.897.452-.975.699a.706.706 0 0 0-.296.53l-.302 4.335a.716.716 0 0 0 .25.593l1.009.858-.958.323a.712.712 0 0 0-.288 1.17l.694.728-1.153.331a.708.708 0 0 0-.457.402l-1.735 3.985a.719.719 0 0 0 .038.642l.654 1.128-.99-.087a.722.722 0 0 0-.629.276.713.713 0 0 0-.106.68l.343.944-1.187-.159a.73.73 0 0 0-.581.184l-3.187 2.952a.717.717 0 0 0-.224.605l.144 1.28-.862-.46a.712.712 0 0 0-.688.007.71.71 0 0 0-.362.584l-.054 1.003-1.038-.616a.723.723 0 0 0-.587-.064l-2.22.727a.711.711 0 0 0-.46.474l-.44 1.468-1.586-.518a.72.72 0 0 0-.469.007l-2.879 1.058a.714.714 0 0 0-.465.626l-.075 1.188-.674-.865a.713.713 0 0 0-1.24.21l-.352 1.038-.704-1.119a.72.72 0 0 0-.552-.333l-4.559-.336a.724.724 0 0 0-.569.218l-.892.93-.353-1.05a.712.712 0 0 0-1.17-.29l-.844.803-.415-1.388a.718.718 0 0 0-.443-.467l-4.303-1.544a.713.713 0 0 0-.606.058l-1.109.658-.06-1.106a.718.718 0 0 0-1.05-.592l-.954.51.155-1.378a.716.716 0 0 0-.224-.604l-3.355-3.107a.698.698 0 0 0-.58-.183l-1.276.17.378-1.04a.711.711 0 0 0-.105-.68.712.712 0 0 0-.63-.277l-1.095.097.702-1.214a.715.715 0 0 0 .038-.644l-1.823-4.192a.713.713 0 0 0-.458-.401l-1.24-.357.766-.802a.715.715 0 0 0-.288-1.17l-1.058-.356 1.083-.921a.705.705 0 0 0 .25-.594l-.317-4.562a.714.714 0 0 0-.296-.53l-1.048-.751.988-.5a.712.712 0 0 0 .12-1.199l-.853-.671 1.281-.411a.714.714 0 0 0 .464-.47l1.297-4.19a.714.714 0 0 0-.089-.609l-.696-1.039 1.04-.08a.71.71 0 0 0 .582-.386.708.708 0 0 0-.025-.696l-.546-.898 1.349.05h.027a.717.717 0 0 0 .57-.283l2.65-3.496a.711.711 0 0 0 .124-.602l-.298-1.215 1.004.28a.712.712 0 0 0 .893-.828l-.2-.992 1.354.627a.718.718 0 0 0 .66-.03l4.137-2.403a.711.711 0 0 0 .346-.508l.218-1.395.964.76a.709.709 0 0 0 .687.112.71.71 0 0 0 .456-.53l.24-1.192 1.12 1.158a.525.525 0 0 0 .458.151l4.913-.785a.518.518 0 0 0 .37-.255l.75-1.303.785 1.325c.093.157.26.253.442.255h.008a.52.52 0 0 0 .442-.241l.82-1.292.51 1.167a.71.71 0 0 0 .466.405l4.364 1.203a.716.716 0 0 0 .684-.173l1.032-.987.124 1.07a.715.715 0 0 0 .71.632zm-6.47-5.5a.125.125 0 0 1 .143-.055l5.139 1.419a.13.13 0 0 1 .095.11l.173 1.574v.001l.002.021-1.353 1.292a.133.133 0 0 1-.124.03l-4.363-1.2a.13.13 0 0 1-.084-.075l-.665-1.52zm-2.68-.403.976 1.941-.977 1.537-.909-1.536zm-8.288.985 5.767-.925.95 1.891-.878 1.568-4.859.803-1.397-1.443zm-2.684.89c.005-.07.052-.1.08-.111a.125.125 0 0 1 .136.024L25.116 8 24.8 9.577a.125.125 0 0 1-.082.096.122.122 0 0 1-.124-.02l-1.236-.975zm-7.252 3.568 4.86-2.824a.129.129 0 0 1 .15.016l1.494 1.359-.271 1.735a.13.13 0 0 1-.063.091l-4.137 2.402a.134.134 0 0 1-.119.005l-1.73-.8-.246-1.856a.126.126 0 0 1 .062-.128zm-2.06 1.869a.123.123 0 0 1 .134-.03l1.587.563.279 1.394a.13.13 0 0 1-.161.15l-1.34-.373-.53-1.572a.123.123 0 0 1 .031-.132zm-4.95 5.7 3.106-4.103a.134.134 0 0 1 .146-.044l1.723.614.382 1.549c.01.036 0 .077-.023.108l-2.65 3.495a.136.136 0 0 1-.107.052l-1.731-.065-.855-1.462a.132.132 0 0 1 .008-.144zm-1.286 2.277a.122.122 0 0 1 .116-.073l1.683-.012.737 1.216a.123.123 0 0 1 .005.125.122.122 0 0 1-.105.07l-1.386.106-1.035-1.295a.123.123 0 0 1-.015-.137zm-2.707 7.048 1.52-4.917a.127.127 0 0 1 .122-.09l1.828-.012.886 1.325a.126.126 0 0 1 .016.11l-1.298 4.192a.129.129 0 0 1-.082.084l-1.649.53-1.303-1.084a.128.128 0 0 1-.04-.138zM4.79 29.93a.126.126 0 0 1 .08-.11l1.594-.67 1.152.907c.048.037.05.087.048.113a.125.125 0 0 1-.07.103l-1.276.645-1.465-.87a.125.125 0 0 1-.063-.118zm.07 7.845-.375-5.35a.13.13 0 0 1 .08-.127l1.703-.713 1.308.936a.134.134 0 0 1 .055.096l.317 4.563a.127.127 0 0 1-.046.106l-1.349 1.147-1.604-.544a.131.131 0 0 1-.088-.114zm.503 2.614a.124.124 0 0 1 .036-.13l1.281-1.164 1.388.469c.058.02.078.066.084.092a.123.123 0 0 1-.031.12l-.988 1.034-1.672-.329a.124.124 0 0 1-.098-.092zm2.811 7.449c-.032.008-.1-.03-.12-.078L5.91 42.845a.128.128 0 0 1 .03-.148l1.368-1.242 1.547.445c.036.01.067.038.082.073l1.824 4.192a.123.123 0 0 1-.007.116l-.887 1.533zm1.513 2.323a.124.124 0 0 1-.127-.044.122.122 0 0 1-.018-.133l.704-1.58 1.46-.129c.08-.005.097.03.113.05.016.021.04.065.019.123l-.489 1.345zm5.438 5.65a.13.13 0 0 1-.142-.023l-3.936-3.642a.129.129 0 0 1-.03-.147l.753-1.687 1.595-.213c.037-.01.077.006.105.033l3.354 3.107a.13.13 0 0 1 .041.109l-.199 1.76zm2.28 1.512a.128.128 0 0 1-.136.01.124.124 0 0 1-.069-.116l.029-1.73 1.293-.69c.054-.03.1-.011.124.002a.123.123 0 0 1 .064.106l.078 1.428zm7.214 3.068a.125.125 0 0 1-.138.033l-5.05-1.807a.129.129 0 0 1-.085-.124l.032-1.847 1.386-.821c.03-.02.07-.024.109-.01l4.302 1.543a.133.133 0 0 1 .081.085l.507 1.697zm2.459.626a.12.12 0 0 1-.129.045.124.124 0 0 1-.097-.095l-.434-1.673 1.06-1.01a.124.124 0 0 1 .12-.032.123.123 0 0 1 .091.083l.458 1.356zm7.772 1.025c-.023.045-.07.082-.125.07l-5.347-.392a.13.13 0 0 1-.117-.096l-.462-1.79 1.114-1.16c.025-.027.05-.047.103-.04l4.557.337a.13.13 0 0 1 .101.06l.943 1.5zm2.633-.345a.122.122 0 0 1-.1.079.123.123 0 0 1-.122-.05l-.98-1.265.498-1.472a.127.127 0 0 1 .102-.087.123.123 0 0 1 .123.049l1.045 1.342zm5.958-1.623a.13.13 0 0 1-.088.119l-3.34 1.118a.128.128 0 0 1-.13-.03l-1.198-1.152.114-1.825a.127.127 0 0 1 .084-.112l2.878-1.058a.134.134 0 0 1 .085 0l1.665.542zm4.837-2.442-2.923.977a.128.128 0 0 1-.136-.036l-1.081-1.182.478-1.597a.125.125 0 0 1 .082-.085l2.22-.727a.13.13 0 0 1 .104.012l1.314.78.03 1.734a.128.128 0 0 1-.088.124zm2.067-1.244a.12.12 0 0 1-.135-.009l-1.284-.92.072-1.325a.123.123 0 0 1 .065-.105.12.12 0 0 1 .124-.001l1.2.64.026 1.604a.123.123 0 0 1-.068.116zm5.936-4.918-3.737 3.458a.128.128 0 0 1-.141.022l-1.453-.662-.188-1.661a.13.13 0 0 1 .041-.11l3.187-2.952a.118.118 0 0 1 .105-.033l1.506.2.71 1.59a.128.128 0 0 1-.03.148zm1.41-1.959a.131.131 0 0 1-.128.044l-1.541-.342-.454-1.247a.122.122 0 0 1 .02-.123.12.12 0 0 1 .112-.05l1.355.12.653 1.465a.123.123 0 0 1-.017.133zm3.493-6.91-2.033 4.665a.132.132 0 0 1-.12.08h-.001l-1.596-.023-.84-1.446a.134.134 0 0 1-.006-.118l1.735-3.985a.122.122 0 0 1 .081-.071l1.46-.42 1.289 1.17a.127.127 0 0 1 .03.147zm.505-2.36a.125.125 0 0 1-.1.092l-1.548.305-.917-.96a.129.129 0 0 1 .052-.212l1.289-.435 1.187 1.08a.124.124 0 0 1 .037.13zm.502-2.498a.13.13 0 0 1-.087.112l-1.512.513-1.275-1.084a.132.132 0 0 1-.046-.107l.302-4.335a.133.133 0 0 1 .054-.094l1.234-.885 1.607.672a.13.13 0 0 1 .08.129z"
                                                                                                    opacity="1"
                                                                                                    data-original="#cb6030"
                                                                                                    class=""></path><path
        fill="#fffb7d"
        d="M36.137 10.508v.53c11.242 1.434 19.966 11.14 19.966 22.76 0 11.623-8.724 21.228-19.966 22.663v.541c11.59-1.438 20.595-11.233 20.595-23.205 0-11.966-9.006-21.852-20.595-23.29z"
        opacity="1" data-original="#fffb7d" class=""></path><path fill="#b74d23"
                                                                  d="M32.848 57.232C19.897 57.232 9.36 46.69 9.36 33.733c0-12.951 10.537-23.488 23.488-23.488 12.957 0 23.5 10.537 23.5 23.488 0 12.957-10.543 23.499-23.5 23.499zm0-46.357c-12.605 0-22.859 10.254-22.859 22.858 0 12.61 10.254 22.869 22.859 22.869 12.611 0 22.87-10.259 22.87-22.869 0-12.604-10.259-22.858-22.87-22.858z"
                                                                  opacity="1" data-original="#b74d23" class=""></path><path
        fill="#fffb7d"
        d="M52.921 29.411c.007.001.014 0 .021.007-.006-.028-.033-.043-.046-.067-.02-.032-.031-.064-.06-.089a.375.375 0 0 0-.255-.109h-6.845c-.36-4.441-.997-8.148-2.833-9.65l.026.01c-.014-.012-.031-.017-.045-.028a3.147 3.147 0 0 0-.626-.391c-.074-.036-.153-.065-.231-.094a3.155 3.155 0 0 0-.703-.183c-.02-.003-.037-.013-.058-.015a5.23 5.23 0 0 0-.73-.002c-1.243.06-2.286.585-3.082 1.683-.543.747-.968 1.766-1.273 3.06-.015.061-.034.111-.048.174l-1.01 5.436h-3.73c-.495-1.969-1.369-3.422-2.794-4.127-1.464-.703-2.887-.482-4.277.489a.347.347 0 0 1-.547-.284v-3.11c0-.202.163-.365.364-.365h5.879c.16 0 .301-.104.348-.257l.615-2.008.078-.243a.367.367 0 0 0-.35-.47h-8.603a.375.375 0 0 0-.373.373v10.002h-8.098a.401.401 0 0 0-.398.398v10.784c0 .106.044.2.113.27.051.055.125.074.2.093.019.004.03.022.049.023l-.001-.003c.014.002.023.016.037.016h14.74c-.04.528-.092 1.02-.159 1.468-.103.68-.232 1.277-.391 1.787-.29.932-.67 1.6-1.116 2.07a2.368 2.368 0 0 1-1.988.7 7.57 7.57 0 0 1-1.08-.214 5.854 5.854 0 0 1-1.182-.436c-.035-.018-.066-.04-.1-.057a4.98 4.98 0 0 1-.756-.498l-.101-.079a5.095 5.095 0 0 1-.952-1.067h.002a4.778 4.778 0 0 1-.386-.687c-.022-.04-.064-.054-.103-.068-.066-.026-.138-.025-.186.039l-.57.753a.168.168 0 0 0-.034.114c.002.032.012.06.015.092.024.257.068.503.128.739.018.07.04.139.061.208.067.22.15.429.248.628.02.04.037.08.058.12.124.23.262.451.431.653-.005-.01-.007-.023-.013-.034.941 1.156 2.56 1.838 4.759 1.855.807.007 1.617-.083 2.38-.345 2.817-.965 4.361-3.637 5.115-7.368h.014l.07-.373h2.74c.01.108.024.206.034.312.034.338.068.678.108.996.037.278.079.54.12.801.048.302.1.593.154.873.043.215.086.431.133.633.088.377.185.73.288 1.062.026.08.046.172.073.25.137.41.292.775.457 1.112.042.085.088.16.132.24a5.568 5.568 0 0 0 .602.9c.168.198.347.371.537.52.045.036.087.082.134.115.012.009.022.021.034.03l-.016-.02a3.114 3.114 0 0 0 1.741.57c2.67.224 4.572-1.224 5.45-4.914l.77-3.48h6.555a.396.396 0 0 0 .395-.397V29.555c0-.056-.038-.096-.059-.144zm-14.839-.258.538-5.275c.328-2.72 1.032-3.887 2.056-3.725 1.32.138 2.116 2.075 2.172 5.145l.331 3.855zm-13.135-2.035c.472-.15.98-.159 1.46-.037.739.187 1.31.653 1.63 1.536.045.179.078.357.076.536h-4.61c.051-1.014.51-1.74 1.444-2.035zm17.668 16.936c-.348 2.72-1.096 3.886-2.184 3.725-1.403-.139-2.25-2.076-2.31-5.146l-.138-1.9h5.111zm9.574-4.113H14.03v-9.99H52.19v9.99z"
        opacity="1" data-original="#fffb7d" class=""></path><path fill="#fffb7d"
                                                                  d="M17.684 38.417h31.43v-5.57c-.883.068-1.777.521-2.66 1.19-.069.05-.116.121-.176.181-.213.208-.381.448-.443.734-.003.012-.013.022-.015.035-.066.343 0 .602.175.792.006.007.015.012.021.018.052.053.11.102.18.144l.01.008-.001-.004c.305.18.768.259 1.358.253v.498h-8.219V31.66l-1.879.826v4.211H33.56V33.9l-1.517.555v2.241h-1.415v-2.762l-1.529.69.057 2.072-1.415-.068v-2.637l-1.743.543v2.072H19.07v-5.007l-1.7.783v6.037h.314v-.002zm29.811-2.977c-.317 0-.577-.238-.577-.532 0-.283.26-.521.577-.521.328 0 .589.238.589.52 0 .295-.26.533-.589.533z"
                                                                  opacity="1" data-original="#fffb7d" class=""></path><path
        fill="#fffb7d"
        d="M44.853 34.11c.506 0 .916-.427.916-.954 0-.53-.41-.957-.916-.957-.505 0-.915.427-.915.957 0 .527.41.954.915.954zM22.989 32.414l.08-.92-3.108 1.313.107.848zM22.989 33.901l.08-.92-3.108 1.313.107.849z"
        opacity="1" data-original="#fffb7d" class=""></path><path fill="#cb6030"
                                                                  d="M30.196 18.33h-8.604a.364.364 0 0 0-.364.364v10.41h1.742c-.073-1.24.408-2.103 1.466-2.437.473-.15.98-.16 1.46-.038.74.188 1.31.653 1.63 1.536.08.312.136.62 0 .938h3.457c-.473-2.177-1.372-3.775-2.894-4.529-1.464-.702-2.887-.481-4.277.49a.347.347 0 0 1-.547-.284v-3.11c0-.202.163-.365.364-.365h5.879c.16 0 .301-.105.348-.258l.688-2.246a.364.364 0 0 0-.348-.471z"
                                                                  opacity="1" data-original="#cb6030" class=""></path><path
        fill="#b74d23"
        d="m30.549 18.796-.108.338h-8.026a.363.363 0 0 0-.361.361V29.1h-.832V18.7c0-.205.169-.374.374-.374H30.2c.24 0 .421.241.349.47z"
        opacity="1" data-original="#b74d23" class=""></path><path fill="#cb6030"
                                                                  d="M27.901 39.886c-.188 3.049-.81 4.784-1.696 5.718a2.355 2.355 0 0 1-1.989.704c-2.263-.271-3.75-1.312-4.566-3.037a.167.167 0 0 0-.283-.03l-.571.753a.168.168 0 0 0-.034.113c.196 2.58 2.234 4.234 5.688 4.262.806.006 1.616-.083 2.38-.345 3.01-1.032 4.58-3.996 5.27-8.138z"
                                                                  opacity="1" data-original="#cb6030" class=""></path><path
        fill="#b74d23"
        d="M19.656 43.27c.108.241.24.47.385.687-.06-.024-.132 0-.18.06l-.567.747a.204.204 0 0 0-.036.12c.048.615.193 1.17.446 1.664-.554-.663-.868-1.483-.94-2.447 0-.036.012-.072.036-.108l.567-.747c.072-.108.229-.084.289.024zM32.103 39.884c-.048.265-.096.518-.144.771h-3.06c-.28 0-.508.225-.531.504-.227 2.738-.822 4.333-1.663 5.22a2.345 2.345 0 0 1-1.988.699c-2.145-.253-3.591-1.205-4.423-2.772.868 1.109 2.157 1.796 3.917 2a2.368 2.368 0 0 0 1.988-.698c.892-.94 1.518-2.675 1.699-5.724z"
        opacity="1" data-original="#b74d23" class=""></path><path fill="#cb6030"
                                                                  d="m44.75 43.763.857-3.877H42.64l-.536 3.716c-.349 2.72-1.096 3.887-2.184 3.725-1.404-.138-2.25-2.075-2.31-5.145l-.17-2.323-2.715.027c.47 5.76 1.865 8.714 4.574 8.79 2.669.225 4.572-1.223 5.45-4.913z"
                                                                  opacity="1" data-original="#cb6030" class=""></path><path
        fill="#b74d23"
        d="M36.04 40.418a.648.648 0 0 0-.631.709c.34 3.402 1.025 5.735 2.165 7-1.602-1.097-2.482-3.857-2.844-8.243l2.712-.024.036.542z"
        opacity="1" data-original="#b74d23" class=""></path><path fill="#cb6030"
                                                                  d="M52.074 40.282H13.125a.396.396 0 0 1-.396-.396V29.103c0-.219.177-.396.396-.396h38.95c.218 0 .395.177.395.396v10.783a.396.396 0 0 1-.396.396zm-38.553-.792h38.158V29.5H13.52z"
                                                                  opacity="1" data-original="#cb6030" class=""></path><path
        fill="#cb6030"
        d="m35.622 23.266-1.084 5.837h2.993l.58-5.676c.327-2.72 1.03-3.887 2.054-3.726 1.32.139 2.117 2.076 2.173 5.146l.366 4.256h2.555c-.443-5.759-1.292-10.384-4.51-10.75-2.51-.225-4.301 1.223-5.127 4.913z"
        opacity="1" data-original="#cb6030" class=""></path><path fill="#b74d23"
                                                                  d="M52.07 28.702H13.125a.401.401 0 0 0-.398.397v10.785c0 .205.157.374.362.386a.286.286 0 0 1-.037-.145V29.352c0-.229.181-.397.398-.397h38.946c.012 0 .024 0 .036.012-.036-.157-.193-.265-.362-.265z"
                                                                  opacity="1" data-original="#b74d23" class=""></path><path
        fill="#cb6030"
        d="M45.943 33.585c-.317.237-.554.566-.634.95-.17.884.521 1.223 1.744 1.212v.498h-8.219v-5.038l-1.879.827v4.21h-3.906V33.45l-1.517.555v2.24h-1.415v-2.761l-1.528.69.057 2.072-1.415-.068v-2.638l-1.744.544v2.071H18.56v-5.003l-1.698.78v6.035h31.743v-5.57c-.883.068-1.778.52-2.66 1.189zm1.042 1.403c-.317 0-.578-.237-.578-.532 0-.283.26-.52.578-.52.328 0 .588.237.588.52 0 .295-.26.532-.588.532z"
        opacity="1" data-original="#cb6030" class=""></path><path fill="#b74d23"
                                                                  d="M16.86 31.931v6.037h.313V32.22l1.386-.639v-.433zm29.089 1.65c-.325.242-.566.567-.639.953-.084.458.06.771.386.964-.109-.181-.133-.398-.084-.675.084-.386.325-.723.638-.952.771-.59 1.567-1.012 2.35-1.145v-.325c-.88.06-1.771.518-2.651 1.18z"
                                                                  opacity="1" data-original="#b74d23" class=""></path><path
        fill="#cb6030"
        d="M45.259 32.704c0 .528-.41.954-.916.954s-.915-.426-.915-.954c0-.53.41-.956.915-.956.506 0 .916.427.916.956zM19.45 32.355l3.109-1.313-.08.92-2.922 1.242zM19.45 33.843l3.109-1.313-.08.92-2.922 1.241z"
        opacity="1" data-original="#cb6030" class=""></path><path fill="#b74d23"
                                                                  d="M42.418 19.062a3.018 3.018 0 0 0-1.06-.314c-2.519-.229-4.314 1.23-5.133 4.917l-.984 5.29h-.675l1.056-5.688c.82-3.687 2.615-5.133 5.133-4.916.651.072 1.193.313 1.663.71zM17.173 37.467h31.055v-5.011l.372-.055.004 5.565-31.43.002z"
                                                                  opacity="1" data-original="#b74d23" class=""></path><path
        fill="#ffffff"
        d="m50.644 42.488 1.83 2.076a.152.152 0 0 0 .19.03l2.47-1.476c.153-.09.311.11.187.236l-1.953 2.004a.152.152 0 0 0-.025.177l1.267 2.367c.084.158-.128.306-.247.172L52.47 45.95a.152.152 0 0 0-.19-.03l-2.339 1.385c-.15.089-.306-.103-.19-.232l1.81-2.008a.152.152 0 0 0 .02-.172l-1.185-2.234c-.084-.159.129-.306.248-.171z"
        opacity="1" data-original="#ffffff"></path></g></svg>
