<svg xmlns="http://www.w3.org/2000/svg" version="1.1" xmlns:xlink="http://www.w3.org/1999/xlink" width="512" height="512" x="0" y="0" viewBox="0 0 512 512" style="enable-background:new 0 0 512 512" xml:space="preserve" class=""><g><path fill="#ffee6e" d="m71.619 199.571 181.975 41.581 118.404-32.873 82.117-93.071a15.032 15.032 0 0 0-5.395-2.036L292.821 87.05a15.047 15.047 0 0 0-9.215 1.382L79.225 190.622c-3.826 1.913-6.432 5.212-7.606 8.949z" opacity="1" data-original="#ffee6e"></path><path fill="#ffd15e" d="M292.821 87.05a14.97 14.97 0 0 0-1.363-.159v143.748l80.54-22.361 82.117-93.071a15.032 15.032 0 0 0-5.395-2.036zM183.614 366.587l211.94 9.228a15.027 15.027 0 0 0 3.894-.348L282.352 257.591l-28.758-26.472-181.975-31.548c-1.311 4.17-.833 8.887 1.815 12.859l98.313 147.47a15.048 15.048 0 0 0 11.867 6.687z" opacity="1" data-original="#ffd15e" class=""></path><path fill="#fea72b" d="m291.458 371.282 104.096 4.532a15.027 15.027 0 0 0 3.894-.348l-107.99-116.875z" opacity="1" data-original="#fea72b"></path><path fill="#fea72b" d="M458.691 119.572a15.024 15.024 0 0 0-4.576-4.364l-82.117 83.038-118.404 32.873 145.854 144.348a15.022 15.022 0 0 0 4.38-1.709l100.743-59.144a15.048 15.048 0 0 0 7.43-12.978v-98.771c0-3.009-.902-5.95-2.59-8.441z" opacity="1" data-original="#fea72b"></path><path fill="#ffd15e" d="M75.255 512c-3.892 0-7.73-1.514-10.611-4.394l-60.25-60.25c-5.858-5.858-5.858-15.355 0-21.213l60.25-60.25a14.999 14.999 0 0 1 17.314-2.81l60.25 30.125a15 15 0 0 1 8.292 13.417v60.25c0 5.682-3.21 10.875-8.292 13.417l-60.25 30.125A14.979 14.979 0 0 1 75.255 512zM257 452c7.846 0 15.363-6.899 15-15-.364-8.127-6.591-15-15-15-7.846 0-15.363 6.899-15 15 .364 8.127 6.591 15 15 15z" opacity="1" data-original="#ffd15e" class=""></path><path fill="#fea72b" d="M377.5 482c7.846 0 15.363-6.899 15-15-.364-8.127-6.591-15-15-15-7.846 0-15.363 6.899-15 15 .364 8.127 6.591 15 15 15z" opacity="1" data-original="#fea72b"></path><path fill="#ffee6e" d="M105.377 120.375c-3.19 0-6.357-1.016-9.002-3l-60.25-45.188a15 15 0 0 1 .106-24.079L97.607 2.921A14.995 14.995 0 0 1 106.5 0h60.25a15 15 0 0 1 12.77 7.131l29 47.063a15 15 0 0 1-6.287 21.396l-90.375 43.313a15.006 15.006 0 0 1-6.481 1.472z" opacity="1" data-original="#ffee6e"></path><path fill="#fea72b" d="M466.875 59.5c7.846 0 15.363-6.899 15-15-.364-8.127-6.591-15-15-15-7.846 0-15.363 6.899-15 15 .364 8.127 6.591 15 15 15z" opacity="1" data-original="#fea72b"></path><path fill="#ff7b4a" d="M458.691 119.572a15.024 15.024 0 0 0-4.576-4.364l-82.117 83.038-80.54 22.361v47.985l107.99 106.875a15.022 15.022 0 0 0 4.38-1.709l100.743-59.144a15.048 15.048 0 0 0 7.43-12.978v-98.771c0-3.009-.902-5.95-2.59-8.441z" opacity="1" data-original="#ff7b4a"></path><path fill="#ffd15e" d="M179.52 7.131A15 15 0 0 0 166.75 0h-46.313v114.79l81.795-39.201a15.002 15.002 0 0 0 6.287-21.396z" opacity="1" data-original="#ffd15e" class=""></path><path fill="#fea72b" d="m142.208 393.208-60.25-30.125a14.966 14.966 0 0 0-6.708-1.58V512h.004c2.277 0 4.572-.519 6.704-1.584l60.25-30.125a15 15 0 0 0 8.292-13.417v-60.25c0-5.681-3.21-10.874-8.292-13.416z" opacity="1" data-original="#fea72b"></path></g></svg>
