<svg xmlns="http://www.w3.org/2000/svg" version="1.1" xmlns:xlink="http://www.w3.org/1999/xlink" width="512" height="512" x="0" y="0" viewBox="0 0 36 36" style="enable-background:new 0 0 512 512" xml:space="preserve" class="hovered-paths"><g><path fill="#f9a83d" d="M33.6 17.5c.5.3.5.7 0 1L14.3 29.8c-.5.3-1.2.3-1.7 0l-10.2-6c-.5-.3-.5-.7 0-1l19.4-11.3c.5-.3 1.2-.3 1.7 0z" opacity="1" data-original="#f9a83d"></path><path fill="#ffb961" d="m14 22.7-.4 7.3c-.4 0-.7 0-1-.2l-10.2-6c-.3-.1-.4-.3-.4-.5 0-.1.1-.2.3-.3l5.8-3.4z" opacity="1" data-original="#ffb961"></path><path fill="#f9a83d" d="M34 17.9 32.5 12 14 22.7l-.4 7.2z" opacity="1" data-original="#f9a83d"></path><path fill="#ffb961" d="m14 22.7-.4 7.2L2 23.3v-.1l1.5-6.3 4.7 2.6z" opacity="1" data-original="#ffb961"></path><path fill="#ffd475" d="M32.2 11.6c.4.2.4.6 0 .9L14.6 22.7c-.4.2-1.1.2-1.5 0l-9.3-5.4c-.4-.2-.4-.6 0-.9L21.4 6.2c.4-.2 1.1-.2 1.5 0z" opacity="1" data-original="#ffd475" class="hovered-path"></path><path fill="#ffb96150" d="m7.6 18.2 5.8 2.8c.3.1.6.1.9 0l12-6.2c.2-.1.1-.3-.1-.3-6.9 1.7-13.3 3-18.5 3.3-.2 0-.3.3-.1.4z" opacity="1" data-original="#ffb96150"></path><path fill="#fff" d="M27.7 9.6c.1.1-3.2-.2-3.4-.2-4.4-.3-9.2 2.5-13.9 3.7l11.5-5.9c.2-.1.4-.1.6 0 .7.3 4.3 2 5.2 2.4z" opacity=".4"></path><path fill="#fff" d="M30 13.8c-4.8 3.2-10.1 6.3-14.7 8.8-.5.3-.9.8-1 1.4l-.6 4-.1-3.9c0-.7-.4-1.3-1-1.6-1.1-.6-2.1-1.2-3.2-1.8-1.5-.8-2.9-1.7-4.4-2.6 1.6.7 3.1 1.3 4.6 2.1 1.1.5 2.3 1.1 3.4 1.6.6.3 1.3.3 1.9-.1 6.1-3.5 11.8-6.4 15.1-7.9z" opacity=".5"></path><path fill="#fff" d="m33 16.1-.7-2.6c0-.2-.2-.2-.3-.1l-2.2 1.5c-.1.1 0 .2.1.2 1.3-.2 2.3.2 3 1.2.1-.1.2-.1.1-.2zM6.5 19.6l-2.3-1.4c-.1-.1-.3 0-.3.1L3.2 21c0 .1.1.2.2.1.8-1 1.8-1.5 3-1.3.1 0 .1-.1.1-.2z" opacity=".4"></path><path fill="#fff" d="M15 23.2c-.2 0-.3.2-.2.4 1.5 1.8 1.5 2-.2.2-.1-.1-.4-.1-.4.1-.2 2-.4 3.8-.5 3.8s-.1-1.8-.1-3.8c0-.2-.2-.3-.4-.2-1.9 1.5-1.9 1.5-.2-.2.1-.1.1-.4-.1-.4-2-.2-3.8-.4-3.8-.5s1.8-.1 3.8-.1c.2 0 .3-.2.2-.4-.6-.8-1.2-1.4-1.1-1.5.1 0 .6.5 1.3 1.2.1.1.4.1.4-.1.2-2 .4-3.8.5-3.8s.1 1.8.1 3.8c0 .2.2.3.4.2 1.9-1.6 1.9-1.4.2.2-.1.1-.1.4.1.4 5.1.5 5.1.7 0 .7z"></path><path fill="#fff" d="M21.4 24.9 15 28.6c-.3.2-.6-.1-.6-.4l.3-2.9c0-.1.2-.2.2-.1.8 1 4 .3 6.4-.6.1.1.2.2.1.3zM9.2 27l3.4 1.9c.2.1.3 0 .3-.3v-3.2c0-.1-.2-.2-.2-.1-.6 1.1-1.6 1.7-3.4 1.4-.1.1-.2.2-.1.3z" opacity=".4"></path></g></svg>
