<svg xmlns="http://www.w3.org/2000/svg" version="1.1" xmlns:xlink="http://www.w3.org/1999/xlink" width="512" height="512" x="0" y="0" viewBox="0 0 64 64" style="enable-background:new 0 0 512 512" xml:space="preserve" class=""><g><path fill="#be7800" d="M58 34h-4v6h6v-4a2 2 0 0 0-2-2z" opacity="1" data-original="#be7800"></path><path fill="#fa6450" d="M52 20H40.376C38.298 23.581 34.43 26 30 26s-8.297-2.419-10.376-6H8a4 4 0 0 0-4 4v32a4 4 0 0 0 4 4h44a4 4 0 0 0 4-4V24a4 4 0 0 0-4-4z" opacity="1" data-original="#fa6450" class=""></path><path fill="#fab400" d="M30 24c-5.523 0-10-4.477-10-10S24.477 4 30 4s10 4.477 10 10-4.477 10-10 10z" opacity="1" data-original="#fab400"></path><path fill="#dc4632" d="M8 56V24a4 4 0 0 1 4-4H8a4 4 0 0 0-4 4v32a4 4 0 0 0 4 4h4a4 4 0 0 1-4-4z" opacity="1" data-original="#dc4632"></path><path fill="#fab400" d="M58 46h-5.828c-2.089 0-3.955-1.527-4.153-3.607A4 4 0 0 1 52 38h6a2 2 0 0 0 2-2v8a2 2 0 0 1-2 2z" opacity="1" data-original="#fab400"></path><path fill="#505050" d="M52 44a2 2 0 1 1-.001-3.999A2 2 0 0 1 52 44z" opacity="1" data-original="#505050"></path><circle cx="30" cy="14" r="6" fill="#be7800" opacity="1" data-original="#be7800"></circle><path fill="#dc9600" d="M22 14c0-5.185 3.947-9.448 9-9.95-.329-.032-.662-.05-1-.05-5.523 0-10 4.477-10 10s4.477 10 10 10c.338 0 .671-.018 1-.051-5.053-.501-9-4.764-9-9.949z" opacity="1" data-original="#dc9600"></path><path fill="#fab400" d="M32 11.857v-1.428h-1.333V9h-1.334v1.429H28v4.285h2.667v1.429H28v1.428h1.333V19h1.334v-1.429H32v-4.285h-2.667v-1.429z" opacity="1" data-original="#fab400"></path><path fill="#3cc8b4" d="m48 4-6 6h4v8h4v-8h4z" opacity="1" data-original="#3cc8b4"></path><path fill="#1eaa96" d="m48 4-6 6h2l5-5zM46 10h2v8h-2z" opacity="1" data-original="#1eaa96"></path><path fill="#3cc8b4" d="m12 4-6 6h4v8h4v-8h4z" opacity="1" data-original="#3cc8b4"></path><path fill="#1eaa96" d="m12 4-6 6h2l5-5zM10 10h2v8h-2z" opacity="1" data-original="#1eaa96"></path></g></svg>
