<svg xmlns="http://www.w3.org/2000/svg" version="1.1" xmlns:xlink="http://www.w3.org/1999/xlink" width="512" height="512" x="0" y="0" viewBox="0 0 64 64" style="enable-background:new 0 0 512 512" xml:space="preserve" class=""><g><path fill="#c9c9c9" d="m16 36-8.128 1.876A6.284 6.284 0 0 0 3 44L2 60h38l-1-16a6.284 6.284 0 0 0-4.872-6.124L26 36z" opacity="1" data-original="#c9c9c9"></path><path fill="#dddddd" d="M34.128 37.876 26 36h-6l-8.128 1.876A6.284 6.284 0 0 0 7 44L6 60h34l-1-16a6.284 6.284 0 0 0-4.872-6.124z" opacity="1" data-original="#dddddd" class=""></path><path fill="#ed8585" d="m24 60-2-16h-2l-2 16z" opacity="1" data-original="#ed8585"></path><path fill="#b5b5b5" d="M8 48h2v12H8zM32 48h2v12h-2z" opacity="1" data-original="#b5b5b5"></path><path fill="#3f4042" d="M9 20v-9a7 7 0 0 1 7-7h9a4 4 0 0 1 4 4h.001A3.998 3.998 0 0 1 33 11.999V21" opacity="1" data-original="#3f4042"></path><path fill="#5a5b5d" d="M33 11.999A3.998 3.998 0 0 0 29.001 8H29a4 4 0 0 0-4-4h-9a6.963 6.963 0 0 0-3.846 1.154A6.963 6.963 0 0 0 11 9c0 5.523 4.477 10 10 10h12z" opacity="1" data-original="#5a5b5d"></path><g fill="#edb9ae"><path d="M30 17v8a9 9 0 0 1-9 9 9 9 0 0 1-9-9v-8h7.394A6.738 6.738 0 0 0 25 14zM12 18h-1a3 3 0 1 0 0 6l1-.001" fill="#edb9ae" opacity="1" data-original="#edb9ae"></path><path d="M30 18h1a3 3 0 1 1 0 6h-3" fill="#edb9ae" opacity="1" data-original="#edb9ae"></path></g><path fill="#c43535" d="m25 40-3 4h-2l-3-4 4-2z" opacity="1" data-original="#c43535"></path><circle cx="49" cy="34" r="9" fill="#e7b541" opacity="1" data-original="#e7b541"></circle><path fill="#f9cb6e" d="M49 25a8.955 8.955 0 0 0-5.84 2.16A8.955 8.955 0 0 0 41 33a9 9 0 0 0 9 9 8.957 8.957 0 0 0 5.84-2.16A8.955 8.955 0 0 0 58 34a9 9 0 0 0-9-9z" opacity="1" data-original="#f9cb6e"></path><circle cx="49" cy="34" r="6" fill="#ffe1b6" opacity="1" data-original="#ffe1b6"></circle><path fill="#f9cb6e" d="M49 33c-.551 0-1-.449-1-1s.449-1 1-1 1 .449 1 1h2a2.996 2.996 0 0 0-2-2.816V28h-2v1.184A2.996 2.996 0 0 0 46 32c0 1.654 1.346 3 3 3 .551 0 1 .449 1 1s-.449 1-1 1-1-.449-1-1h-2c0 1.302.839 2.402 2 2.816V40h2v-1.184A2.996 2.996 0 0 0 52 36c0-1.654-1.346-3-3-3z" opacity="1" data-original="#f9cb6e"></path><path fill="#4084c1" d="M30 42h6v14h-6z" opacity="1" data-original="#4084c1"></path><path fill="#edb9ae" d="M36 54c1.323 0 2.634.238 3.873.702l4.952 1.857a6.93 6.93 0 0 0 5.711-.386l10.313-5.553A2.189 2.189 0 0 0 62 48.693a1.693 1.693 0 0 0-2.287-1.585l-5.84 2.19A11.04 11.04 0 0 1 50 50a2 2 0 1 0 0-4h-4l-.358-.143A25.952 25.952 0 0 0 36 44" opacity="1" data-original="#edb9ae"></path><path fill="#59a2d8" d="M33 42v8a3 3 0 0 0 3 3V42z" opacity="1" data-original="#59a2d8"></path><path fill="#fee2d6" d="M44.825 54.559a6.93 6.93 0 0 0 5.711-.386l10.313-5.553c.374-.201.667-.506.867-.864a1.69 1.69 0 0 0-2.003-.648l-5.84 2.19A11.04 11.04 0 0 1 50 50a2 2 0 1 0 0-4h-4l-.358-.143A25.952 25.952 0 0 0 36 44v8c1.323 0 2.634.238 3.873.702z" opacity="1" data-original="#fee2d6"></path><path fill="#edb9ae" d="M44 49h6v2h-6z" opacity="1" data-original="#edb9ae"></path><path fill="#b5b5b5" d="m21 38 5 4 4.426-4.979L26 36H16l-4.426 1.021L16 42z" opacity="1" data-original="#b5b5b5"></path><path fill="#edb9ae" d="M16 32v4l5 2 5-2v-4" opacity="1" data-original="#edb9ae"></path><path fill="#fee2d6" d="M22 33.941c4.499-.498 8-4.309 8-8.941v-8l-5-3a6.738 6.738 0 0 1-5.606 3H14v8c0 4.632 3.501 8.443 8 8.941zM26 33.482a8.952 8.952 0 0 1-8 .995V36l4 1.6 4-1.6z" opacity="1" data-original="#fee2d6"></path></g></svg>
