<svg xmlns="http://www.w3.org/2000/svg" version="1.1" xmlns:xlink="http://www.w3.org/1999/xlink" width="512" height="512" x="0" y="0" viewBox="0 0 512 512" style="enable-background:new 0 0 512 512" xml:space="preserve" class=""><g><linearGradient id="m" x1="-53.496" x2="431.582" y1="55.86" y2="413.781" gradientUnits="userSpaceOnUse"><stop offset="0" stop-color="#b3dafe"></stop><stop offset="1" stop-color="#01d0fb"></stop></linearGradient><linearGradient id="a"><stop offset="0" stop-color="#08a9f1" stop-opacity="0"></stop><stop offset="1" stop-color="#08a9f1"></stop></linearGradient><linearGradient xlink:href="#a" id="n" x1="307.841" x2="339.825" y1="221.142" y2="221.142" gradientUnits="userSpaceOnUse"></linearGradient><linearGradient xlink:href="#a" id="o" x1="259.071" x2="216.685" y1="71.564" y2="64.892" gradientUnits="userSpaceOnUse"></linearGradient><linearGradient xlink:href="#a" id="p" x1="295.087" x2="207.961" y1="239.8" y2="181.52" gradientUnits="userSpaceOnUse"></linearGradient><linearGradient xlink:href="#a" id="q" x1="170.505" x2="170.505" y1="393.97" y2="425.466" gradientUnits="userSpaceOnUse"></linearGradient><linearGradient xlink:href="#a" id="r" x1="286.657" x2="323.013" y1="260.368" y2="219.734" gradientUnits="userSpaceOnUse"></linearGradient><linearGradient id="b"><stop offset="0" stop-color="#f5fbff"></stop><stop offset="1" stop-color="#dbd5ef"></stop></linearGradient><linearGradient xlink:href="#b" id="s" x1="83.839" x2="323.74" y1="133.197" y2="373.097" gradientUnits="userSpaceOnUse"></linearGradient><linearGradient id="c"><stop offset="0" stop-color="#dbd5ef" stop-opacity="0"></stop><stop offset=".285" stop-color="#d9d2ee" stop-opacity=".285"></stop><stop offset=".474" stop-color="#d4c9e9" stop-opacity=".474"></stop><stop offset=".635" stop-color="#cbbae2" stop-opacity=".635"></stop><stop offset=".779" stop-color="#bfa5d7" stop-opacity=".78"></stop><stop offset=".913" stop-color="#af8aca" stop-opacity=".913"></stop><stop offset="1" stop-color="#a274bf"></stop></linearGradient><linearGradient xlink:href="#c" id="t" x1="245.746" x2="204.043" y1="113.081" y2="38.942" gradientUnits="userSpaceOnUse"></linearGradient><linearGradient xlink:href="#c" id="u" x1="284.293" x2="310.889" y1="219.862" y2="219.862" gradientUnits="userSpaceOnUse"></linearGradient><linearGradient xlink:href="#c" id="v" x1="170.505" x2="170.505" y1="367.929" y2="400.943" gradientUnits="userSpaceOnUse"></linearGradient><linearGradient xlink:href="#c" id="w" x1="170.505" x2="170.505" y1="73.455" y2="54.534" gradientUnits="userSpaceOnUse"></linearGradient><linearGradient xlink:href="#c" id="x" x1="150.727" x2="129.532" y1="57.574" y2="57.574" gradientUnits="userSpaceOnUse"></linearGradient><linearGradient id="d"><stop offset="0" stop-color="#5a5a5a"></stop><stop offset="1" stop-color="#444"></stop></linearGradient><linearGradient xlink:href="#d" id="y" x1="170.505" x2="170.505" y1="75.614" y2="86.21" gradientUnits="userSpaceOnUse"></linearGradient><linearGradient id="e"><stop offset="0" stop-color="#433f43" stop-opacity="0"></stop><stop offset=".344" stop-color="#403c40" stop-opacity=".344"></stop><stop offset=".622" stop-color="#363336" stop-opacity=".622"></stop><stop offset=".876" stop-color="#252425" stop-opacity=".876"></stop><stop offset="1" stop-color="#1a1a1a"></stop></linearGradient><linearGradient xlink:href="#e" id="z" x1="170.505" x2="170.505" y1="76.791" y2="85.033" gradientUnits="userSpaceOnUse"></linearGradient><linearGradient xlink:href="#e" id="A" x1="170.505" x2="170.505" y1="67.176" y2="53.44" gradientUnits="userSpaceOnUse"></linearGradient><linearGradient xlink:href="#e" id="B" x1="207.077" x2="221.205" y1="62.975" y2="68.665" gradientUnits="userSpaceOnUse"></linearGradient><linearGradient id="f"><stop offset="0" stop-color="#fef0ae"></stop><stop offset="1" stop-color="#fac600"></stop></linearGradient><linearGradient xlink:href="#f" id="C" x1="170.505" x2="170.505" y1="13.736" y2="54.433" gradientUnits="userSpaceOnUse"></linearGradient><linearGradient xlink:href="#f" id="D" x1="170.505" x2="170.505" y1="48.665" y2="8.54" gradientUnits="userSpaceOnUse"></linearGradient><linearGradient id="g"><stop offset="0" stop-color="#fe9738" stop-opacity="0"></stop><stop offset="1" stop-color="#fe9738"></stop></linearGradient><linearGradient xlink:href="#g" id="E" x1="170.505" x2="170.505" y1="43.563" y2="56.331" gradientUnits="userSpaceOnUse"></linearGradient><linearGradient xlink:href="#g" id="F" x1="205.846" x2="232.533" y1="29.644" y2="32.784" gradientUnits="userSpaceOnUse"></linearGradient><linearGradient xlink:href="#c" id="G" x1="204.154" x2="205.331" y1="-11.82" y2="161.843" gradientUnits="userSpaceOnUse"></linearGradient><linearGradient xlink:href="#c" id="H" x1="46.712" x2="108.084" y1="90.418" y2="151.79" gradientUnits="userSpaceOnUse"></linearGradient><linearGradient xlink:href="#c" id="I" x1="82.033" x2="82.033" y1="126.033" y2="104.808" gradientUnits="userSpaceOnUse"></linearGradient><linearGradient xlink:href="#c" id="J" x1="94.102" x2="58.192" y1="125.739" y2="125.739" gradientUnits="userSpaceOnUse"></linearGradient><linearGradient id="h"><stop offset="0" stop-color="#bbec6c"></stop><stop offset=".197" stop-color="#b5e665"></stop><stop offset=".48" stop-color="#a5d552"></stop><stop offset=".812" stop-color="#8abb33"></stop><stop offset="1" stop-color="#78a91f"></stop></linearGradient><linearGradient xlink:href="#h" id="K" x1="93.547" x2="98.969" y1="105.978" y2="134.22" gradientUnits="userSpaceOnUse"></linearGradient><linearGradient id="i"><stop offset="0" stop-color="#334c0f" stop-opacity="0"></stop><stop offset=".32" stop-color="#344c12" stop-opacity=".32"></stop><stop offset=".565" stop-color="#374a1c" stop-opacity=".565"></stop><stop offset=".786" stop-color="#3c482c" stop-opacity=".786"></stop><stop offset=".991" stop-color="#444443" stop-opacity=".991"></stop><stop offset="1" stop-color="#444"></stop></linearGradient><linearGradient xlink:href="#i" id="L" x1="100.216" x2="105.461" y1="118.19" y2="123.435" gradientUnits="userSpaceOnUse"></linearGradient><linearGradient xlink:href="#c" id="M" x1="204.154" x2="205.331" y1="41.751" y2="215.413" gradientUnits="userSpaceOnUse"></linearGradient><linearGradient xlink:href="#c" id="N" x1="46.712" x2="108.084" y1="143.988" y2="205.36" gradientUnits="userSpaceOnUse"></linearGradient><linearGradient xlink:href="#c" id="O" x1="82.033" x2="82.033" y1="179.604" y2="158.378" gradientUnits="userSpaceOnUse"></linearGradient><linearGradient xlink:href="#c" id="P" x1="94.102" x2="58.192" y1="179.309" y2="179.309" gradientUnits="userSpaceOnUse"></linearGradient><linearGradient xlink:href="#h" id="Q" x1="93.547" x2="98.969" y1="159.548" y2="187.79" gradientUnits="userSpaceOnUse"></linearGradient><linearGradient xlink:href="#i" id="R" x1="100.216" x2="105.461" y1="171.76" y2="177.006" gradientUnits="userSpaceOnUse"></linearGradient><linearGradient xlink:href="#c" id="S" x1="204.154" x2="205.331" y1="95.321" y2="268.984" gradientUnits="userSpaceOnUse"></linearGradient><linearGradient xlink:href="#c" id="T" x1="46.712" x2="108.084" y1="197.559" y2="258.931" gradientUnits="userSpaceOnUse"></linearGradient><linearGradient xlink:href="#c" id="U" x1="82.033" x2="82.033" y1="233.174" y2="211.949" gradientUnits="userSpaceOnUse"></linearGradient><linearGradient xlink:href="#c" id="V" x1="94.102" x2="58.192" y1="232.88" y2="232.88" gradientUnits="userSpaceOnUse"></linearGradient><linearGradient xlink:href="#h" id="W" x1="93.547" x2="98.969" y1="213.119" y2="241.361" gradientUnits="userSpaceOnUse"></linearGradient><linearGradient xlink:href="#i" id="X" x1="100.216" x2="105.461" y1="225.331" y2="230.576" gradientUnits="userSpaceOnUse"></linearGradient><linearGradient xlink:href="#c" id="Y" x1="256.783" x2="220.426" y1="256.536" y2="223.031" gradientUnits="userSpaceOnUse"></linearGradient><linearGradient xlink:href="#c" id="Z" x1="282.02" x2="326.931" y1="261.51" y2="215.173" gradientUnits="userSpaceOnUse"></linearGradient><linearGradient id="aa" x1="296.108" x2="351.712" y1="146.8" y2="267.988" gradientUnits="userSpaceOnUse"><stop offset="0" stop-color="#fb2b3a"></stop><stop offset="1" stop-color="#c41926"></stop></linearGradient><linearGradient id="j"><stop offset="0" stop-color="#a72b2b" stop-opacity="0"></stop><stop offset=".258" stop-color="#a32c2b" stop-opacity=".258"></stop><stop offset=".524" stop-color="#972d2a" stop-opacity=".525"></stop><stop offset=".795" stop-color="#823028" stop-opacity=".795"></stop><stop offset="1" stop-color="#6d3326"></stop></linearGradient><linearGradient xlink:href="#j" id="ab" x1="483.789" x2="471.908" y1="151.569" y2="163.45" gradientUnits="userSpaceOnUse"></linearGradient><linearGradient xlink:href="#j" id="ac" x1="436.42" x2="424.539" y1="104.199" y2="116.08" gradientUnits="userSpaceOnUse"></linearGradient><linearGradient id="k"><stop offset="0" stop-color="#fea613"></stop><stop offset="1" stop-color="#c4573a"></stop></linearGradient><linearGradient xlink:href="#k" id="ad" x1="101.139" x2="350.3" y1="259.115" y2="458.848" gradientUnits="userSpaceOnUse"></linearGradient><linearGradient id="l"><stop offset="0" stop-color="#c4573a" stop-opacity="0"></stop><stop offset=".235" stop-color="#be5539" stop-opacity=".235"></stop><stop offset=".539" stop-color="#ae4e35" stop-opacity=".539"></stop><stop offset=".879" stop-color="#934330" stop-opacity=".879"></stop><stop offset="1" stop-color="#883f2e"></stop></linearGradient><linearGradient xlink:href="#l" id="ae" x1="324.533" x2="372.995" y1="369.685" y2="369.685" gradientUnits="userSpaceOnUse"></linearGradient><linearGradient xlink:href="#l" id="af" x1="143.87" x2="246.006" y1="343.528" y2="469.874" gradientUnits="userSpaceOnUse"></linearGradient><linearGradient xlink:href="#l" id="ag" x1="151.54" x2="145.487" y1="431.956" y2="463.227" gradientUnits="userSpaceOnUse"></linearGradient><linearGradient xlink:href="#l" id="ah" x1="-3182.723" x2="-3188.776" y1="431.956" y2="463.227" gradientTransform="matrix(-1 0 0 1 -2882.03 0)" gradientUnits="userSpaceOnUse"></linearGradient><linearGradient xlink:href="#k" id="ai" x1="225.165" x2="228.948" y1="261.86" y2="312.298" gradientUnits="userSpaceOnUse"></linearGradient><linearGradient xlink:href="#l" id="aj" x1="182.686" x2="185.46" y1="264.467" y2="276.068" gradientUnits="userSpaceOnUse"></linearGradient><linearGradient xlink:href="#f" id="ak" x1="201.06" x2="220.731" y1="252.923" y2="300.838" gradientUnits="userSpaceOnUse"></linearGradient><linearGradient xlink:href="#g" id="al" x1="168.549" x2="168.549" y1="282.098" y2="293.14" gradientUnits="userSpaceOnUse"></linearGradient><linearGradient xlink:href="#g" id="am" x1="153.297" x2="160.93" y1="312.724" y2="312.724" gradientUnits="userSpaceOnUse"></linearGradient><linearGradient xlink:href="#g" id="an" x1="146.21" x2="144.697" y1="329.075" y2="337.649" gradientUnits="userSpaceOnUse"></linearGradient><linearGradient xlink:href="#b" id="ao" x1="109.883" x2="144.984" y1="385.496" y2="445.946" gradientUnits="userSpaceOnUse"></linearGradient><linearGradient xlink:href="#c" id="ap" x1="127.598" x2="124.917" y1="422.807" y2="434.508" gradientUnits="userSpaceOnUse"></linearGradient><linearGradient xlink:href="#c" id="aq" x1="150.385" x2="159.522" y1="419.97" y2="419.97" gradientUnits="userSpaceOnUse"></linearGradient><linearGradient xlink:href="#d" id="ar" x1="260.927" x2="279.421" y1="407.397" y2="444.721" gradientUnits="userSpaceOnUse"></linearGradient><linearGradient xlink:href="#d" id="as" x1="247.452" x2="265.946" y1="414.074" y2="451.398" gradientUnits="userSpaceOnUse"></linearGradient><linearGradient xlink:href="#k" id="at" x1="244.081" x2="493.242" y1="292.82" y2="492.553" gradientUnits="userSpaceOnUse"></linearGradient><linearGradient xlink:href="#l" id="au" x1="467.475" x2="515.937" y1="403.391" y2="403.391" gradientUnits="userSpaceOnUse"></linearGradient><linearGradient xlink:href="#l" id="av" x1="286.812" x2="388.948" y1="377.233" y2="503.579" gradientUnits="userSpaceOnUse"></linearGradient><linearGradient xlink:href="#l" id="aw" x1="294.481" x2="288.429" y1="465.661" y2="496.933" gradientUnits="userSpaceOnUse"></linearGradient><linearGradient xlink:href="#l" id="ax" x1="-3325.665" x2="-3331.718" y1="465.661" y2="496.933" gradientTransform="matrix(-1 0 0 1 -2882.03 0)" gradientUnits="userSpaceOnUse"></linearGradient><linearGradient xlink:href="#k" id="ay" x1="368.107" x2="371.89" y1="295.565" y2="346.003" gradientUnits="userSpaceOnUse"></linearGradient><linearGradient xlink:href="#l" id="az" x1="325.627" x2="328.401" y1="298.173" y2="309.773" gradientUnits="userSpaceOnUse"></linearGradient><linearGradient xlink:href="#f" id="aA" x1="344.002" x2="363.673" y1="286.628" y2="334.544" gradientUnits="userSpaceOnUse"></linearGradient><linearGradient xlink:href="#g" id="aB" x1="311.49" x2="311.49" y1="315.803" y2="326.846" gradientUnits="userSpaceOnUse"></linearGradient><linearGradient xlink:href="#g" id="aC" x1="296.239" x2="303.872" y1="346.429" y2="346.429" gradientUnits="userSpaceOnUse"></linearGradient><linearGradient xlink:href="#g" id="aD" x1="289.152" x2="287.638" y1="362.78" y2="371.354" gradientUnits="userSpaceOnUse"></linearGradient><linearGradient xlink:href="#b" id="aE" x1="252.825" x2="287.926" y1="419.201" y2="479.651" gradientUnits="userSpaceOnUse"></linearGradient><linearGradient xlink:href="#c" id="aF" x1="270.54" x2="267.858" y1="456.513" y2="468.213" gradientUnits="userSpaceOnUse"></linearGradient><linearGradient xlink:href="#c" id="aG" x1="293.327" x2="302.463" y1="453.675" y2="453.675" gradientUnits="userSpaceOnUse"></linearGradient><linearGradient xlink:href="#d" id="aH" x1="403.869" x2="422.363" y1="441.102" y2="478.426" gradientUnits="userSpaceOnUse"></linearGradient><linearGradient xlink:href="#d" id="aI" x1="390.394" x2="408.887" y1="447.779" y2="485.103" gradientUnits="userSpaceOnUse"></linearGradient><path fill="url(#m)" d="M325.314 425.792H15.696C7.028 425.792 0 418.765 0 410.096V32.188c0-8.669 7.028-15.696 15.696-15.696h309.617c8.669 0 15.696 7.028 15.696 15.696v377.908c.001 8.669-7.027 15.696-15.695 15.696z" opacity="1" data-original="url(#m)" class=""></path><path fill="url(#n)" d="M325.314 16.491H172.443v409.301h152.871c8.669 0 15.696-7.028 15.696-15.696V32.188c0-8.669-7.028-15.697-15.696-15.697z" opacity="1" data-original="url(#n)"></path><path fill="url(#o)" d="M325.314 16.491H172.443v107.133H341.01V32.188c0-8.669-7.028-15.697-15.696-15.697z" opacity="1" data-original="url(#o)" class=""></path><path fill="url(#p)" d="M325.314 425.792c8.669 0 15.696-7.028 15.696-15.696V75.358l-33.366-33.366h-42.778v383.799h60.448z" opacity="1" data-original="url(#p)" class=""></path><path fill="url(#q)" d="M0 156.591v253.505c0 8.669 7.028 15.696 15.696 15.696h309.617c8.669 0 15.696-7.028 15.696-15.696V156.591z" opacity="1" data-original="url(#q)" class=""></path><path fill="url(#r)" d="M264.866 160.272v223.02l8.461 8.46 67.683-67.683V219.495l-67.683-67.683z" opacity="1" data-original="url(#r)"></path><path fill="url(#s)" d="M299.886 401.002H41.124c-6.246 0-11.309-5.063-11.309-11.309V50.031c0-6.246 5.063-11.309 11.309-11.309h258.762c6.246 0 11.309 5.063 11.309 11.309v339.662c0 6.246-5.063 11.309-11.309 11.309z" opacity="1" data-original="url(#s)" class=""></path><path fill="url(#t)" d="M299.886 38.723h-83.834v19.245c0 11.155-9.043 20.197-20.197 20.197h-70.098l-1.43 1.43 186.868 186.868V50.031c0-6.245-5.063-11.308-11.309-11.308z" opacity="1" data-original="url(#t)"></path><path fill="url(#u)" d="M299.886 38.723h-71.518v362.279h71.518c6.246 0 11.309-5.063 11.309-11.309V50.031c0-6.245-5.063-11.308-11.309-11.308z" opacity="1" data-original="url(#u)" class=""></path><path fill="url(#v)" d="M29.815 306.706v82.988c0 6.246 5.063 11.309 11.309 11.309h258.762c6.246 0 11.309-5.063 11.309-11.309v-82.988z" opacity="1" data-original="url(#v)" class=""></path><path fill="url(#w)" d="M124.958 36.984h91.094v41.181h-91.094z" opacity="1" data-original="url(#w)"></path><path fill="url(#x)" d="M124.958 36.984h91.094v41.181h-91.094z" opacity="1" data-original="url(#x)"></path><path fill="url(#y)" d="M199.449 86.614h-57.888c-13.424 0-24.345-10.921-24.345-24.344V30.959h106.577V62.27c0 13.423-10.92 24.344-24.344 24.344zm-69.846-43.268V62.27c0 6.593 5.364 11.957 11.958 11.957h57.888c6.593 0 11.958-5.364 11.958-11.957V43.346z" opacity="1" data-original="url(#y)"></path><path fill="url(#z)" d="M199.449 86.614h-57.888c-13.424 0-24.345-10.921-24.345-24.344V30.959h106.577V62.27c0 13.423-10.92 24.344-24.344 24.344zm-69.846-43.268V62.27c0 6.593 5.364 11.957 11.958 11.957h57.888c6.593 0 11.958-5.364 11.958-11.957V43.346z" opacity="1" data-original="url(#z)" class=""></path><path fill="url(#A)" d="M199.449 86.614h-57.888c-13.424 0-24.345-10.921-24.345-24.344V30.959h106.577V62.27c0 13.423-10.92 24.344-24.344 24.344zm-69.846-43.268V62.27c0 6.593 5.364 11.957 11.958 11.957h57.888c6.593 0 11.958-5.364 11.958-11.957V43.346z" opacity="1" data-original="url(#A)"></path><path fill="url(#B)" d="M169.565 43.346h41.842V62.27c0 6.593-5.364 11.957-11.958 11.957h-29.884v12.387h29.884c13.424 0 24.344-10.921 24.344-24.344V30.959h-54.229v12.387z" opacity="1" data-original="url(#B)"></path><path fill="url(#C)" d="M231.523 28.53c0 7.521-1.462 14.336-3.84 19.26-2.362 4.924-5.64 7.978-9.257 7.978h-95.842c-7.234 0-13.097-12.196-13.097-27.239 0-6.441 1.082-12.445 2.923-17.162 1.842-4.727 4.443-8.165 7.473-9.495l3.42-1.501a4.284 4.284 0 0 1 3.484-.005c28.828 12.643 58.607 12.643 87.435 0a4.292 4.292 0 0 1 3.484.005l3.42 1.501c6.062 2.65 10.397 13.777 10.397 26.658z" opacity="1" data-original="url(#C)"></path><path fill="url(#D)" d="M204.901 31.388c0 4.24-.824 8.081-2.165 10.857-1.331 2.776-3.179 4.497-5.218 4.497h-54.026c-4.078 0-7.383-6.875-7.383-15.354 0-3.631.61-7.015 1.648-9.674 1.038-2.664 2.504-4.603 4.213-5.352l1.928-.846a2.417 2.417 0 0 1 1.964-.003c16.25 7.127 33.036 7.127 49.287 0a2.417 2.417 0 0 1 1.964.003l1.928.846c3.416 1.493 5.86 7.765 5.86 15.026z" opacity="1" data-original="url(#D)"></path><path fill="url(#E)" d="M109.487 28.53c0 15.043 5.863 27.239 13.097 27.239h95.842c3.617 0 6.895-3.054 9.257-7.978 2.378-4.924 3.84-11.739 3.84-19.26 0-1.697-.077-3.362-.222-4.983h-121.59a55.935 55.935 0 0 0-.224 4.982z" opacity="1" data-original="url(#E)"></path><path fill="url(#F)" d="m221.126 1.873-3.42-1.501a4.282 4.282 0 0 0-3.483-.005c-16.031 7.031-32.356 10.145-48.648 9.357v46.045h52.851c3.617 0 6.895-3.054 9.257-7.978 2.378-4.924 3.84-11.739 3.84-19.26 0-12.882-4.335-24.009-10.397-26.658z" opacity="1" data-original="url(#F)"></path><path fill="url(#G)" d="M272.811 131.037H137.362a5.298 5.298 0 0 1 0-10.596h135.449a5.298 5.298 0 0 1 0 10.596z" opacity="1" data-original="url(#G)"></path><path fill="url(#H)" d="M95.868 144.871H68.199a5.298 5.298 0 0 1-5.298-5.298v-27.668a5.298 5.298 0 0 1 5.298-5.298h27.668a5.298 5.298 0 0 1 5.298 5.298v27.668a5.297 5.297 0 0 1-5.297 5.298z" opacity="1" data-original="url(#H)"></path><path fill="url(#I)" d="M95.868 144.871H68.199a5.298 5.298 0 0 1-5.298-5.298v-27.668a5.298 5.298 0 0 1 5.298-5.298h27.668a5.298 5.298 0 0 1 5.298 5.298v27.668a5.297 5.297 0 0 1-5.297 5.298z" opacity="1" data-original="url(#I)"></path><path fill="url(#J)" d="M95.868 144.871H68.199a5.298 5.298 0 0 1-5.298-5.298v-27.668a5.298 5.298 0 0 1 5.298-5.298h27.668a5.298 5.298 0 0 1 5.298 5.298v27.668a5.297 5.297 0 0 1-5.297 5.298z" opacity="1" data-original="url(#J)"></path><path fill="url(#K)" d="M86.06 138.929a9.159 9.159 0 0 1-6.518-2.701l-10.207-10.207a6.194 6.194 0 0 1 8.759-8.76l7.966 7.966 25.575-25.575a6.195 6.195 0 0 1 8.759 8.76l-27.816 27.816a9.155 9.155 0 0 1-6.518 2.701z" opacity="1" data-original="url(#K)"></path><path fill="url(#L)" d="M86.06 138.929a9.159 9.159 0 0 1-6.518-2.701l-10.207-10.207a6.194 6.194 0 0 1 8.759-8.76l7.966 7.966 25.575-25.575a6.195 6.195 0 0 1 8.759 8.76l-27.816 27.816a9.155 9.155 0 0 1-6.518 2.701z" opacity="1" data-original="url(#L)"></path><path fill="url(#M)" d="M272.811 184.608H137.362a5.298 5.298 0 0 1 0-10.596h135.449a5.298 5.298 0 0 1 0 10.596z" opacity="1" data-original="url(#M)"></path><path fill="url(#N)" d="M95.868 198.442H68.199a5.298 5.298 0 0 1-5.298-5.298v-27.668a5.298 5.298 0 0 1 5.298-5.298h27.668a5.298 5.298 0 0 1 5.298 5.298v27.668a5.297 5.297 0 0 1-5.297 5.298z" opacity="1" data-original="url(#N)"></path><path fill="url(#O)" d="M95.868 198.442H68.199a5.298 5.298 0 0 1-5.298-5.298v-27.668a5.298 5.298 0 0 1 5.298-5.298h27.668a5.298 5.298 0 0 1 5.298 5.298v27.668a5.297 5.297 0 0 1-5.297 5.298z" opacity="1" data-original="url(#O)"></path><path fill="url(#P)" d="M95.868 198.442H68.199a5.298 5.298 0 0 1-5.298-5.298v-27.668a5.298 5.298 0 0 1 5.298-5.298h27.668a5.298 5.298 0 0 1 5.298 5.298v27.668a5.297 5.297 0 0 1-5.297 5.298z" opacity="1" data-original="url(#P)"></path><path fill="url(#Q)" d="M86.06 192.5a9.159 9.159 0 0 1-6.518-2.701l-10.207-10.207a6.194 6.194 0 0 1 8.759-8.76l7.966 7.966 25.575-25.575a6.195 6.195 0 0 1 8.759 8.76L92.578 189.8a9.162 9.162 0 0 1-6.518 2.7z" opacity="1" data-original="url(#Q)"></path><path fill="url(#R)" d="M86.06 192.5a9.159 9.159 0 0 1-6.518-2.701l-10.207-10.207a6.194 6.194 0 0 1 8.759-8.76l7.966 7.966 25.575-25.575a6.195 6.195 0 0 1 8.759 8.76L92.578 189.8a9.162 9.162 0 0 1-6.518 2.7z" opacity="1" data-original="url(#R)"></path><path fill="url(#S)" d="M272.811 238.178H137.362a5.298 5.298 0 0 1 0-10.596h135.449a5.298 5.298 0 0 1 0 10.596z" opacity="1" data-original="url(#S)"></path><path fill="url(#T)" d="M95.868 252.012H68.199a5.298 5.298 0 0 1-5.298-5.298v-27.668a5.298 5.298 0 0 1 5.298-5.298h27.668a5.298 5.298 0 0 1 5.298 5.298v27.668a5.297 5.297 0 0 1-5.297 5.298z" opacity="1" data-original="url(#T)"></path><path fill="url(#U)" d="M95.868 252.012H68.199a5.298 5.298 0 0 1-5.298-5.298v-27.668a5.298 5.298 0 0 1 5.298-5.298h27.668a5.298 5.298 0 0 1 5.298 5.298v27.668a5.297 5.297 0 0 1-5.297 5.298z" opacity="1" data-original="url(#U)"></path><path fill="url(#V)" d="M95.868 252.012H68.199a5.298 5.298 0 0 1-5.298-5.298v-27.668a5.298 5.298 0 0 1 5.298-5.298h27.668a5.298 5.298 0 0 1 5.298 5.298v27.668a5.297 5.297 0 0 1-5.297 5.298z" opacity="1" data-original="url(#V)"></path><path fill="url(#W)" d="M86.06 246.07a9.159 9.159 0 0 1-6.518-2.701l-10.207-10.207a6.194 6.194 0 0 1 8.759-8.76l7.966 7.966 25.575-25.575a6.195 6.195 0 0 1 8.759 8.76L92.578 243.37a9.162 9.162 0 0 1-6.518 2.7z" opacity="1" data-original="url(#W)"></path><path fill="url(#X)" d="M86.06 246.07a9.159 9.159 0 0 1-6.518-2.701l-10.207-10.207a6.194 6.194 0 0 1 8.759-8.76l7.966 7.966 25.575-25.575a6.195 6.195 0 0 1 8.759 8.76L92.578 243.37a9.162 9.162 0 0 1-6.518 2.7z" opacity="1" data-original="url(#X)"></path><path fill="url(#Y)" d="m311.195 189.68-37.868-37.868-119.97 119.97 119.97 119.97 37.868-37.868z" opacity="1" data-original="url(#Y)"></path><path fill="url(#Z)" d="m311.195 189.68-37.868-37.868-119.97 119.97 119.97 119.97 37.868-37.868z" opacity="1" data-original="url(#Z)"></path><path fill="url(#aa)" d="m502.872 76.478-78.927 16.166c-5.93 1.215-8.128 8.537-3.848 12.817l20.442 20.443-76.007 76.008a8.85 8.85 0 0 1-12.516 0l-58.26-58.261c-11.064-11.064-29.071-11.065-40.138 0L120.842 276.429c-6.97 6.971-5.632 19.153 4.014 24.123.622.32 1.273.585 1.943.786 5.646 1.703 11.343.219 15.258-3.696L267.43 172.267a8.85 8.85 0 0 1 12.516 0l58.26 58.26c5.354 5.354 12.481 8.302 20.069 8.302 7.587 0 14.714-2.948 20.069-8.302l83.409-83.41 21.104 21.105c4.28 4.28 11.602 2.082 12.817-3.848l16.166-78.927c1.095-5.341-3.626-10.063-8.968-8.969z" opacity="1" data-original="url(#aa)" class=""></path><path fill="url(#ab)" d="m461.754 147.118 21.104 21.105c4.28 4.28 11.602 2.082 12.817-3.848l13.182-64.36z" opacity="1" data-original="url(#ab)"></path><path fill="url(#ac)" d="M423.946 92.644c-5.93 1.215-8.128 8.537-3.848 12.817l20.442 20.443 46.101-46.101z" opacity="1" data-original="url(#ac)"></path><path fill="url(#ad)" d="M369.058 284.011v150.505a13.168 13.168 0 0 1-10.146 12.813l-129.775 30.615a13.204 13.204 0 0 1-6.042 0L93.321 447.33a13.168 13.168 0 0 1-10.146-12.813V284.011c0-3.672 1.521-7.047 4.019-9.467h277.832v-.014a13.145 13.145 0 0 1 4.032 9.481z" opacity="1" data-original="url(#ad)"></path><path fill="url(#ae)" d="M365.025 274.545h-80.338V464.84l74.225-17.51a13.168 13.168 0 0 0 10.146-12.813V284.011c0-3.679-1.521-7.061-4.033-9.481z" opacity="1" data-original="url(#ae)"></path><path fill="url(#af)" d="M226.116 274.545v203.747c-1.012 0-2.024-.113-3.021-.347L93.321 447.33a13.168 13.168 0 0 1-10.146-12.813V284.011c0-3.672 1.521-7.047 4.019-9.467h138.922z" opacity="1" data-original="url(#af)" class=""></path><path fill="url(#ag)" d="M226.116 385.499v92.792c-1.012 0-2.024-.113-3.021-.347L93.321 447.33a13.168 13.168 0 0 1-10.146-12.813v-80.991l128.353 30.275a63.505 63.505 0 0 0 14.588 1.698z" opacity="1" data-original="url(#ag)" class=""></path><path fill="url(#ah)" d="M226.116 385.499v92.792c1.012 0 2.024-.113 3.021-.347l129.775-30.615a13.168 13.168 0 0 0 10.146-12.813v-80.991L240.705 383.8a63.46 63.46 0 0 1-14.589 1.699z" opacity="1" data-original="url(#ah)"></path><path fill="url(#ai)" d="M365.025 274.545 233.722 305.52a33.072 33.072 0 0 1-15.212 0L87.208 274.545a13.178 13.178 0 0 1 6.106-3.347l129.782-30.615a13.204 13.204 0 0 1 6.042 0l48.459 11.434v5.837h24.756l56.567 13.344a13.174 13.174 0 0 1 6.105 3.347z" opacity="1" data-original="url(#ai)"></path><path fill="url(#aj)" d="M277.596 252.017v5.837L147.022 288.66l-59.814-14.115a13.178 13.178 0 0 1 6.106-3.347l129.782-30.615a13.204 13.204 0 0 1 6.042 0z" opacity="1" data-original="url(#aj)" class=""></path><path fill="url(#ak)" d="m277.596 252.01-140.208 33.08a3.554 3.554 0 0 0-2.738 3.459l-.009 43.977c0 .958.659 1.791 1.592 2.011l20.632 4.863a2.066 2.066 0 0 0 2.54-2.01v-43.248a3.241 3.241 0 0 1 2.498-3.155l140.449-33.133z" opacity="1" data-original="url(#ak)"></path><path fill="url(#al)" d="m201.353 281.684-39.452 9.304a3.25 3.25 0 0 0-1.5.821l-24.657-5.816a3.574 3.574 0 0 1 1.641-.906l39.197-9.247z" opacity="1" data-original="url(#al)" class=""></path><path fill="url(#am)" d="m135.744 285.992 24.65 5.816a3.242 3.242 0 0 0-.991 2.335v43.244a2.06 2.06 0 0 1-2.54 2.009l-20.631-4.861a2.065 2.065 0 0 1-1.592-2.009l.007-43.98c0-.997.418-1.91 1.097-2.554z" opacity="1" data-original="url(#am)" class=""></path><path fill="url(#an)" d="m134.644 311.352-.003 21.175c0 .955.658 1.79 1.592 2.009l20.631 4.861a2.06 2.06 0 0 0 2.54-2.009v-26.036z" opacity="1" data-original="url(#an)" class=""></path><path fill="url(#ao)" d="m98.828 428.458 56.886 13.42a3.001 3.001 0 0 0 3.69-2.921v-31.242a3.001 3.001 0 0 0-2.312-2.921l-56.886-13.418a3.001 3.001 0 0 0-3.69 2.921v31.24a3 3 0 0 0 2.312 2.921z" opacity="1" data-original="url(#ao)"></path><path fill="url(#ap)" d="M96.516 403.155v22.383c0 1.392.957 2.601 2.312 2.921l56.886 13.42a3 3 0 0 0 3.69-2.921V417.99z" opacity="1" data-original="url(#ap)"></path><path fill="url(#aq)" d="m157.092 404.795-28.888-6.814v37.408l27.51 6.49a3 3 0 0 0 3.69-2.921v-31.242a3.002 3.002 0 0 0-2.312-2.921z" opacity="1" data-original="url(#aq)"></path><path fill="url(#ar)" d="M248.708 434.285v.064a2.76 2.76 0 0 0 3.395 2.687l40.824-9.629a2.76 2.76 0 0 0 2.127-2.687v-.064a2.76 2.76 0 0 0-3.395-2.687l-40.824 9.629a2.762 2.762 0 0 0-2.127 2.687z" opacity="1" data-original="url(#ar)"></path><path fill="url(#as)" d="m252.102 447.834 20.349-4.8a2.76 2.76 0 0 0 2.127-2.687v-.064a2.76 2.76 0 0 0-3.395-2.687l-20.349 4.8a2.76 2.76 0 0 0-2.127 2.687v.064a2.761 2.761 0 0 0 3.395 2.687z" opacity="1" data-original="url(#as)"></path><path fill="url(#at)" d="M512 317.717v150.505a13.168 13.168 0 0 1-10.146 12.813L372.079 511.65a13.204 13.204 0 0 1-6.042 0l-129.775-30.615a13.168 13.168 0 0 1-10.146-12.813V317.717c0-3.672 1.521-7.047 4.019-9.467h277.832v-.014a13.138 13.138 0 0 1 4.033 9.481z" opacity="1" data-original="url(#at)"></path><path fill="url(#au)" d="M507.967 308.25h-80.338v190.296l74.225-17.51A13.168 13.168 0 0 0 512 468.223V317.717c0-3.679-1.521-7.061-4.033-9.481z" opacity="1" data-original="url(#au)"></path><path fill="url(#av)" d="M369.058 308.25v203.747c-1.012 0-2.023-.113-3.021-.347l-129.775-30.615a13.168 13.168 0 0 1-10.146-12.813V317.717c0-3.672 1.521-7.047 4.019-9.467z" opacity="1" data-original="url(#av)"></path><path fill="url(#aw)" d="M369.058 419.204v92.792c-1.012 0-2.023-.113-3.021-.347l-129.775-30.615a13.168 13.168 0 0 1-10.146-12.813V387.23l128.353 30.275a63.466 63.466 0 0 0 14.589 1.699z" opacity="1" data-original="url(#aw)"></path><path fill="url(#ax)" d="M369.058 419.204v92.792c1.012 0 2.024-.113 3.021-.347l129.775-30.615A13.168 13.168 0 0 0 512 468.221V387.23l-128.353 30.275a63.466 63.466 0 0 1-14.589 1.699z" opacity="1" data-original="url(#ax)"></path><path fill="url(#ay)" d="m507.967 308.25-131.303 30.976a33.1 33.1 0 0 1-15.212 0L230.149 308.25a13.178 13.178 0 0 1 6.106-3.347l129.782-30.615a13.204 13.204 0 0 1 6.042 0l48.459 11.434v5.837h24.756l56.567 13.344a13.178 13.178 0 0 1 6.106 3.347z" opacity="1" data-original="url(#ay)"></path><path fill="url(#az)" d="M420.538 285.722v5.837l-130.574 30.806-59.814-14.115a13.178 13.178 0 0 1 6.106-3.347l129.782-30.615a13.204 13.204 0 0 1 6.042 0z" opacity="1" data-original="url(#az)" class=""></path><path fill="url(#aA)" d="m420.538 285.715-140.208 33.08a3.554 3.554 0 0 0-2.738 3.459l-.009 43.977c0 .958.659 1.791 1.592 2.011l20.632 4.863a2.066 2.066 0 0 0 2.54-2.01v-43.248a3.241 3.241 0 0 1 2.498-3.155l140.449-33.133z" opacity="1" data-original="url(#aA)"></path><path fill="url(#aB)" d="m344.295 315.389-39.452 9.304a3.25 3.25 0 0 0-1.5.821l-24.657-5.816a3.574 3.574 0 0 1 1.641-.906l39.197-9.247z" opacity="1" data-original="url(#aB)"></path><path fill="url(#aC)" d="m278.686 319.698 24.65 5.816a3.242 3.242 0 0 0-.991 2.335v43.244a2.06 2.06 0 0 1-2.54 2.009l-20.631-4.861a2.065 2.065 0 0 1-1.592-2.009l.007-43.98c0-.998.418-1.911 1.097-2.554z" opacity="1" data-original="url(#aC)"></path><path fill="url(#aD)" d="m277.585 345.057-.003 21.175c0 .955.658 1.79 1.592 2.009l20.631 4.861a2.06 2.06 0 0 0 2.54-2.009v-26.036z" opacity="1" data-original="url(#aD)"></path><path fill="url(#aE)" d="m241.769 462.164 56.886 13.42a3.001 3.001 0 0 0 3.69-2.921v-31.242a3.001 3.001 0 0 0-2.312-2.921l-56.886-13.418a3.001 3.001 0 0 0-3.69 2.921v31.24c0 1.392.958 2.601 2.312 2.921z" opacity="1" data-original="url(#aE)"></path><path fill="url(#aF)" d="M239.457 436.86v22.383c0 1.392.957 2.601 2.312 2.921l56.886 13.42a3 3 0 0 0 3.69-2.921v-20.967z" opacity="1" data-original="url(#aF)"></path><path fill="url(#aG)" d="m300.033 438.5-28.888-6.814v37.408l27.51 6.49a3 3 0 0 0 3.69-2.921v-31.242a3.001 3.001 0 0 0-2.312-2.921z" opacity="1" data-original="url(#aG)"></path><path fill="url(#aH)" d="M391.65 467.991v.064a2.76 2.76 0 0 0 3.395 2.687l40.824-9.629a2.76 2.76 0 0 0 2.127-2.687v-.064a2.76 2.76 0 0 0-3.395-2.687l-40.824 9.629a2.759 2.759 0 0 0-2.127 2.687z" opacity="1" data-original="url(#aH)"></path><path fill="url(#aI)" d="m395.044 481.539 20.349-4.8a2.76 2.76 0 0 0 2.127-2.687v-.064a2.76 2.76 0 0 0-3.395-2.687l-20.349 4.8a2.76 2.76 0 0 0-2.127 2.687v.064a2.761 2.761 0 0 0 3.395 2.687z" opacity="1" data-original="url(#aI)"></path></g></svg>
