<svg xmlns="http://www.w3.org/2000/svg" version="1.1" xmlns:xlink="http://www.w3.org/1999/xlink" width="512"
     height="512" x="0" y="0" viewBox="0 0 64 64" style="enable-background:new 0 0 512 512" xml:space="preserve"
     class=""><g><g fill="#699daf"><path d="M11 25h10v20H11zM27 17h10v28H27zM43 9h10v36H43z" fill="#699daf" opacity="1" data-original="#699daf" class=""></path></g><path
        fill="#376d7c"
        d="M21 39v6H11V25h4v8c0 3.31 2.69 6 6 6zM37 39v6H27V17h4v16c0 3.31 2.69 6 6 6zM53 39v6H43V9h4v24c0 3.31 2.69 6 6 6z"
        opacity="1" data-original="#376d7c" class=""></path><path fill="#fbb03b"
                                                                  d="M29 59H7l2-14h18zM57 59H35l2-14h18zM43 45H21l2-14h18z"
                                                                  opacity="1" data-original="#fbb03b" class=""></path><path
        fill="#f7931e"
        d="M29 59H7l2-14h7.14l-.16 1.15c-.52 3.62 2.29 6.85 5.94 6.85h6.22zM57 59H35l.86-6L37 45h7.14l-.16 1.15c-.52 3.62 2.29 6.85 5.94 6.85h6.22zM43 45H21l.86-6L23 31h7.14l-.16 1.15c-.52 3.62 2.29 6.85 5.94 6.85h6.22z"
        opacity="1" data-original="#f7931e" class=""></path><g fill="#f9d53d"><path d="M14 12c-1.103 0-2-.897-2-2a1 1 0 1 0-2 0c0 1.103-.897 2-2 2a1 1 0 1 0 0 2c1.103 0 2 .897 2 2a1 1 0 1 0 2 0c0-1.103.897-2 2-2a1 1 0 1 0 0-2zm-3 1.382a4.05 4.05 0 0 0-.382-.382 4.05 4.05 0 0 0 .382-.382c.119.136.246.263.382.382a4.05 4.05 0 0 0-.382.382z" fill="#f9d53d" opacity="1" data-original="#f9d53d" class=""></path>
    <circle cx="11" cy="19" r="1" fill="#f9d53d" opacity="1" data-original="#f9d53d" class=""></circle>
    <path d="M26 8c-1.103 0-2-.897-2-2a1 1 0 1 0-2 0c0 1.103-.897 2-2 2a1 1 0 1 0 0 2c1.103 0 2 .897 2 2a1 1 0 1 0 2 0c0-1.103.897-2 2-2a1 1 0 1 0 0-2zm-3 1.382A4.05 4.05 0 0 0 22.618 9 4.05 4.05 0 0 0 23 8.618c.119.136.246.263.382.382a4.05 4.05 0 0 0-.382.382z"
          fill="#f9d53d" opacity="1" data-original="#f9d53d" class=""></path>
    <circle cx="23" cy="15" r="1" fill="#f9d53d" opacity="1" data-original="#f9d53d" class=""></circle></g></g></svg>
