<svg xmlns="http://www.w3.org/2000/svg" version="1.1" xmlns:xlink="http://www.w3.org/1999/xlink" width="512" height="512" x="0" y="0" viewBox="0 0 52 52" style="enable-background:new 0 0 512 512" xml:space="preserve" class=""><g><path fill="#bf7d5a" d="M43.6 26.1C40 22.8 40 18 42.9 14.3l-.7-1.2-35.3-.6c3.2 4.4 3 8.7 0 13-4.3 7.1-4.7 13.4 0 18.6 2.1 2.3 4.8 3.8 7.7 4.6 7.7 2.1 16.3 1.5 26.3-2.4 4-1.6 7-5.1 7.5-9.4.6-3.9-1-7.5-4.8-10.8z" opacity="1" data-original="#bf7d5a" class=""></path><path fill="#b27054" d="M48.4 37c-.6 4.3-3.5 7.8-7.5 9.4-9.9 3.9-18.6 4.5-26.3 2.4-2.2-.6-4.2-1.6-6-3 7.6 2 16.1 1.3 25.9-2.5 4-1.6 7-5.1 7.5-9.4.5-4-1.1-7.6-4.9-10.9-3-2.8-3.5-6.7-1.8-10l6.8.1.7 1.2c-2.9 3.7-2.8 8.5.7 11.8C47.4 29.4 49 33 48.4 37z" opacity="1" data-original="#b27054"></path><path fill="#bf7d5a" d="M41.7 23.7s-.1 0-.1.1c-.6.3-1.3.5-1.9.5-.2-.2-.3-.4-.5-.6-.1-.1-.1-.2-.2-.3 1-.1 1.8-.4 2.3-.6.1.3.2.6.4.9z" opacity="1" data-original="#bf7d5a" class=""></path><path fill="#dba660" d="M41.4 15.7c-1.8 1.1-4 1.1-6.1 1-.4 0-.7 0-1 .2-1.3.5-.9 1.7-1.1 2.7s-1 1.8-1.9 2.2c-.9.5-1.9.6-2.9.8-.9.1-1.9.3-2.8.2-3.1-.4-2.7-2.7-4-3.6-1.7-1.3-4.3.8-7.5.9-1.9.1-2.8-.9-2.9-1.8-.1-1.3 1.6-2.6.7-3.7-.2-.3-.6-.5-1-.6-2.9-.5-3.3-.5-3.7-.9-.9-.7-1.1-3.1.6-4.8.7-.8 2.3-1.9 3.5-1.7.2 0 .4.1.5.2.9.6 1.5.6 1.8.7.8.1 1.4-.6 1.2-1.3-.2-.6-.5-1.3-.3-1.9.4-1 1.6-1.4 2.6-1.5 2-.4 4-.6 6-.6C24.5 2 26 2 27 2.9c1.2 1 1.6 3.1 3.4 2.9.6-.1 1.2-.3 1.6-.7 1.3-1 2.7-2 4.3-2.3 3-.7 6.5 1.1 4.5 3.5-.7.7-1.8 1.4-1.8 2.3 0 .8.9 1.2 1.6 1.2 1.1.1 1.9-.1 2.5 1 .9 1.7-.1 3.9-1.7 4.9z" opacity="1" data-original="#dba660"></path><path fill="#bf7d5a" d="M40.6 10.9c-1.6-.1-2.7-1-2.7-2.4 0-2.4 3.7-3.2 1.8-4.3-.9-.5-2.1-.6-3.1-.3-3.3.7-3.8 3-6.3 3-1.7 0-2.5-1.3-3.2-2.2C26.3 3.6 26 3 23.8 3c-1.5 0-4 .2-6.4.6-1.3.2-1.7.6-1.8.8s.2.8.3 1.3c.2.7.1 1.3-.4 1.9-.7.9-1.8.9-1.7.9-1.2 0-2.6-.8-2.7-.9-.7-.1-2 .8-2.5 1.4-.8.8-1.1 2-.8 2.8.1.4-.1.3 3.3.9.7.1 1.2.5 1.6 1 1.4 1.8-.5 3.5-.4 4.3 0 .2.2.4.4.5 1.2.6 3.9-.3 5.2-.7 4.8-1.5 5.1 1.7 5.9 2.8.9 1.2 2.8.9 4.2.7.8-.1 1.8-.3 2.6-.7.7-.3 1.2-.9 1.3-1.4.2-.8-.2-2.7 1.8-3.5 1-.4 1.5-.2 3.1-.2 1.7 0 2.9-.3 3.9-.8 1.1-.7 1.9-2.2 1.3-3.4-.1-.4-.3-.3-1.4-.4z" opacity="1" data-original="#bf7d5a" class=""></path><path fill="#f9a83d" d="M28.1 7.7c-.4-.2-.9-.2-1.3 0l-.8.4-3.5-2c-.4-.2-1-.2-1.4 0-.1.1-.8.5-.7.4-5 2.9-5.1 2.9-5.3 3.2l-1.8 3.4c-.2.2-.1.5.3.7l1.2.7-1.6 1c-.2 1.5-1.6 2.5-.4 3.1 1.7.9 5.3-1 7.3-1.1l3.2 1.8c.5.9.6 2.2 3 2.2.8 0 2.8-.3 3.5-.5.6-.2 1.3-.4 1.8-.9.9-.9.4-1.8.9-3l2.8-1.6c.7 0 3.5.4 5.4-.7z" opacity="1" data-original="#f9a83d"></path><path fill="#f9a83d" d="M32.2 18c-.1.9.1 1.5-.7 2.2-.5.5-1.1.7-1.8.9l-10.2-6c-.3-.2-.4-.5-.3-.7.1-.1.9-1.7.8-1.6.1-.1 1-1.9.9-1.8-.1.1 0 .3.1.3.2.3 11.1 6.6 11.2 6.7z" opacity="1" data-original="#f9a83d"></path><path fill="#f9a83d" d="M40.6 14.9c-1.9 1-4.7.7-5.4.7l-2.8 1.6c-.1.3-.2.5-.2.8-.1-.1-10.9-6.3-11-6.4-.2-.2-.1-.5.2-.6L26 8.1l.8-.5c.4-.2 1-.2 1.3 0z" opacity="1" data-original="#f9a83d"></path><path fill="#febc1f" d="M12.6 17.2c.9-.3 2.2.6 2.6 1.5-.7.1-1.9.3-2.5-.1-.3-.1-.4-.4-.4-.5 0-.2.2-.6.3-.9z" opacity="1" data-original="#febc1f"></path><path fill="#ffd06c" d="M31.5 20.2c-.5.5-1.1.7-1.8.9s-3.1.6-4.1.5c-1.8-.2-1.9-1.3-2.4-2.2L20 17.5c-1.4 0-3.1.9-4.8 1.2l-2.6-1.5c.1-.1.5-1 .6-1.7.1-.1 4.7-2.7 4.4-2.5.4-.2 1-.2 1.3 0 19.2 11 10 5.7 12.6 7.2z" opacity="1" data-original="#ffd06c"></path><path fill="#febc1f" d="M32.4 17.2c-.8 1.8 1.1 3.8-5.4 4.4-.1-.1-13.3-7.7-13.3-7.7-.3-.2-.4-.5-.3-.7l1.8-3.4zM37.1 15.6c-1.9 0-1.9-.1-1.9-.1.7-.5 1.5-.7 1.4-1.1z" opacity="1" data-original="#febc1f"></path><path fill="#ffd06c" d="M36.6 14.4c.1.5-.7.6-1.4 1.1-.1.1-3.8 2.2-3.6 2.1-.9.5-1 .7-1.5.7-.3 0-.6 0-.9-.2-.1-.1-8.9-5.2-8.8-5.1l-.4-.2-4.6-2.7c-.4-.2-.4-.6 0-.8.1-.1 6.1-3.5 5.7-3.3.4-.2 1-.2 1.4 0L26 8c.5.3 11 6.4 10.3 6 .1.2.3.3.3.4z" opacity="1" data-original="#ffd06c"></path><path fill="#ffd06c" d="M35.2 15.6c-.1.1-3.8 2.2-3.6 2.1-.9.5-1 .7-1.5.7-.3 0-.6 0-.9-.2-.1-.1-8.9-5.2-8.8-5.1l-.4-.2-4.6-2.7c-.4-.2-.4-.6 0-.8.1-.1 6.1-3.5 5.7-3.3.4-.2 1-.2 1.4 0l3.5 2c.5.3 11 6.4 10.3 6 .8.6-.3.9-1.1 1.5z" opacity="1" data-original="#ffd06c"></path><g opacity=".2"><path fill="#ffffff" d="M26.1 8.2v8.2l-5.6-3.3V6.5l.7-.4c.4-.2 1-.2 1.4 0zM30.1 10.5v7.8c-.8.1-1.1-.4-1.9-.7V9.4z" opacity="1" data-original="#ffffff"></path></g><ellipse cx="11.6" cy="24.8" fill="#aa6256" rx="2" ry="1.5" transform="rotate(-73.02 11.554 24.773)" opacity="1" data-original="#aa6256" class=""></ellipse><path fill="#aa6256" d="M21 26.3c0 1.1-.9 2.1-2 2.1s-2.1-.9-2.1-2.1c0-1.1.9-2.1 2.1-2.1s2 1 2 2.1zM29.3 26.9c-.1 1.1-1 1.9-2.1 1.8s-1.9-1-1.8-2.1 1.1-1.9 2.2-1.8c1 .1 1.8 1.1 1.7 2.1zM36.6 25.5c.1 1.1-.6 2-1.5 2.1-1 .1-1.8-.7-1.9-1.8s.6-2.1 1.6-2.1c.8-.1 1.7.7 1.8 1.8zM41.2 22.5c.5.9.5 1.9 0 2.3-.6.3-1.5-.2-2-1.1s-.5-2 0-2.3 1.4.2 2 1.1z" opacity="1" data-original="#aa6256" class=""></path><path fill="#aa6256" d="M41.6 23.8c0 .5-.1.8-.4 1-.4.2-1 0-1.5-.5-.2-.2-.3-.4-.5-.6-.1-.1-.1-.2-.2-.3-.4-.8-.3-1.7.2-2 .6-.3 1.5.2 2 1.1.1.1.1.2.1.3.2.3.3.7.3 1z" opacity="1" data-original="#aa6256" class=""></path><path fill="#8a4852" d="M13.1 24.8c-.5 0-1.3.1-2.1.8-.2.2-.4.4-.6.7-.8 1.2-1.4 3.3-.9 7.4l-1 .1c-.5-4.1 0-7 1.5-8.6l.3-.3c1-.9 2-1 2.7-1 .1.3.1.6.1.9zM21 26.3v.3c-.5-.2-1.4-.4-2.1.1-.3.2-.7.6-1 1.3-.7 1.6-1.2 4.6-.4 10.7l-1 .1c-.7-5.7-.5-9.6.7-11.7.3-.6.7-1 1.2-1.3.9-.6 1.8-.5 2.5-.4.1.3.1.6.1.9zM36.4 24.9c-1 .9-2 1.5-3 1.9-1.4.6-2.8.9-4.3.7-1.8-.2-3-1-3.7-1.4.1-.3.3-.6.6-.8 2.2 1.8 5.9 2.1 9.8-1.2.3.2.5.5.6.8zM42.6 22.7c-.1.4-.4.8-.9 1 0 0-.1 0-.1.1-.6.3-1.3.5-1.9.5-.2-.2-.3-.4-.5-.6-.1-.1-.1-.2-.2-.3 1-.1 1.8-.4 2.3-.6.2-.1.3-.2.3-.3 0 0 0-.2-.6-.6-.1-.4-.2-.8-.2-1.3.9.5 2 1.2 1.8 2.1z" opacity="1" data-original="#8a4852" class=""></path><path fill="#ffd06c" d="M10.5 33.6c0 .9-.7 1.6-1.6 1.6s-1.6-.7-1.6-1.6S8 32 8.9 32s1.6.7 1.6 1.6z" opacity="1" data-original="#ffd06c"></path><path fill="#febc1f" d="M10.5 33.6c0 .9-.7 1.6-1.6 1.6-.5 0-.9-.2-1.1-.5h.3c.9 0 1.6-.7 1.6-1.6 0-.4-.2-.8-.5-1.1.8.2 1.3.9 1.3 1.6z" opacity="1" data-original="#febc1f"></path><path fill="#ffd06c" d="M18.4 38.5c0 .9-.7 1.6-1.6 1.6s-1.6-.7-1.6-1.6.7-1.6 1.6-1.6 1.6.7 1.6 1.6z" opacity="1" data-original="#ffd06c"></path><path fill="#febc1f" d="M18.4 38.5c0 .9-.7 1.6-1.6 1.6-.5 0-.9-.2-1.1-.5h.3c.9 0 1.6-.7 1.6-1.6 0-.4-.2-.8-.5-1.1.8.2 1.3.8 1.3 1.6z" opacity="1" data-original="#febc1f"></path></g></svg>
