<svg xmlns="http://www.w3.org/2000/svg" version="1.1" xmlns:xlink="http://www.w3.org/1999/xlink" width="512" height="512" x="0" y="0" viewBox="0 0 512 512" style="enable-background:new 0 0 512 512" xml:space="preserve" class=""><g><path d="m409.173 213.965-12.368 21.472c-6.042 10.489 6.067 28.79 27.046 40.873 20.98 12.085 42.885 13.377 48.927 2.888l12.368-21.472Z" style="" fill="#6562f1" data-original="#6562f1"></path><path d="m326.802 36.946-19.966 34.66c-11.026 19.144 11.072 52.54 49.357 74.592 38.286 22.054 78.26 24.413 89.287 5.27l19.966-34.66Z" style="" fill="#e2ac40" data-original="#e2ac40" class=""></path><path d="M321.36 118.52q2.701 3.022 5.775 6l24.38-42.325-6.933-3.992ZM352.752 144.158q1.699 1.035 3.441 2.04 1.744 1.005 3.491 1.953l23.41-40.641-6.932-3.992ZM397.613 162.443l23.014-39.953-6.933-3.992-24.17 41.96q4.113 1.16 8.09 1.985Z" style="" fill="#f2c34e" data-original="#f2c34e" class=""></path><path d="M242.747 73.712 224.244 38.25 82.392 112.261l18.503 35.464c10.219 19.585 50.258 18.895 89.43-1.543s62.641-52.884 52.422-72.47Z" style="" fill="#6562f1" data-original="#6562f1"></path><path d="m203.762 76.816-7.093 3.702 23.591 45.215q3.19-2.844 6.022-5.754ZM171.501 101.458l-7.092 3.701 22.345 42.828q1.786-.876 3.57-1.805 1.784-.931 3.523-1.896ZM156.427 159.038l-24.843-47.614-7.093 3.701 23.772 45.56q4-.654 8.164-1.647Z" style="" fill="#8380f3" data-original="#8380f3"></path><path d="M416.09 42.216c-38.286-22.053-78.262-24.413-89.288-5.27-11.027 19.143 11.071 52.538 49.356 74.592s78.261 24.412 89.288 5.27-11.071-52.54-49.357-74.592Z" style="" fill="#f2c34e" data-original="#f2c34e" class=""></path><ellipse cx="153.318" cy="75.255" rx="80" ry="40" style="" transform="rotate(-27.553 153.318 75.255)" fill="#8380f3" data-original="#8380f3"></ellipse><path d="M99.346 35.231 94.63 28.77a215.842 215.842 0 0 1 15.297-10.177l4.146 6.842a207.288 207.288 0 0 0-14.727 9.797ZM45.795 113.274c-7.135-21.232 7.577-50.483 38.393-76.338l5.142 6.128C61.52 66.398 47.407 92.957 53.378 110.726ZM358.742 182.155a155.333 155.333 0 0 1-28.546-12.905c-15.01-8.646-28.06-19.25-37.734-30.664l6.103-5.172c9.085 10.718 21.403 20.713 35.624 28.904a147.447 147.447 0 0 0 27.07 12.244ZM284.61 127.935a61.279 61.279 0 0 1-6.919-14.787l7.663-2.296a53.346 53.346 0 0 0 6.034 12.833ZM277.697 185.437a72.504 72.504 0 0 0-66.177-9.307l-2.624-7.557a80.503 80.503 0 0 1 73.407 10.323Z" style="" fill="#bebebe" data-original="#bebebe" class=""></path><path d="M295.85 273.079c-2.967-44.083-33.962-77.895-69.228-75.522l-39.91 2.686 10.745 159.64 39.91-2.687c35.266-2.374 61.45-40.034 58.483-84.117Z" style="" fill="#dfdfdf" data-original="#dfdfdf"></path><path d="M295.85 273.079q-.135-2.008-.35-3.986l-45.124 3.037.537 7.982 45.125-3.037q-.055-1.988-.188-3.996ZM282.362 229.886l-45.676 3.075.537 7.982 49.374-3.323a86.645 86.645 0 0 0-4.235-7.734ZM291.433 309.457l-50.306 3.386.537 7.982 46.608-3.137a86.614 86.614 0 0 0 3.16-8.231Z" style="" fill="#ededed" data-original="#ededed"></path><ellipse cx="192.085" cy="280.063" rx="64" ry="80" style="" transform="rotate(-3.851 192.085 280.063)" fill="#ededed" data-original="#ededed"></ellipse><path d="m335.85 200.797-39.772-4.268-17.07 159.087 39.771 4.268c21.966 2.357 43.593-31.346 48.307-75.276s-9.271-81.454-31.237-83.811Z" style="" fill="#e2ac40" data-original="#e2ac40" class=""></path><path d="m365.22 240.155-46.222-4.96-.853 7.955 48.525 5.207q-.598-4.23-1.45-8.202ZM324.054 275.967l-.853 7.955 43.408 4.658q.26-1.972.477-3.972.215-2.001.377-3.983ZM358.988 319.945l-43.469-4.664-.854 7.955 41.167 4.417q1.674-3.693 3.156-7.708Z" style="" fill="#f2c34e" data-original="#f2c34e" class=""></path><ellipse cx="287.543" cy="276.073" rx="80" ry="40" style="" transform="rotate(-83.876 287.543 276.073)" fill="#f2c34e" data-original="#f2c34e" class=""></ellipse><path d="M418.687 463.125 408 456l-16-40-8-88H112v40l-16 56v32l-6.725 6.725a13.117 13.117 0 0 0 0 18.55l2.039 2.039A16 16 0 0 0 102.627 488h306.746a16 16 0 0 0 11.313-4.686 13.117 13.117 0 0 0-1.999-20.19Z" style="" fill="#8380f3" data-original="#8380f3"></path><path d="m116.154 277.12 63.637-9.09a166.353 166.353 0 0 1 56.15 1.558l29.557 5.912a166.352 166.352 0 0 0 45.383 2.74l61.232-4.71a16 16 0 0 1 17.066 18.215L384 328l-59.71 14.927a166.352 166.352 0 0 1-72.97 1.737 166.352 166.352 0 0 0-85.23 5.306L112 368v-48l-8.44-21.098a16 16 0 0 1 12.594-21.781Z" style="" fill="#5350ef" data-original="#5350ef" class=""></path><path d="M300.916 315.87a180.004 180.004 0 0 1-57.655-1.095l-4.665-.848a180 180 0 0 0-105.304 12.61l-2.201 1.01L112 336.421V368l54.09-18.03a166.355 166.355 0 0 1 85.23-5.306 166.348 166.348 0 0 0 72.97-1.737L384 328l3.49-24.434Z" style="" fill="#6562f1" data-original="#6562f1"></path><path d="m160.43 341.538-36.105-17.217L55.46 468.743l36.105 17.216c19.94 9.509 51.522-15.113 70.539-54.994 19.017-39.88 18.268-79.919-1.672-89.427Z" style="" fill="#dfdfdf" data-original="#dfdfdf"></path><path d="m197.823 448.687-7.22-3.444c13.818-28.98 17.361-59.268 8.815-75.368l7.067-3.75c9.827 18.513 6.427 50.92-8.662 82.562Z" style="" fill="#6562f1" data-original="#6562f1"></path><path d="m142.743 461.617-43.723-20.85-3.443 7.221 41.632 19.853q2.804-2.928 5.534-6.224ZM175.086 388.41l-42.239-20.141-3.443 7.22 44.329 21.138q.839-4.189 1.353-8.217ZM120.315 406.607l-3.443 7.221 43.464 20.725q.9-1.773 1.767-3.588.866-1.816 1.676-3.632Z" style="" fill="#ededed" data-original="#ededed"></path><ellipse cx="89.892" cy="396.532" rx="80" ry="40" style="" transform="rotate(-64.506 89.892 396.532)" fill="#ededed" data-original="#ededed"></ellipse><path d="m441.604 283.981 18.35-31.857-6.933-3.992-19.092 33.145a75.25 75.25 0 0 0 7.675 2.704ZM411.944 268.04l17.77-30.849-6.933-3.992-16.837 29.23a70.097 70.097 0 0 0 6 5.61Z" style="" fill="#8380f3" data-original="#8380f3"></path><path d="m82.92 282.69-7.966-.739a155.363 155.363 0 0 1 6.131-30.72c5.038-16.579 12.423-31.683 21.359-43.681l6.416 4.78c-8.39 11.265-15.348 25.522-20.12 41.227a147.369 147.369 0 0 0-5.82 29.132ZM116.719 203.14l-5.67-5.642a61.248 61.248 0 0 1 12.843-10.078l3.967 6.947a53.349 53.349 0 0 0-11.14 8.774Z" style="" fill="#bebebe" data-original="#bebebe" class=""></path><path d="M456.672 219.331c-20.979-12.084-42.245-14.487-47.499-5.366-5.253 9.12 7.495 26.31 28.474 38.395 20.98 12.085 42.245 14.487 47.499 5.366 5.254-9.12-7.494-26.31-28.474-38.395Z" style="" fill="#8380f3" data-original="#8380f3"></path></g></svg>
