<svg xmlns="http://www.w3.org/2000/svg" version="1.1" xmlns:xlink="http://www.w3.org/1999/xlink" width="512" height="512" x="0" y="0" viewBox="0 0 20593 18571" style="enable-background:new 0 0 512 512" xml:space="preserve" fill-rule="evenodd" class="hovered-paths"><g><path fill="#00dcab" d="M16752 11181v7390h-1293v-7390h-971l1617-1895 1617 1895z" opacity="1" data-original="#00dcab" class=""></path><path fill="#fab812" d="M19623 13308v5263h-1294v-5263h-970l1617-1894 1617 1894z" opacity="1" data-original="#fab812" class="hovered-path"></path><path fill="#ff576b" d="M13882 14848v3723h-1294v-3723h-970l1617-1895 1617 1895z" opacity="1" data-original="#ff576b"></path><path fill="#fab812" d="M15634 0c2064 0 3738 1674 3738 3738 0 2065-1674 3738-3738 3738-2065 0-3738-1673-3738-3738 0-2064 1673-3738 3738-3738z" opacity="1" data-original="#fab812" class="hovered-path"></path><path fill="#fce379" d="M15634 794c1626 0 2944 1318 2944 2944s-1318 2944-2944 2944-2945-1318-2945-2944 1319-2944 2945-2944z" opacity="1" data-original="#fce379" class=""></path><path fill="#f7cf56" d="M15634 794c630 0 1215 198 1694 536-436-255-943-402-1485-402-1626 0-2944 1319-2944 2945 0 995 494 1875 1250 2408-873-511-1460-1458-1460-2543 0-1626 1319-2944 2945-2944z" opacity="1" data-original="#f7cf56" class=""></path><path fill="#fab812" d="M14681 2780c0-259 57-468 172-627 114-158 286-261 514-308v-285h533v285c233 43 407 144 523 303 117 159 175 369 175 632v120h-615v-159c0-138-29-236-86-292-57-57-137-85-240-85-102 0-182 28-239 85-57 56-86 154-86 292 0 131 32 244 95 339s142 183 236 265c95 82 197 163 305 241s210 167 305 265c94 99 173 212 236 342 63 129 95 285 95 467 0 263-59 474-178 635-118 160-293 262-526 306v279h-533v-279c-236-44-413-146-529-306-116-161-175-372-175-635v-262h616v301c0 138 30 235 91 289 61 55 143 82 246 82 102 0 184-27 245-82 62-54 92-151 92-289 0-132-31-245-95-339-63-95-142-184-236-266-95-82-196-162-305-240-108-78-210-167-305-265-94-99-173-213-236-342s-95-285-95-467z" opacity="1" data-original="#fab812" class="hovered-path"></path><path fill="#00dcab" d="M5339 4605c346 217 775 1515 775 1515l118 601s-790 3048-2122 3690c-1333 642-1689 5694-1065 7066 650 1427 7051 1427 7700 0 625-1372 268-6424-1065-7066-1332-642-1267-3690-1267-3690l118-601s611-751 591-1413c-6-213 67-1111-2166-885l20 468c-435-241-1410-38-1637 315z" opacity="1" data-original="#00dcab" class=""></path><path fill="#02c49a" d="M2965 17265c25 78 51 149 80 212 650 1427 7051 1427 7700 0 625-1372 268-6424-1065-7066-147-71-276-171-391-293l-66 54s861 919 1074 2085c214 1166 584 4196 39 4915-544 719-2331 1419-6605 680 0 0-463-67-766-587z" opacity="1" data-original="#02c49a" class=""></path><path fill="#02c49a" d="m9281 10110-4953 172s2470 1201 5521 238c-54-44-110-81-169-109-150-72-282-175-399-301z" opacity="1" data-original="#02c49a" class=""></path><path fill="#ffc578" d="m1352 9872 5500-1-1-3446H1351z" opacity="1" data-original="#ffc578"></path><path fill="#ffd296" d="M3874 6425H1351v187l2492-1c0-64 12-125 31-186z" opacity="1" data-original="#ffd296"></path><path fill="#f7b25e" d="m1352 9872 2750-1v-199H1352z" opacity="1" data-original="#f7b25e"></path><path fill="#ffc578" d="M8715 10349c772 0 736-732 542-925 368-99 517-814 22-1083 503-103 632-1102-112-1170 406-36 660-1084-371-1034l-2682-4c-101-295-261-654-302-809-33-125-1288 200-1454 243-357 91-661 457-661 858l1 3198c0 1300 4033 726 5017 726z" opacity="1" data-original="#ffc578"></path><path fill="#f7b25e" d="M8668 10349c940-35 728-787 589-925 368-99 517-814 22-1083 503-103 632-1102-112-1170 406-36 660-1084-371-1034 525 249 395 926-187 1068 758 106 638 1048 135 1150 558 229 317 934-8 1014 521 55 484 745-68 980z" opacity="1" data-original="#f7b25e"></path><path fill="#ffd296" d="M3697 6425v187l146-1c-100-642 551-1066 1977-1263-52-103-1083-75-1690 318-268 174-443 434-433 759z" opacity="1" data-original="#ffd296"></path><path fill="#f7b25e" d="M9217 6190c-114-54-262-83-450-74l-3191 19 524 85z" opacity="1" data-original="#f7b25e"></path><path fill="#2a68a6" d="M0 6146h916l-1 4604H0V6146z" opacity="1" data-original="#2a68a6"></path><path fill="#5b95cf" d="M0 6146h916v375H0v-375z" opacity="1" data-original="#5b95cf"></path><path fill="#0e4275" d="M0 9890h916v860H0z" opacity="1" data-original="#0e4275"></path><path fill="#ecf0f1" d="M3044 6146H916v4604h1655c260 0 473-212 473-473z" opacity="1" data-original="#ecf0f1"></path><path fill="#ffffff" d="M3044 6146H916v375h2128z" opacity="1" data-original="#ffffff"></path><path fill="#c6cbd6" d="M916 9890v860h1655c260 0 473-212 473-473v-387z" opacity="1" data-original="#c6cbd6"></path><path fill="#02c49a" d="M8722 4273c252 265-1294 501-1294 501l-376 1024 87-1858c331-47 1331 68 1583 333z" opacity="1" data-original="#02c49a" class=""></path><path fill="#02c49a" d="M5594 4554c-26 144 789 379 1511 315l7-351c-227-200-955-231-1518 36z" opacity="1" data-original="#02c49a" class=""></path><path fill="#49ebc8" d="M4327 10282h1l199 85s-616 270-878 1028c-437 971-1005 5845-21 6430 257 154 328 249 283 293-434-166-747-380-866-641-624-1372-268-6424 1065-7066 74-35 147-79 217-129z" opacity="1" data-original="#49ebc8"></path><path fill="#fab812" d="M6895 11662c683 0 1236 553 1236 1235 0 683-553 1236-1236 1236-682 0-1235-553-1235-1236 0-682 553-1235 1235-1235z" opacity="1" data-original="#fab812" class="hovered-path"></path><path fill="#fce379" d="M6895 11924c538 0 973 436 973 973 0 538-435 973-973 973-537 0-973-435-973-973 0-537 436-973 973-973z" opacity="1" data-original="#fce379" class=""></path><path fill="#f7cf56" d="M6895 11924c209 0 402 66 560 177-144-84-312-133-491-133-537 0-973 436-973 974 0 329 163 620 413 796-288-169-482-482-482-841 0-537 436-973 973-973z" opacity="1" data-original="#f7cf56" class=""></path><path fill="#fab812" d="M6580 12580c0-85 19-154 57-207 38-52 94-86 170-102v-94h176v94c77 15 135 48 173 101 39 52 58 122 58 208v40h-204v-52c0-46-9-78-28-97s-45-28-79-28-60 9-79 28-29 51-29 97c0 43 11 80 32 112 21 31 47 60 78 87 31 28 65 54 101 80 35 26 69 55 100 88 32 32 58 70 79 113 20 42 31 94 31 154 0 87-20 157-59 210s-97 86-174 101v92h-176v-92c-78-15-136-48-175-101-38-53-58-123-58-210v-87h204v100c0 45 10 77 30 95 20 19 47 28 81 28s61-9 81-28c21-18 31-50 31-95 0-44-11-81-32-112-20-32-46-61-78-88-31-27-65-54-100-80-36-25-70-55-101-87-31-33-58-70-78-113-21-43-32-94-32-155zM5205 14560c682 0 1236 553 1236 1235 0 683-554 1236-1236 1236s-1236-553-1236-1236c0-682 554-1235 1236-1235z" opacity="1" data-original="#fab812" class="hovered-path"></path><path fill="#fce379" d="M5205 14822c537 0 973 436 973 973 0 538-436 974-973 974-538 0-973-436-973-974 0-537 435-973 973-973z" opacity="1" data-original="#fce379" class=""></path><path fill="#f7cf56" d="M5205 14822c208 0 402 66 560 177-144-84-312-132-491-132-537 0-973 435-973 973 0 329 163 620 413 796-288-169-482-482-482-841 0-537 435-973 973-973z" opacity="1" data-original="#f7cf56" class=""></path><path fill="#fab812" d="M4890 15478c0-85 19-154 57-206 38-53 94-87 170-103v-94h176v94c77 15 135 48 173 101 39 52 58 122 58 208v40h-204v-52c0-46-9-78-28-97s-45-28-79-28-60 9-79 28-29 51-29 97c0 43 11 81 32 112 20 31 47 60 78 87 31 28 65 54 100 80 36 26 70 55 101 88 31 32 58 70 78 113 21 42 32 94 32 154 0 87-20 157-59 210s-97 86-174 101v92h-176v-92c-78-15-137-48-175-101s-58-123-58-210v-87h204v100c0 46 10 77 30 96 20 18 47 27 81 27s61-9 81-27c20-19 31-50 31-96 0-44-11-81-32-112-21-32-47-61-78-88s-65-54-101-79c-35-26-69-56-100-88-32-33-58-70-79-113-20-43-31-94-31-155zM8585 14560c683 0 1236 553 1236 1235 0 683-553 1236-1236 1236-682 0-1235-553-1235-1236 0-682 553-1235 1235-1235z" opacity="1" data-original="#fab812" class="hovered-path"></path><path fill="#fce379" d="M8585 14822c538 0 973 436 973 973 0 538-435 974-973 974-537 0-973-436-973-974 0-537 436-973 973-973z" opacity="1" data-original="#fce379" class=""></path><path fill="#f7cf56" d="M8585 14822c209 0 402 66 560 177-144-84-312-132-490-132-538 0-974 435-974 973 0 329 164 620 414 796-289-169-483-482-483-841 0-537 436-973 973-973z" opacity="1" data-original="#f7cf56" class=""></path><path fill="#fab812" d="M8270 15478c0-85 19-154 57-206 38-53 95-87 170-103v-94h176v94c77 15 135 48 173 101 39 52 58 122 58 208v40h-203v-52c0-46-10-78-29-97s-45-28-79-28-60 9-79 28-28 51-28 97c0 43 10 81 31 112s47 60 78 87c31 28 65 54 101 80s69 55 100 88c32 32 58 70 79 113 21 42 31 94 31 154 0 87-20 157-59 210s-97 86-174 101v92h-176v-92c-78-15-136-48-175-101-38-53-57-123-57-210v-87h203v100c0 46 10 77 30 96 20 18 47 27 81 27s61-9 82-27c20-19 30-50 30-96 0-44-11-81-31-112-21-32-47-61-79-88-31-27-64-54-100-79-36-26-70-56-101-88-31-33-57-70-78-113s-32-94-32-155z" opacity="1" data-original="#fab812" class="hovered-path"></path></g></svg>
