<svg xmlns="http://www.w3.org/2000/svg" version="1.1" xmlns:xlink="http://www.w3.org/1999/xlink" width="512" height="512" x="0" y="0" viewBox="0 0 128 128" style="enable-background:new 0 0 512 512" xml:space="preserve" class=""><g><rect width="28.088" height="56.202" x="80.82" y="49.074" fill="#ffc943" rx="4.514" opacity="1" data-original="#ffc943"></rect><path fill="#43567c" d="M92.543 49.074h7.646v56.202h-7.646zM27.491 24.372H77.77a8.4 8.4 0 0 1 8.4 8.4V119.6a8.4 8.4 0 0 1-8.4 8.4H27.491a8.4 8.4 0 0 1-8.4-8.4V32.771a8.4 8.4 0 0 1 8.4-8.399z" opacity="1" data-original="#43567c" class=""></path><rect width="48.966" height="24.999" x="28.148" y="41.869" fill="#6bb3d9" rx="2.02" opacity="1" data-original="#6bb3d9"></rect><g fill="#bac2d3"><rect width="9.088" height="9.088" x="28.148" y="73.908" rx="1.752" fill="#bac2d3" opacity="1" data-original="#bac2d3"></rect><rect width="9.088" height="9.088" x="41.44" y="73.908" rx="1.752" fill="#bac2d3" opacity="1" data-original="#bac2d3"></rect><rect width="9.088" height="9.088" x="54.733" y="73.908" rx="1.752" fill="#bac2d3" opacity="1" data-original="#bac2d3"></rect><rect width="9.088" height="9.088" x="68.025" y="73.908" rx="1.752" fill="#bac2d3" opacity="1" data-original="#bac2d3"></rect><rect width="9.088" height="9.088" x="28.148" y="87.32" rx="1.752" fill="#bac2d3" opacity="1" data-original="#bac2d3"></rect><rect width="9.088" height="9.088" x="41.44" y="87.32" rx="1.752" fill="#bac2d3" opacity="1" data-original="#bac2d3"></rect><rect width="9.088" height="9.088" x="54.733" y="87.32" rx="1.752" fill="#bac2d3" opacity="1" data-original="#bac2d3"></rect><rect width="9.088" height="9.088" x="68.025" y="87.32" rx="1.752" fill="#bac2d3" opacity="1" data-original="#bac2d3"></rect><rect width="9.088" height="9.088" x="28.148" y="100.732" rx="1.752" fill="#bac2d3" opacity="1" data-original="#bac2d3"></rect><rect width="9.088" height="9.088" x="41.44" y="100.732" rx="1.752" fill="#bac2d3" opacity="1" data-original="#bac2d3"></rect><rect width="9.088" height="9.088" x="54.733" y="100.732" rx="1.752" fill="#bac2d3" opacity="1" data-original="#bac2d3"></rect><rect width="9.088" height="9.088" x="68.025" y="100.732" rx="1.752" fill="#bac2d3" opacity="1" data-original="#bac2d3"></rect></g><rect width="40.167" height="3.996" x="32.547" y="31.331" fill="#2f3a5a" rx="1.02" opacity="1" data-original="#2f3a5a"></rect><path fill="#dbe2eb" d="M35.255 0h34.751v33.329H35.255z" opacity="1" data-original="#dbe2eb"></path><path fill="#bac2d3" d="M64.557 8.253H40.7a1 1 0 0 1 0-2h23.857a1 1 0 0 1 0 2zM64.557 16.812H40.7a1 1 0 1 1 0-2h23.857a1 1 0 0 1 0 2zM64.557 25.372H40.7a1 1 0 1 1 0-2h23.857a1 1 0 0 1 0 2z" opacity="1" data-original="#bac2d3"></path><rect width="9.088" height="4.977" x="28.148" y="114.771" fill="#ef5361" rx="1.055" opacity="1" data-original="#ef5361"></rect><rect width="9.088" height="4.977" x="41.44" y="114.771" fill="#8ccfb5" rx="1.055" opacity="1" data-original="#8ccfb5"></rect><rect width="9.088" height="4.977" x="54.733" y="114.771" fill="#6bb3d9" rx="1.055" opacity="1" data-original="#6bb3d9"></rect><rect width="9.088" height="4.977" x="68.025" y="114.771" fill="#ffc943" rx="1.055" opacity="1" data-original="#ffc943"></rect></g></svg>
