<svg xmlns="http://www.w3.org/2000/svg" version="1.1" xmlns:xlink="http://www.w3.org/1999/xlink" width="512" height="512" x="0" y="0" viewBox="0 0 68 68" style="enable-background:new 0 0 512 512" xml:space="preserve" class=""><g><path fill="#c3632e" d="M66 34.256c0 17.041-13.817 30.859-30.859 30.859-17.03 0-30.847-13.818-30.847-30.86 0-17.03 13.817-30.847 30.847-30.847C52.183 3.408 66 17.226 66 34.256z" opacity="1" data-original="#c3632e" class=""></path><path fill="#f5d451" d="M63.706 33.733c0 17.041-13.817 30.859-30.858 30.859C15.818 64.592 2 50.774 2 33.732 2 16.703 15.817 2.886 32.848 2.886c17.041 0 30.858 13.818 30.858 30.848z" opacity="1" data-original="#f5d451" class=""></path><path fill="#f1ba2d" d="m48.1 6.912-3.054 6.127c7.224 4.17 12.098 11.975 12.098 20.895 0 13.299-10.82 24.118-24.12 24.118-3.366 0-6.57-.699-9.484-1.951l-2.97 5.948c3.822 1.699 8.003 2.743 12.454 2.743 17.042 0 30.86-13.817 30.86-30.858 0-11.573-6.348-21.744-15.785-27.022z" opacity="1" data-original="#f1ba2d" class=""></path><path fill="#e08637" d="M32.964 9.626C19.607 9.626 8.74 20.493 8.74 33.85c0 13.363 10.867 24.235 24.224 24.235 13.364 0 24.237-10.872 24.237-24.235 0-13.357-10.873-24.224-24.237-24.224z" opacity="1" data-original="#e08637" class=""></path><path fill="#fffb7d" d="M57.2 33.85c0 13.362-10.873 24.234-24.236 24.234-.13 0-.26 0-.387-.004 13.186-.205 23.849-10.997 23.849-24.23 0-13.227-10.663-24.015-23.85-24.22.128-.004.258-.004.388-.004C46.327 9.626 57.2 20.493 57.2 33.85z" opacity="1" data-original="#fffb7d" class=""></path><path fill="#cb6030" d="M11.518 34.888c0 9.855 5.904 18.355 14.37 22.136-9.91-3.036-17.146-12.27-17.146-23.174 0-13.354 10.87-24.225 24.224-24.225 3.477 0 6.784.734 9.775 2.066a24.296 24.296 0 0 0-6.998-1.027c-13.365 0-24.225 10.86-24.225 24.224z" opacity="1" data-original="#cb6030" class=""></path><path fill="#ffffff" d="M50.667 53.933c.77-.685 1.623-.974 1.9-.643.276.331-.132 1.154-.902 1.839s-1.612.975-1.888.644c-.276-.331.12-1.155.89-1.84zM53.723 51.342c.367-.41.8-.615.965-.458.164.158-.004.617-.37 1.027-.368.41-.795.615-.96.457-.164-.157-.002-.617.365-1.026zM40.337 8.095l1.83 2.076a.152.152 0 0 0 .191.03l2.47-1.475c.153-.091.31.109.187.236l-1.954 2.003a.152.152 0 0 0-.025.178l1.267 2.366c.085.158-.127.307-.247.173l-1.892-2.124a.152.152 0 0 0-.19-.03l-2.34 1.385c-.149.088-.306-.103-.19-.232l1.81-2.008a.152.152 0 0 0 .021-.173L40.09 8.266c-.085-.158.128-.306.247-.171zM15.516 13.642c-.977.807-2.038 1.122-2.362.703-.324-.42.215-1.411 1.192-2.218.977-.806 2.024-1.123 2.348-.703.324.42-.2 1.412-1.178 2.218zM12.047 16.476c-.451.503-.984.756-1.186.562-.202-.193.004-.758.455-1.261.451-.504.977-.756 1.18-.562.201.193.002.758-.45 1.261z" opacity="1" data-original="#ffffff"></path><path fill="#c0622c" d="m41.808 23.205-.66.358c-.168.091-.336.183-.511.258-.403.174-.839.264-1.236.45a2.792 2.792 0 0 0-.525.32c-.08.063-.043.192.058.205.136.019.274.022.411.01.181-.017.359-.06.536-.104.471-.115.945-.235 1.388-.434.754-.34 1.174-.841 1.252-1.069.04-.116.1-.626-.01-.89-.05-.12-.137-.245-.1-.37.013-.045.041-.09.03-.134a.163.163 0 0 0-.05-.073c-.128-.128-.582-.699-.657-.243-.029.17.073.354.128.51l.226.637c.026.073.052.149.044.226-.019.163-.18.265-.324.343z" opacity="1" data-original="#c0622c" class=""></path><path fill="#c0622c" d="M36.907 20.714c-.037-.58-.225-1.142-.282-1.72-.012-.129-.021-.265-.094-.37-.073-.106-.239-.16-.332-.072-.05.048-.066.121-.072.19-.03.375.156.735.173 1.11.006.123-.007.245-.012.368-.012.256.007.512.026.767l.093 1.278c.023.312.05.638.22.902.174.272.481.44.797.509.316.07.645.053.967.029.689-.052 1.414-.156 1.951-.589a.534.534 0 0 0 .156-.175.516.516 0 0 0 .041-.186c.022-.281-.029-.63-.192-.87-.134-.195-.418-.132-.496.095-.054.155.001.33.092.466.036.055.08.108.103.17.023.063.022.14-.024.188-.036.038-.09.05-.14.06-.514.107-1.035.18-1.559.222-.369.028-.783.025-1.052-.229a.964.964 0 0 1-.22-.343c-.228-.561-.106-1.195-.144-1.8z" opacity="1" data-original="#c0622c" class=""></path><path fill="#c0622c" d="m37.356 20.935-.051.216a.157.157 0 0 0 .204.184l3.059-1.079a.156.156 0 0 0 .096-.098l.058-.173a.156.156 0 0 0-.197-.198c-.741.247-2.65.894-3.067 1.036a.156.156 0 0 0-.102.112zM35.038 18.72c-.103.136-.016.516-.006.673.018.246.044.49.076.734.05.36.116.718.13 1.08a7.49 7.49 0 0 1-.035.872l-.05.64c-.01.115-.02.232-.056.343-.116.345-.47.544-.802.694-.533.239-1.124.434-1.693.3-.108-.025-.227-.074-.26-.18.554-.227 1.103-.533 1.442-1.027.34-.493.413-1.209.034-1.673a.7.7 0 0 0-.269-.211.584.584 0 0 0-.272-.037c-.268.025-.518.228-.57.493-.053.263.116.56.378.625.103.027.215.018.318.05.102.035.198.134.171.238a.266.266 0 0 1-.066.106c-.342.373-.859.499-1.324.709-.006-.018-.01-.037-.015-.055-.012-.06-.012-.122-.013-.183a.813.813 0 0 1 .027-.272c.01-.03.09-.208.008-.189-.057.014-.124.128-.147.177a1.955 1.955 0 0 0-.118.371 1.031 1.031 0 0 0-.016.29c-.106.063-.206.134-.315.185.071-.153.12-.315.148-.483.029-.18.03-.364.028-.546a16.324 16.324 0 0 0-.202-2.387c-.026-.17-.05-.363.057-.498.023-.029.052-.054.069-.087.03-.06.01-.134-.012-.198a2.206 2.206 0 0 0-.493-.8.783.783 0 0 0-.102.61c.026.096.069.192.056.29-.008.067-.042.127-.061.19-.043.14-.021.29-.001.434.16 1.156.172 2.332.034 3.49-.008.058-.016.12-.055.166-.038.044-.097.063-.153.081-.374.12-.731.291-1.06.506.662.166 1.321-.3 2.003-.3.092.318.209.666.498.825a.897.897 0 0 0 .342.097c.597.067 1.179-.18 1.728-.422.167-.074.335-.149.481-.258.208-.155.361-.37.51-.584.11-.157.223-.318.277-.502.06-.203.048-.419.033-.63l-.169-2.575c-.003-.04-.005-.085.015-.121.02-.034.053-.055.077-.083.081-.098.035-.245-.016-.362-.048-.114-.337-.938-.59-.606zm-1.697 3.036a.258.258 0 1 1 .001-.515.258.258 0 0 1 0 .515z" opacity="1" data-original="#c0622c" class=""></path><path fill="#c0622c" d="m32.164 20.687-.027.114a.082.082 0 0 0 .107.096l1.6-.564a.082.082 0 0 0 .051-.052l.03-.09a.082.082 0 0 0-.103-.104l-1.605.542a.081.081 0 0 0-.053.058zM24.12 23.384c.13.094.3.11.46.112a2.873 2.873 0 0 0 2.178-1.009c.175.231.14.59.359.78.064.057.142.09.22.123.093.04.188.08.285.109-.015.078.043.19.09.23.02.019.046.032.072.028.035-.005.056-.039.072-.07a.33.33 0 0 0 .027-.069.173.173 0 0 0 .002-.061.738.738 0 0 0 .097.006c.202.001.398-.07.59-.138.258-.094.517-.188.756-.324.304-.174.58-.419.924-.49.12-.025.25-.029.352-.099.101-.068.146-.239.044-.31a.245.245 0 0 0-.09-.034l-1.743-.456c-.33-.087-.712-.165-.991.033-.258.182-.326.53-.374.841-.124-.456-.224-.92-.297-1.389-.05-.318-.089-.643-.21-.944a2.525 2.525 0 0 0-.412-.666c-.076-.091-.16-.261-.26-.123a.593.593 0 0 0-.098.336 1.64 1.64 0 0 0 .074.45c.056.22.112.438.17.657.051.2.104.405.09.612a1.218 1.218 0 0 1-.336.729c-.186.2-.42.35-.66.477-.267.137-.563.25-.858.204a.236.236 0 0 1-.116-.043.223.223 0 0 1-.068-.117c-.063-.22.017-.459.14-.653.123-.194.286-.359.416-.549.036-.052.072-.114.063-.178-.008-.064-.083-.12-.138-.087-.05.03-.075.12-.132.103-.035-.012-.042-.058-.04-.096.022-.328.233-.635.189-.961-.06-.029-.12.033-.157.086-.136.2-.277.41-.307.65-.016.126 0 .253-.014.38-.024.234-.146.446-.27.648-.123.2-.255.404-.302.635-.047.23.011.5.203.637zm3.686-1.122c.028-.158.27-.188.395-.196.48-.03.967.074 1.394.297.026.013.055.033.057.063a.079.079 0 0 1-.018.045c-.067.092-.179.135-.284.175l-.64.239c-.054.02-.108.04-.164.055a.9.9 0 0 1-.407.013.288.288 0 0 1-.106-.038c-.058-.039-.086-.108-.108-.175-.03-.09-.058-.18-.081-.272-.015-.059-.05-.143-.038-.206zM28.382 24.227l1.38-.718c.021-.011.036-.03.04-.053l.016-.087a.075.075 0 0 0-.107-.08c-.336.167-1.199.603-1.388.698a.075.075 0 0 0-.04.06l-.01.106a.075.075 0 0 0 .11.074zM38.537 19.36c.1.085.158.215.157.346 0 .046-.007.097.02.135.033.046.105.047.154.019a.351.351 0 0 0 .111-.127l.26-.418.121-.195a.628.628 0 0 0 .08-.162.213.213 0 0 0-.02-.175c-.056-.082-.181-.091-.27-.045a.482.482 0 0 0-.162.166c-.02.03-.077.131-.124.12-.035-.007-.054-.118-.081-.15a.247.247 0 0 0-.163-.09.287.287 0 0 0-.197.06c-.103.077-.153.231-.086.342.046.076.132.116.2.173zM28.386 19.36c.1.085.159.215.157.346 0 .046-.007.097.02.135.033.046.105.047.154.019a.35.35 0 0 0 .111-.127l.26-.418.121-.195a.628.628 0 0 0 .08-.162.213.213 0 0 0-.02-.175c-.056-.082-.181-.091-.269-.045a.482.482 0 0 0-.163.166c-.02.03-.077.131-.124.12-.035-.007-.054-.118-.081-.15a.247.247 0 0 0-.163-.09.287.287 0 0 0-.197.06c-.103.077-.153.231-.086.342.046.076.133.116.2.173zM38.58 21.57c-.016-.09-.069-.046-.101.008a1.91 1.91 0 0 0-.106.215l-.082.186a.696.696 0 0 0-.048.133.523.523 0 0 0-.007.145.582.582 0 0 0 .068.253.31.31 0 0 0 .204.155c.018.003.037.004.053-.005a.087.087 0 0 0 .027-.03c.071-.11.123-.233.154-.361.009-.038.013-.084-.017-.108-.026-.02-.066-.013-.094.006-.027.02-.048.047-.075.068-.026.02-.064.032-.093.016.006-.073.017-.146.033-.217.032-.144.108-.313.083-.463zM38.79 24.202a.203.203 0 0 0-.03-.07.458.458 0 0 0-.133-.144c-.057-.04-.122-.048-.185-.075-.116-.049-.248-.055-.34.047-.019.02-.035.044-.06.055-.055.023-.109-.029-.161-.056a.337.337 0 0 0-.206-.02.346.346 0 0 0-.182.074.43.43 0 0 0-.102.187.332.332 0 0 0-.024.113c0 .032.01.063.02.093.02.055.043.111.085.152.044.043.106.064.162.09.094.045.189.108.292.097a.08.08 0 0 0 .045-.016.097.097 0 0 0 .018-.025.383.383 0 0 1 .082-.108c.035-.028.084-.044.127-.027.044.018.069.066.107.095a.294.294 0 0 0 .116.043c.042.01.09.019.127-.002a.16.16 0 0 0 .038-.033.79.79 0 0 0 .2-.4.21.21 0 0 0 .004-.07zM42.51 24.085c-.358.157-1.28.566-1.48.656a.078.078 0 0 0-.046.06l-.016.11a.078.078 0 0 0 .11.082l1.474-.676a.078.078 0 0 0 .044-.053l.02-.089a.078.078 0 0 0-.106-.09zM33.585 19.61c-.043.07-.135.179-.022.2.213.04.402-.311.44-.465.02-.088.037-.176.049-.266.014-.11.012-.244-.078-.31a.232.232 0 0 0-.137-.04c-.211 0-.393.208-.382.417.003.049.014.1.05.132.058.056.151.043.23.025.04-.009-.032.147-.037.154-.034.053-.079.1-.113.154zm.052-.569a.148.148 0 1 1 .297 0 .148.148 0 0 1-.297 0zM34.212 19.198c-.053.046-.157.114-.069.16.167.087.412-.157.482-.276.04-.067.075-.137.108-.208.04-.088.071-.2.013-.277a.2.2 0 0 0-.104-.067c-.175-.054-.378.073-.422.25-.01.04-.013.086.008.122.035.061.115.073.186.078.034.003-.065.114-.07.119-.042.035-.09.063-.132.1zm.186-.46a.129.129 0 1 1 .247.074.129.129 0 0 1-.247-.074zM32.326 18.932c.034-.08.082-.233-.022-.286-.104-.052-.15.105-.174.178a1.63 1.63 0 0 0-.057.33l-.016.154a.723.723 0 0 0 .003.243c.018.079.07.155.147.18.065.022.14.004.195-.039s.088-.107.104-.174c.012-.05.013-.108-.018-.15-.05-.068-.152-.062-.237-.054-.014.001-.03.002-.042-.007-.016-.012-.016-.035-.013-.054.017-.115.085-.214.13-.32z" opacity="1" data-original="#c0622c" class=""></path><path fill="#c0622c" d="M27.381 20.193c.066.022.14.003.195-.04a.31.31 0 0 0 .104-.173c.012-.05.013-.108-.018-.15-.05-.069-.152-.063-.237-.055-.014.002-.03.002-.042-.007-.016-.012-.016-.035-.013-.054.017-.114.085-.214.13-.32.034-.08.082-.234-.022-.286-.104-.052-.15.104-.174.178-.034.106-.045.219-.057.33l-.016.154a.724.724 0 0 0 .003.242c.019.08.07.155.147.181zM24.418 20.182c.097-.039.186-.095.273-.153.163-.108.323-.222.496-.312.149-.077.308-.137.44-.238.154-.118.264-.284.348-.458a.76.76 0 0 0 .096-.388c-.011-.134-.097-.27-.228-.301a.293.293 0 0 0-.242.058.403.403 0 0 0-.135.214c-.032.118-.012.26.084.337.04.033.097.062.097.114 0 .043-.043.073-.079.096a1.687 1.687 0 0 0-.331.278c-.052.056-.107.12-.182.127.007-.11.103-.192.147-.293a.542.542 0 0 0 .024-.293c-.01-.073-.031-.154-.094-.194-.06-.037-.135-.026-.203-.008a.53.53 0 0 0-.299.176c-.078.105-.086.246-.075.377.005.057.016.118.055.16.048.05.125.06.177.105.01.008.019.019.02.031.003.016-.007.03-.016.043-.109.15-.238.285-.384.4-.026.02-.079.053-.082.09-.004.051.064.044.093.032zm1.21-1.468c-.025-.062.02-.14.099-.17.08-.031.164-.005.188.057.025.062-.02.138-.1.17-.079.03-.163.005-.188-.057zm-.907.483c-.03-.074.024-.165.12-.203.095-.037.198-.007.226.068.03.075-.024.166-.12.204-.095.037-.196.007-.226-.069zM31.336 53.804H29.65c0-.366.089-.732.5-1.033.423-.313.526-.547.576-.724.092-.327.021-.615-.249-.629-.18-.01-.32.1-.344.266-.04.231.089.32.245.313 0 .135-.1.305-.348.305s-.394-.206-.327-.504c.068-.305.401-.511.785-.511.461 0 .909.21.898.65-.01.465-.437.67-.774.834-.309.152-.61.294-.72.557h.798c.306 0 .494-.071.604-.39h.096zM33.51 52.561c0 .76-.402 1.275-1.009 1.275-.607 0-1.005-.515-1.005-1.275 0-.76.398-1.274 1.005-1.274.607 0 1.008.515 1.008 1.274zm-.64-.088c-.085-.647-.277-1.1-.522-1.044-.248.06-.33.579-.245 1.225.086.646.274 1.061.522 1.025.256-.035.33-.56.245-1.206zM34.777 53.708v.096H33.58v-.096c.27 0 .306-.185.306-.408v-1.143c0-.224-.036-.394-.306-.394v-.096l.81-.348h.082v1.98c0 .224.035.409.305.409zM36.655 53.009c-.014.486-.401.827-.92.827-.45 0-.898-.31-.947-.856-.092-1.079.696-1.661 1.508-1.661v.1c-.457.084-.77.397-.862.95.082-.088.245-.134.337-.141.572-.043.902.266.884.78zm-.596-.004c-.075-.43-.256-.614-.44-.59-.182.03-.277.281-.203.707.071.43.28.621.454.586.189-.04.26-.277.189-.703zM38.114 43.967v-.334a.265.265 0 0 0-.29-.265c-1.408.147-2.2-.447-2.29-1.534V26.27a.221.221 0 0 0-.304-.205l-6.794 2.766a.221.221 0 0 0-.115.303l.208.42a.22.22 0 0 0 .278.108c1.268-.499 2.183-.393 2.61.547.122.268.175.562.175.856v10.769c-.109 1.464-1.191 1.755-2.899 1.537a.267.267 0 0 0-.301.264v.332c0 .147.12.267.267.267h9.188c.148 0 .267-.12.267-.267zM26.364 47.095c.59 0 1.004-.42 1.004-.979 0-.556-.414-.979-1.004-.979-1.34 0-1.342 1.958 0 1.958zm.513-.979c0 .532-.202.878-.513.878-.31 0-.515-.346-.515-.878 0-.529.205-.875.515-.875.311 0 .513.346.513.875zM28.813 45.238c.208 0 .273.079.273.314v.777l-.938-1.167h-.726v.076c.208 0 .24.142.24.314v1.131c0 .232-.032.314-.24.314v.074h.622v-.074c-.207 0-.273-.082-.273-.314v-1.197l1.255 1.585h.166v-1.52c0-.234.033-.313.243-.313v-.076h-.622v.076zM29.544 46.997v.074h1.68l.044-.59h-.088c-.087.276-.218.483-.452.483h-.467v-.793h.036c.234 0 .387 0 .411.34h.074v-.79h-.074c-.024.34-.177.34-.411.34h-.036v-.79h.368c.235 0 .369.207.456.48h.084l-.043-.59h-1.582v.077c.207 0 .256.142.256.314v1.131c0 .172-.049.314-.256.314zM32.669 46.277c.06 0 .117 0 .17-.003.073.142.272.53.324.628.062.122.155.169.294.169h.53v-.074c-.208 0-.314-.155-.412-.314l-.3-.493c.226-.087.346-.243.346-.47 0-.384-.338-.558-.952-.558h-.78v.076c.21 0 .256.142.256.314v1.131c0 .172-.046.314-.256.314v.074h.976v-.074c-.21 0-.256-.142-.256-.314v-.406zm-.06-1.006h.049c.322 0 .47.155.47.45s-.148.45-.47.45h-.049zM35.044 45.238v-.076h-.976v.076c.21 0 .256.142.256.314v1.131c0 .172-.046.314-.256.314v.074h.976v-.074c-.207 0-.256-.142-.256-.314v-1.131c0-.172.049-.314.256-.314zM36.779 45.552c.095-.17.19-.314.338-.314v-.076h-.62v.076c.216 0 .262.123.162.314l-.355.64-.368-.64c-.12-.213-.058-.314.13-.314v-.076h-.94v.076c.122 0 .223.144.332.314l.483.796v.335c0 .172-.046.314-.256.314v.074h.965v-.074c-.207 0-.256-.142-.256-.314v-.428zM37.926 46.994v.077h.941v-.077c-.207 0-.24-.139-.322-.313l-.66-1.52h-.128l-.597 1.52c-.066.166-.136.313-.344.313v.077h.671v-.077c-.207 0-.289-.09-.21-.313l.06-.153H38l.068.153c.085.215.066.313-.142.313zm-.545-.575.27-.687.303.687zM40.672 46.482h-.087c-.084.275-.218.482-.453.482h-.466v-1.412c0-.172.05-.314.256-.314v-.076h-.973v.076c.207 0 .256.142.256.314v1.131c0 .172-.049.314-.256.314v.074h1.68zM25.075 48.947l-.256-.416s.06-.058.106-.098c.046-.041.146-.14.238-.14v-.033h-.323v.034c.093 0 .09.07.021.133l-.3.275c.012-.233-.046-.408.113-.408v-.034h-.432v.034c.092 0 .112.063.112.14v.501c0 .076-.02.14-.112.14v.032h.432v-.033c-.092 0-.114-.063-.114-.139v-.162l.11-.103.174.283c.038.062.043.121-.05.121v.033h.457v-.033c-.086 0-.134-.06-.176-.127zM25.287 48.294c.093 0 .114.063.114.14v.501c0 .076-.02.14-.114.14v.032h.433v-.033c-.092 0-.113-.063-.113-.139v-.502c0-.076.021-.14.113-.14v-.033h-.433zM26.386 48.294c.092 0 .12.035.12.14v.344l-.415-.518h-.322v.034c.092 0 .106.063.106.14v.501c0 .103-.014.14-.106.14v.032h.275v-.033c-.091 0-.12-.036-.12-.139v-.531l.556.703h.074v-.674c0-.104.014-.14.108-.14v-.033h-.276zM27.6 48.685h-.428v.032c.092 0 .113.063.113.14v.066c0 .155-.107.151-.142.15-.144-.006-.247-.14-.247-.39 0-.249.095-.38.237-.388.17-.01.25.079.281.226h.033l-.018-.272h-.026c-.02.07-.13 0-.27 0-.284 0-.46.188-.46.435 0 .248.193.434.47.434.14 0 .299-.07.317 0h.025v-.261c0-.077.022-.14.114-.14v-.032z" opacity="1" data-original="#c0622c" class=""></path><path fill="#c0622c" d="M27.96 48.26h-.373v.034c.092 0 .114.063.114.14v.501c0 .076-.022.14-.114.14v.032h.374c.346 0 .523-.172.523-.423 0-.25-.177-.424-.523-.424zm-.004.8h-.05v-.752h.05c.201 0 .313.112.313.376 0 .263-.112.376-.313.376zM28.979 48.25a.427.427 0 0 0-.447.434c0 .248.185.434.447.434a.426.426 0 0 0 .445-.434.426.426 0 0 0-.445-.435zm0 .823c-.138 0-.23-.154-.23-.39 0-.234.092-.388.23-.388.137 0 .227.154.227.389 0 .235-.09.39-.227.39zM30.004 48.743l-.244-.483h-.312v.034c.092 0 .106.063.106.14v.501c0 .103-.014.14-.106.14v.032h.276v-.033c-.092 0-.121-.036-.121-.139v-.531l.295.56h.048l.305-.593v.564c0 .076-.02.14-.113.14v.032h.433v-.033c-.094 0-.114-.063-.114-.139v-.502c0-.076.02-.14.114-.14v-.033h-.32zM31.28 48.25a.427.427 0 0 0-.446.434c0 .248.185.434.447.434a.426.426 0 0 0 .445-.434.426.426 0 0 0-.445-.435zm0 .823c-.137 0-.228-.154-.228-.39 0-.234.09-.388.229-.388.138 0 .227.154.227.389 0 .235-.09.39-.227.39zM31.75 48.26v.034c.092 0 .114.063.114.14v.501c0 .076-.022.14-.114.14v.032h.456v-.033c-.093 0-.138-.047-.138-.139v-.227h.02c.105 0 .173 0 .182.151h.034v-.35h-.034c-.01.15-.077.15-.181.15h-.02v-.35h.168c.104 0 .163.091.2.212h.04l-.02-.261h-.707zM33.202 48.602c-.092-.052-.25-.108-.243-.206.003-.073.077-.11.152-.102.115.01.167.079.2.226h.037l-.019-.272h-.024c-.017.069-.06.013-.194.002-.123-.008-.31.022-.32.212-.009.161.144.23.263.293.131.066.216.104.198.207-.012.064-.08.117-.19.111-.084-.005-.143-.035-.154-.09-.016-.08.04-.11.093-.107 0-.046-.047-.11-.128-.119-.09-.008-.162.066-.14.171.023.114.173.179.325.189.157.01.345-.057.37-.22.028-.169-.11-.232-.226-.295zM34.175 48.934l-.293-.674h-.057l-.265.674c-.029.074-.06.14-.152.14v.033h.297v-.034c-.092 0-.128-.04-.093-.139l.027-.068h.294l.03.068c.038.096.029.14-.063.14v.033h.417v-.034c-.091 0-.106-.062-.142-.139zm-.517-.116.12-.305.134.305zM34.856 48.294c.093 0 .108.035.108.14v.305c0 .229-.097.31-.218.31-.15 0-.22-.114-.22-.305v-.31c0-.077.023-.14.114-.14v-.034h-.431v.034c.092 0 .112.063.112.14v.31c0 .24.16.374.38.374.236 0 .31-.173.31-.376v-.309c0-.104.014-.14.107-.14v-.033h-.262v.034zM35.54 48.26h-.373v.034c.092 0 .114.063.114.14v.501c0 .076-.022.14-.114.14v.032h.374c.346 0 .522-.172.522-.423 0-.25-.176-.424-.522-.424zm-.004.8h-.05v-.752h.05c.2 0 .313.112.313.376 0 .263-.112.376-.313.376zM36.087 48.294c.094 0 .114.063.114.14v.501c0 .076-.02.14-.114.14v.032h.434v-.033c-.092 0-.114-.063-.114-.139v-.502c0-.076.022-.14.114-.14v-.033h-.434zM37.564 48.934l-.293-.674h-.057l-.265.674c-.03.074-.06.14-.153.14v.033h.298v-.034c-.092 0-.128-.04-.093-.139l.026-.068h.294l.03.068c.038.096.03.14-.062.14v.033h.417v-.034c-.092 0-.106-.062-.142-.139zm-.517-.116.12-.305.134.305zM38.49 48.935l-.133-.219c.1-.039.154-.108.154-.208 0-.17-.15-.248-.423-.248h-.345v.034c.093 0 .113.063.113.14v.501c0 .076-.02.14-.113.14v.032h.433v-.033c-.094 0-.114-.063-.114-.139v-.18h.026l.076-.001c.032.063.12.234.144.278.027.054.068.075.13.075h.235v-.033c-.092 0-.14-.069-.183-.139zm-.406-.227h-.022v-.4h.022c.142 0 .208.07.208.2s-.066.2-.208.2zM39.452 48.934l-.293-.674h-.057l-.264.674c-.03.074-.061.14-.153.14v.033h.298v-.034c-.092 0-.129-.04-.094-.139l.027-.068h.294l.03.068c.038.096.03.14-.063.14v.033h.418v-.034c-.092 0-.107-.062-.143-.139zm-.517-.116.12-.305.135.305zM40.225 48.65c.098-.03.16-.089.16-.18 0-.148-.14-.21-.398-.21h-.356v.034c.093 0 .114.063.114.14v.501c0 .076-.02.14-.114.14v.032h.4c.258 0 .42-.075.42-.238 0-.115-.08-.187-.226-.218zm-.275-.342h.066c.126 0 .164.077.164.161 0 .1-.054.163-.179.163h-.05v-.324zm.076.752h-.076v-.381h.076c.141 0 .206.08.206.19 0 .111-.065.19-.206.19zM40.476 48.294c.093 0 .113.063.113.14v.501c0 .076-.02.14-.113.14v.032h.433v-.033c-.092 0-.114-.063-.114-.139v-.502c0-.076.022-.14.114-.14v-.033h-.433zM41.712 48.934l-.293-.674h-.057l-.265.674c-.029.074-.06.14-.152.14v.033h.298v-.034c-.092 0-.129-.04-.094-.139l.027-.068h.294l.03.068c.038.096.03.14-.063.14v.033h.418v-.034c-.092 0-.107-.062-.143-.139zm-.517-.116.12-.305.135.305zM31.591 15.38c-.27 0-.305-.184-.305-.408v-1.98h-.082l-.81.347v.096c.27 0 .306.17.306.394v1.143c0 .224-.036.409-.305.409v.095h1.196v-.095zM32.617 14.972c0 .224-.035.409-.309.409v.095h1.2v-.095c-.27 0-.305-.185-.305-.409v-.124h.412v-.167h-.412v-1.69h-.454l-1.193 1.775v.082h1.061zm-.802-.29.802-1.19v1.19zM34.613 15.508c.461 0 .937-.245.969-.763.025-.458-.313-.788-.863-.777l.756-.774v-.203h-1.547l-.057.629h.1c.042-.121.162-.146.33-.153h.663l-.56.586v.085c.475-.01.564.327.567.568.007.433-.117.653-.412.671-.17.01-.362-.078-.387-.245-.035-.23.093-.33.245-.312 0-.135-.1-.306-.348-.306-.237 0-.404.206-.326.5.081.313.486.494.87.494zM35.656 14.908c0 .38.444.6.99.6.686 0 .942-.316.956-.695.014-.295-.178-.526-.543-.679.259-.092.415-.294.426-.54.014-.429-.352-.635-.838-.635s-.877.213-.884.664c-.004.256.167.483.472.643-.373.106-.579.355-.579.642zm.952-1.817c.454-.022.465.685.298.962-.295-.128-.554-.313-.571-.618-.011-.188.102-.337.273-.344zm-.245 1.264c.117.06.56.262.61.578.047.31-.152.448-.337.448-.422 0-.67-.679-.273-1.026z" opacity="1" data-original="#c0622c" class=""></path><path fill="#fbe449" d="M31.263 15.237v.096h-1.197v-.096c.27 0 .306-.184.306-.408v-1.143c0-.224-.036-.394-.306-.394v-.096l.81-.348h.081v1.98c0 .225.036.41.306.41zM32.875 14.705v.124c0 .224.035.408.305.408v.096h-1.2v-.096c.274 0 .309-.184.309-.408v-.124h-1.061v-.082l1.192-1.775h.455v1.69h.412v.167zm-.586-.167v-1.19l-.802 1.19zM35.253 14.602c-.031.518-.507.763-.969.763-.383 0-.788-.181-.87-.493-.078-.295.09-.501.327-.501.249 0 .348.17.348.305-.153-.018-.28.082-.245.313.025.166.217.255.387.245.295-.018.419-.238.412-.671-.004-.242-.092-.579-.568-.568v-.086l.56-.585h-.663c-.167.007-.288.032-.33.152h-.1l.057-.628h1.548v.202l-.756.774c.55-.01.887.32.862.778zM37.274 14.67c-.015.379-.27.695-.955.695-.547 0-.99-.22-.99-.6 0-.288.205-.536.578-.643-.305-.16-.476-.386-.472-.642.007-.45.397-.664.884-.664s.852.206.837.635c-.01.245-.166.448-.426.54.366.153.558.383.544.678zm-.629.12c-.05-.316-.493-.518-.61-.579-.398.348-.15 1.026.273 1.026.185 0 .383-.138.337-.447zm-.365-1.843c-.17.007-.284.157-.274.345.018.305.277.49.572.617.167-.276.156-.983-.298-.962z" opacity="1" data-original="#fbe449" class=""></path><g fill="#fbe449"><path d="M30.882 53.593h-1.688c0-.367.089-.733.5-1.035.424-.313.527-.548.577-.725.093-.327.022-.615-.249-.63-.182-.01-.32.1-.345.267-.039.23.09.32.245.313 0 .135-.1.306-.348.306-.248 0-.395-.206-.327-.505.068-.306.402-.512.786-.512.462 0 .91.21.9.65-.012.466-.438.672-.776.836-.309.153-.612.295-.722.558h.8c.307 0 .495-.07.604-.391h.097zM33.055 52.348c0 .761-.401 1.277-1.01 1.277-.607 0-1.005-.516-1.005-1.277 0-.76.398-1.276 1.005-1.276.609 0 1.01.515 1.01 1.276zm-.64-.088c-.084-.648-.277-1.103-.522-1.046-.249.06-.331.58-.245 1.227.085.647.273 1.063.522 1.027.256-.036.33-.562.246-1.208zM34.323 53.496v.097h-1.198v-.097c.27 0 .305-.184.305-.408v-1.145c0-.224-.035-.395-.305-.395v-.096l.81-.348h.082v1.984c0 .224.035.408.306.408zM36.202 52.796c-.015.487-.403.829-.921.829-.451 0-.9-.31-.95-.857-.092-1.081.697-1.664 1.511-1.664v.1c-.458.085-.771.397-.863.952.081-.089.245-.135.337-.142.573-.043.903.267.886.782zm-.598-.003c-.074-.43-.256-.616-.44-.59-.182.028-.278.28-.204.707.072.43.282.622.456.586.188-.039.26-.277.188-.703z" fill="#fbe449" opacity="1" data-original="#fbe449" class=""></path></g><path fill="#fbe449" d="M41.75 22.39c.026.074.052.15.043.227-.018.163-.18.265-.324.344l-.659.357a6.395 6.395 0 0 1-.512.258c-.403.174-.838.264-1.235.45a2.793 2.793 0 0 0-.525.32c-.081.063-.044.192.058.206.136.018.274.02.41.008.182-.016.36-.06.536-.102.472-.116.946-.236 1.389-.435s.857-.484 1.143-.876a.75.75 0 0 0 .109-.192.911.911 0 0 0 .038-.217c.02-.227.04-.464-.048-.673-.05-.121-.138-.246-.1-.372.012-.044.04-.088.03-.133a.163.163 0 0 0-.05-.073c-.128-.128-.583-.698-.658-.243-.028.171.074.354.129.51l.226.637z" opacity="1" data-original="#fbe449" class=""></path><path fill="#fbe449" d="M40.2 22.51a.517.517 0 0 1-.04.186.534.534 0 0 1-.156.175c-.538.433-1.263.537-1.951.59-.323.024-.651.04-.967-.03-.316-.07-.624-.236-.798-.509-.17-.263-.197-.59-.22-.902l-.093-1.278a6.521 6.521 0 0 1-.026-.767c.006-.123.018-.245.013-.368-.018-.375-.204-.735-.173-1.11.005-.069.02-.142.071-.19.094-.088.26-.034.332.072.074.106.082.241.095.37.056.578.244 1.14.281 1.72.039.605-.084 1.239.144 1.8a.965.965 0 0 0 .22.343c.27.254.684.258 1.053.229a12.52 12.52 0 0 0 1.559-.221c.05-.01.104-.023.14-.06.045-.049.046-.126.023-.189-.023-.062-.066-.115-.103-.17-.09-.137-.145-.31-.092-.466.079-.227.362-.29.497-.094.163.239.214.588.192.87z" opacity="1" data-original="#fbe449" class=""></path><path fill="#fbe449" d="M40.187 19.542c-.742.247-2.65.894-3.068 1.036a.156.156 0 0 0-.101.112l-.052.216a.156.156 0 0 0 .204.184l3.06-1.079a.156.156 0 0 0 .096-.097l.058-.174a.156.156 0 0 0-.197-.198zM35.382 22.221l-.17-2.574c-.002-.04-.004-.085.016-.12.019-.035.052-.056.077-.084.08-.098.034-.245-.016-.362-.049-.114-.338-.938-.59-.606-.102.137-.016.516-.005.673.018.246.043.491.076.735.05.36.116.717.13 1.08.01.29-.012.581-.035.871l-.05.64c-.01.115-.02.232-.057.343-.116.345-.47.545-.802.694-.532.239-1.124.434-1.693.3-.107-.024-.226-.074-.259-.18.554-.227 1.102-.533 1.442-1.027.34-.492.412-1.209.034-1.673a.7.7 0 0 0-.27-.21.584.584 0 0 0-.271-.038c-.268.026-.518.228-.571.493-.053.264.117.56.379.625.103.027.215.018.317.051.102.034.198.133.172.237a.267.267 0 0 1-.066.106c-.342.373-.86.499-1.324.709-.007-.018-.01-.037-.015-.055-.013-.06-.013-.121-.014-.183 0-.091-.002-.184.028-.272.01-.03.09-.208.007-.189-.057.014-.123.128-.147.178a1.963 1.963 0 0 0-.118.371 1.031 1.031 0 0 0-.015.29c-.106.062-.206.133-.316.185.072-.153.121-.316.149-.484.028-.18.03-.363.027-.546a16.314 16.314 0 0 0-.201-2.387c-.027-.17-.05-.363.057-.498.023-.028.051-.054.068-.086.03-.062.01-.134-.011-.199a2.206 2.206 0 0 0-.494-.8.783.783 0 0 0-.101.61c.025.096.068.192.056.29-.009.067-.043.127-.062.19-.043.14-.02.29 0 .434a13.66 13.66 0 0 1 .033 3.49c-.007.058-.016.12-.055.166-.038.044-.097.063-.153.081-.373.12-.73.291-1.059.507.662.165 1.321-.3 2.002-.3.092.317.21.666.498.824a.897.897 0 0 0 .342.097c.597.067 1.18-.18 1.729-.422.167-.074.334-.149.481-.258.208-.155.36-.37.51-.584.11-.157.222-.317.277-.502.06-.203.047-.419.033-.63zm-2.38-.71a.258.258 0 1 1 .002-.515.258.258 0 0 1-.001.515z" opacity="1" data-original="#fbe449" class=""></path><path fill="#fbe449" d="m33.484 19.842-1.605.542a.082.082 0 0 0-.053.059l-.027.113a.082.082 0 0 0 .107.096l1.6-.564a.082.082 0 0 0 .05-.052l.031-.09a.082.082 0 0 0-.103-.104zM30.31 21.958a.245.245 0 0 0-.09-.035l-1.743-.456c-.33-.086-.712-.165-.992.033-.257.182-.326.53-.373.841-.125-.456-.224-.92-.298-1.389-.05-.318-.088-.643-.209-.944a2.525 2.525 0 0 0-.412-.665c-.076-.092-.16-.262-.26-.124a.593.593 0 0 0-.099.337c-.003.152.035.301.074.449l.17.657c.052.2.104.405.09.612a1.218 1.218 0 0 1-.336.729c-.186.2-.419.35-.66.477-.266.137-.562.25-.858.204a.236.236 0 0 1-.116-.043.222.222 0 0 1-.067-.117c-.064-.22.016-.459.14-.653.122-.194.286-.359.416-.549.035-.052.071-.113.063-.178-.009-.064-.083-.12-.138-.087-.051.03-.075.12-.132.103-.035-.012-.042-.058-.04-.096.022-.328.233-.635.189-.96-.06-.03-.12.032-.158.086-.136.199-.276.409-.307.648-.015.127 0 .255-.013.381-.025.234-.147.446-.27.648-.124.2-.256.404-.302.635-.048.23.01.5.202.637.131.094.301.11.461.112a2.873 2.873 0 0 0 2.178-1.009c.175.231.14.591.358.78.065.057.143.09.22.123.094.04.189.08.286.109-.015.078.043.19.09.23.02.019.046.033.072.028.035-.005.056-.039.072-.07a.327.327 0 0 0 .026-.069.171.171 0 0 0 .002-.061.738.738 0 0 0 .097.006c.203.001.399-.07.59-.138.258-.094.518-.188.756-.324.304-.174.58-.419.924-.49.12-.025.251-.029.353-.098.1-.069.145-.24.044-.31zm-1.015.268c-.066.092-.178.136-.284.176l-.64.238c-.054.02-.108.04-.163.055a.9.9 0 0 1-.408.014.288.288 0 0 1-.105-.038c-.058-.04-.087-.11-.109-.176a3.51 3.51 0 0 1-.08-.272c-.016-.059-.05-.143-.039-.205.029-.159.27-.19.396-.197.48-.03.967.074 1.393.297.026.014.056.034.057.063a.078.078 0 0 1-.018.045zM29.373 23.044c-.336.167-1.2.603-1.388.698a.075.075 0 0 0-.04.06l-.01.106a.075.075 0 0 0 .109.074l1.38-.718c.021-.01.035-.03.04-.053l.016-.086a.075.075 0 0 0-.107-.081zM38.812 18.494c.088-.047.213-.038.27.044.034.05.036.117.02.175a.63.63 0 0 1-.08.163l-.121.194-.26.418a.35.35 0 0 1-.111.127c-.05.028-.121.027-.155-.019-.027-.037-.02-.089-.02-.135a.455.455 0 0 0-.156-.346c-.068-.058-.155-.098-.2-.174-.067-.11-.017-.265.086-.342a.287.287 0 0 1 .196-.06c.064.006.123.04.163.09.028.033.046.143.082.15.047.011.103-.09.123-.12a.482.482 0 0 1 .163-.165zM28.662 18.494c.087-.047.212-.038.268.044.035.05.037.117.021.175s-.048.111-.08.163l-.121.194-.26.418a.35.35 0 0 1-.111.127c-.05.028-.121.027-.154-.019-.028-.037-.021-.089-.02-.135a.455.455 0 0 0-.157-.346c-.068-.058-.155-.098-.2-.174-.067-.11-.017-.265.086-.342a.287.287 0 0 1 .196-.06c.064.006.123.04.163.09.028.033.047.143.082.15.047.011.103-.09.123-.12a.482.482 0 0 1 .164-.165zM38.034 21.549l-.081.185a.695.695 0 0 0-.049.133.524.524 0 0 0-.006.145.583.583 0 0 0 .067.254.31.31 0 0 0 .205.154c.018.003.037.004.053-.005a.087.087 0 0 0 .026-.03c.072-.11.124-.233.154-.361.01-.038.013-.084-.017-.108-.026-.02-.065-.012-.093.007-.028.019-.048.046-.075.067s-.064.033-.093.016c.005-.073.016-.145.032-.217.033-.144.108-.313.084-.463-.015-.09-.068-.047-.1.007-.042.069-.074.142-.107.216zM37.763 23.715c-.018.02-.035.045-.06.055-.054.023-.108-.029-.16-.056a.337.337 0 0 0-.206-.02.345.345 0 0 0-.182.074.43.43 0 0 0-.102.187.333.333 0 0 0-.025.113c0 .032.01.063.021.093.02.055.042.111.084.152.045.044.106.065.163.091.094.044.188.107.291.097a.08.08 0 0 0 .045-.016.097.097 0 0 0 .019-.026.383.383 0 0 1 .081-.108c.035-.028.085-.044.127-.027.045.018.07.066.108.095a.294.294 0 0 0 .115.044c.043.009.09.018.128-.003a.161.161 0 0 0 .037-.033.791.791 0 0 0 .2-.4.21.21 0 0 0 .004-.07.202.202 0 0 0-.029-.07.457.457 0 0 0-.133-.144c-.058-.04-.122-.048-.185-.075-.116-.049-.248-.055-.34.047zM42.171 23.84c-.358.157-1.279.566-1.48.656a.078.078 0 0 0-.045.06l-.016.11a.078.078 0 0 0 .11.083l1.474-.677a.078.078 0 0 0 .043-.053l.021-.089a.078.078 0 0 0-.107-.09zM33.635 18.524a.232.232 0 0 0-.137-.039c-.21-.001-.392.207-.382.417.003.048.015.099.05.131.059.056.152.043.23.025.04-.009-.032.147-.036.154-.035.054-.08.1-.113.154-.043.068-.135.178-.022.2.213.04.402-.312.439-.466.02-.088.038-.176.05-.266.014-.11.012-.244-.079-.31zm-.189.42a.148.148 0 1 1 .001-.296.148.148 0 0 1 0 .296zM34.407 18.352a.201.201 0 0 0-.104-.067c-.175-.054-.378.073-.422.25-.01.041-.012.086.008.122.035.061.116.073.186.078.035.003-.064.115-.07.119-.042.036-.09.063-.132.1-.053.045-.157.113-.068.16.167.086.412-.158.481-.277a2.18 2.18 0 0 0 .108-.208c.04-.088.072-.2.013-.277zm-.262.301a.129.129 0 1 1 .076-.246.129.129 0 0 1-.076.246zM31.792 18.58c-.034.106-.046.218-.058.33l-.015.153a.724.724 0 0 0 .002.243c.019.079.07.155.148.18.065.022.14.004.194-.039s.089-.106.105-.174c.011-.05.012-.107-.018-.15-.05-.068-.152-.062-.237-.054-.015.001-.031.002-.043-.007-.015-.012-.015-.035-.013-.054.017-.115.085-.214.13-.32.035-.081.082-.234-.022-.286-.103-.053-.15.104-.173.177z" opacity="1" data-original="#fbe449" class=""></path><path fill="#fbe449" d="M26.966 19.04c-.034.108-.046.22-.057.331l-.016.154c-.009.08-.017.163.002.242s.07.155.148.181c.065.022.14.003.194-.04a.31.31 0 0 0 .105-.173c.012-.05.012-.108-.018-.15-.05-.069-.152-.063-.237-.055-.015.002-.031.003-.043-.007-.015-.011-.015-.034-.013-.054.017-.114.085-.214.13-.32.035-.08.082-.233-.021-.286-.104-.052-.15.104-.174.178zM25.492 18.084a.293.293 0 0 0-.23.061.403.403 0 0 0-.134.214c-.032.118-.012.26.083.337.04.033.098.062.097.114 0 .044-.042.073-.078.096a1.688 1.688 0 0 0-.332.278c-.051.056-.106.12-.181.127.007-.11.102-.192.147-.293a.542.542 0 0 0 .024-.292c-.01-.074-.032-.155-.095-.195-.059-.037-.135-.026-.202-.008a.53.53 0 0 0-.3.176c-.077.105-.086.246-.074.377.005.057.015.118.055.16.047.05.125.06.177.105.01.009.018.019.02.031.002.016-.007.03-.016.043-.11.15-.239.285-.384.4-.026.02-.08.053-.082.09-.004.052.064.044.093.033.096-.04.185-.096.273-.153.163-.108.322-.223.496-.313.148-.077.307-.137.44-.238.154-.118.263-.284.347-.458a.76.76 0 0 0 .097-.388c-.011-.134-.098-.27-.229-.301a.243.243 0 0 0-.012-.003zm-.884.937c-.094.037-.196.007-.225-.069-.03-.074.024-.165.119-.203.096-.037.198-.007.227.068.03.075-.025.166-.12.204zm.869-.495c-.08.03-.164.005-.188-.057-.024-.062.02-.14.099-.17.08-.031.165-.005.189.057.024.063-.02.138-.1.17zM27.178 28.572l6.793-2.766a.221.221 0 0 1 .305.205v15.564c.089 1.088.882 1.682 2.29 1.534a.265.265 0 0 1 .29.266v.333c0 .148-.12.267-.267.267H27.4a.267.267 0 0 1-.267-.267v-.332c0-.16.142-.284.302-.264 1.707.218 2.79-.073 2.898-1.537V30.807c0-.295-.052-.59-.174-.857-.427-.94-1.342-1.045-2.61-.547a.22.22 0 0 1-.278-.108l-.208-.42a.221.221 0 0 1 .115-.303zM26.758 46.048c0 .56-.414.98-1.003.98-1.342 0-1.341-1.96 0-1.96.589 0 1.003.423 1.003.98zm-.49 0c0-.53-.202-.876-.513-.876-.693 0-.693 1.754 0 1.754.31 0 .512-.346.512-.878zM28.825 45.093v.077c-.21 0-.242.079-.242.313v1.52h-.167l-1.254-1.585v1.197c0 .232.065.314.272.314v.074h-.621v-.074c.207 0 .24-.082.24-.314v-1.132c0-.172-.033-.313-.24-.313v-.077h.725l.938 1.168v-.778c0-.234-.065-.313-.272-.313v-.077h.621zM30.658 46.413l-.044.59h-1.68v-.074c.207 0 .256-.142.256-.314v-1.132c0-.172-.049-.313-.256-.313v-.077h1.582l.044.59h-.085c-.087-.273-.22-.48-.455-.48h-.369v.79h.036c.234 0 .387 0 .412-.34h.073v.79H30.1c-.025-.34-.178-.34-.412-.34h-.036v.793h.467c.234 0 .365-.207.453-.483zM33.377 46.929v.074h-.53c-.139 0-.231-.047-.294-.17-.052-.098-.251-.485-.325-.627-.051.003-.109.003-.169.003H32v.406c0 .172.047.314.257.314v.074h-.977v-.074c.21 0 .257-.142.257-.314v-1.132c0-.172-.047-.313-.257-.313v-.077h.78c.614 0 .952.175.952.56 0 .226-.12.381-.346.469l.3.493c.098.158.204.314.412.314zm-.86-1.277c0-.294-.147-.45-.469-.45H32v.9h.05c.321 0 .468-.155.468-.45zM34.178 45.483v1.132c0 .172.049.314.256.314v.074h-.976v-.074c.21 0 .256-.142.256-.314v-1.132c0-.172-.046-.313-.256-.313v-.077h.976v.077c-.207 0-.256.141-.256.313zM36.507 45.093v.077c-.147 0-.243.144-.338.313l-.385.704v.428c0 .172.05.314.257.314v.074h-.966v-.074c.21 0 .256-.142.256-.314v-.335l-.482-.797c-.11-.169-.21-.313-.333-.313v-.077h.94v.077c-.187 0-.25.1-.13.313l.368.641.355-.64c.1-.192.054-.314-.161-.314v-.077zM37.317 47.003v-.077c.207 0 .226-.098.141-.314l-.068-.152h-.662l-.06.152c-.08.224.002.314.21.314v.077h-.671v-.077c.207 0 .278-.147.343-.314l.597-1.519h.129l.66 1.52c.082.174.114.313.322.313v.077zm.027-.652-.303-.688-.27.688zM40.063 46.413l-.044.59h-1.68v-.074c.207 0 .256-.142.256-.314v-1.132c0-.172-.049-.313-.256-.313v-.077h.974v.077c-.208 0-.257.141-.257.313v1.413h.467c.234 0 .368-.207.452-.483zM24.641 49.006v.033h-.456v-.033c.182 0-.014-.199-.125-.404l-.11.103c.01.134-.04.301.114.301v.033h-.432v-.033c.092 0 .113-.063.113-.14v-.501c0-.076-.02-.14-.113-.14v-.033h.432v.034c-.164 0-.102.188-.114.407.092-.1.529-.407.28-.407v-.034h.323v.034c-.102 0-.216.116-.344.237l.257.416c.04.067.09.127.175.127zM24.997 48.365v.502c0 .076.022.139.114.139v.033h-.433v-.033c.093 0 .113-.063.113-.14-.016-.49.053-.64-.113-.64v-.034h.433v.034c-.092 0-.114.063-.114.139zM26.052 48.192v.034c-.093 0-.108.035-.108.139v.674h-.074l-.556-.703v.53c0 .104.029.14.12.14v.033h-.275v-.033c.092 0 .106-.036.106-.14v-.501c0-.076-.014-.14-.106-.14v-.033h.322l.416.518v-.345c0-.104-.029-.14-.121-.14v-.033zM26.99 48.616v.033c-.092 0-.114.063-.114.14v.26h-.026c-.018-.07-.177 0-.317 0-.277 0-.47-.186-.47-.434 0-.247.176-.434.46-.434.14 0 .251.07.27 0h.026l.018.272h-.033c-.031-.147-.11-.237-.28-.226-.143.008-.238.139-.238.388 0 .25.103.384.247.39.035.001.142.005.142-.15v-.067c0-.076-.02-.139-.113-.139v-.033z" opacity="1" data-original="#fbe449" class=""></path><path fill="#fbe449" d="M27.874 48.615c0 .252-.177.424-.523.424h-.374v-.033c.092 0 .114-.063.114-.14v-.501c0-.076-.022-.14-.114-.14v-.033h.374c.346 0 .523.173.523.423zm-.214 0c0-.264-.113-.375-.314-.375h-.05v.751h.05c.201 0 .314-.112.314-.376zM28.814 48.615a.426.426 0 0 1-.445.435.427.427 0 0 1-.447-.435c0-.247.185-.434.447-.434.261 0 .445.187.445.434zm-.218 0c0-.234-.09-.388-.227-.388-.138 0-.229.154-.229.388 0 .236.09.39.229.39.138 0 .227-.154.227-.39zM29.847 48.365v.502c0 .076.02.139.114.139v.033h-.433v-.033c.093 0 .113-.063.113-.14v-.563l-.304.593h-.049l-.295-.56v.53c0 .104.029.14.12.14v.033h-.275v-.033c.092 0 .107-.036.107-.14v-.501c0-.076-.015-.14-.107-.14v-.033h.312l.245.483.246-.483h.32v.034c-.093 0-.114.063-.114.139zM31.116 48.615a.426.426 0 0 1-.445.435.427.427 0 0 1-.446-.435c0-.247.185-.434.446-.434s.445.187.445.434zm-.218 0c0-.234-.09-.388-.227-.388-.138 0-.229.154-.229.388 0 .236.091.39.229.39s.227-.154.227-.39zM31.866 48.453h-.038c-.038-.12-.097-.213-.201-.213h-.168v.351h.02c.104 0 .172 0 .182-.151h.034v.35h-.034c-.01-.15-.078-.15-.182-.15h-.02v.227c0 .092.044.139.138.139v.033h-.457v-.033c.092 0 .114-.063.114-.14v-.501c0-.076-.022-.14-.114-.14v-.033h.707zM32.819 48.83c-.026.161-.213.228-.37.218-.153-.01-.303-.075-.326-.188-.022-.106.05-.18.14-.17.081.008.128.072.128.118-.053-.004-.108.026-.093.106.011.056.07.086.155.09.109.007.177-.046.189-.11.018-.103-.067-.14-.197-.207-.12-.063-.273-.132-.264-.293.01-.19.197-.22.32-.212.134.011.177.067.194-.002h.024l.02.272H32.7c-.032-.148-.085-.215-.2-.226-.074-.008-.148.029-.152.101-.006.098.151.155.243.207.116.063.254.126.227.295zM33.29 49.039v-.034c.092 0 .1-.044.063-.14l-.03-.067h-.294l-.027.068c-.035.099.002.139.094.139v.034h-.298v-.034c.092 0 .123-.066.152-.14l.265-.673h.057l.293.674c.036.077.05.139.143.139v.034zm.012-.29-.134-.304-.12.305zM34.509 48.192v.034c-.093 0-.108.035-.108.139v.308c0 .204-.074.377-.31.377-.22 0-.38-.134-.38-.374v-.311c0-.076-.02-.14-.112-.14v-.033h.432v.034c-.092 0-.114.063-.114.139v.31c0 .192.07.306.219.306.121 0 .218-.081.218-.31v-.306c0-.104-.015-.14-.108-.14v-.033zM35.454 48.615c0 .252-.177.424-.523.424h-.374v-.033c.092 0 .114-.063.114-.14v-.501c0-.076-.022-.14-.114-.14v-.033h.374c.346 0 .523.173.523.423zm-.215 0c0-.264-.112-.375-.313-.375h-.05v.751h.05c.201 0 .313-.112.313-.376zM35.797 48.365v.502c0 .076.022.139.114.139v.033h-.433v-.033c.093 0 .113-.063.113-.14v-.501c0-.076-.02-.14-.113-.14v-.033h.433v.034c-.092 0-.114.063-.114.139zM36.68 49.039v-.034c.091 0 .1-.044.062-.14l-.03-.067h-.294l-.027.068c-.035.099.001.139.093.139v.034h-.297v-.034c.092 0 .123-.066.152-.14l.265-.673h.057l.293.674c.036.077.05.139.143.139v.034zm.011-.29-.134-.304-.12.305zM38.063 49.006v.033h-.235c-.061 0-.102-.02-.13-.075l-.144-.279c-.023.002-.049.002-.075.002h-.027v.18c0 .076.02.139.114.139v.033h-.433v-.033c.093 0 .113-.063.113-.14v-.501c0-.076-.02-.14-.113-.14v-.033h.346c.272 0 .422.077.422.248 0 .1-.053.17-.154.208l.133.219c.044.07.091.139.183.139zm-.381-.566c0-.13-.065-.2-.208-.2h-.022v.4h.022c.143 0 .208-.07.208-.2zM38.568 49.039v-.034c.092 0 .1-.044.063-.14l-.03-.067h-.295l-.026.068c-.035.099.001.139.093.139v.034h-.298v-.034c.092 0 .124-.066.153-.14l.265-.673h.057l.292.674c.037.077.051.139.143.139v.034zm.012-.29-.134-.304-.12.305zM39.842 48.8c0 .164-.162.239-.421.239h-.4v-.033c.094 0 .114-.063.114-.14v-.501c0-.076-.02-.14-.114-.14v-.033h.356c.259 0 .398.062.398.21 0 .091-.062.15-.16.18.146.032.227.103.227.218zm-.501-.56v.323h.05c.125 0 .18-.063.18-.162 0-.085-.04-.16-.165-.16zm.282.56c0-.11-.066-.19-.207-.19h-.075v.381h.075c.141 0 .207-.08.207-.19zM40.185 48.365v.502c0 .076.022.139.114.139v.033h-.433v-.033c.093 0 .114-.063.114-.14v-.501c0-.076-.02-.14-.114-.14v-.033h.433v.034c-.092 0-.114.063-.114.139zM40.828 49.039v-.034c.092 0 .1-.044.063-.14l-.03-.067h-.295l-.026.068c-.035.099 0 .139.093.139v.034h-.298v-.034c.092 0 .124-.066.153-.14l.265-.673h.056l.293.674c.037.077.051.139.143.139v.034zm.012-.29-.135-.304-.12.305z" opacity="1" data-original="#fbe449" class=""></path><path fill="#c0622c" d="M52.177 30.248s.844-1.51.284-1.493c-.11.018-.804.39-.975.478-.067-.484-.329-.312-.562-.298-.214-.381-.13-.578-.253-.802-.07-.105-.223-.131-.303.05-.056.1-.129.188-.185.287-.167.435-.626-.026-.72.286a3.568 3.568 0 0 1-.71-.803c-.047-.075-.15-.066-.18.018-.175.524-.506 2.058.611 4.08-.03.023-.053.061-.086.067-.07.028-.153-.004-.221-.036-.14-.034-.276-.11-.35.035a3.698 3.698 0 0 1-.563-.927c-.033-.083-.136-.094-.178-.016-.263.485-.857 1.951-.068 4.19-.132.138-.226.134-.379.044-.136-.048-.264-.138-.35 0a3.762 3.762 0 0 1-.479-.982c-.026-.085-.127-.107-.176-.034-.307.461-1.04 1.878-.427 4.223.005.014.006.024.008.034-.219.184-.229.248-.347.258-.114.032-.276-.112-.418-.13-.07-.01-.114.015-.149.07a3.763 3.763 0 0 1-.479-.98c-.026-.086-.127-.108-.176-.034-.307.46-1.04 1.877-.427 4.222.01.031.008.046.019.077 0 0 .067.024.176.053l.013.002c.526.174 2.008.443 3.103-1.11 0 0 1.195-1.21.652-1.357-.11-.014-.872.141-1.058.177.058-.485-.236-.396-.465-.451-.066-.263-.044-.404-.028-.64.642.152 1.915.21 2.887-1.17 0 0 1.195-1.21.652-1.356-.11-.015-.872.141-1.058.177.014-.118.016-.253-.058-.338-.098-.118-.27-.08-.407-.113a1.324 1.324 0 0 1-.039-.429c.682.057 1.844-.09 2.637-1.468 0 0 1.083-1.326.53-1.416-.112-.003-.856.23-1.039.283.015-.489-.27-.37-.503-.401-.052-.15-.07-.27-.076-.38.684-.083 1.779-.463 2.32-1.947z" opacity="1" data-original="#c0622c" class=""></path><path fill="#fffb7d" d="M51.506 30.036c-.662 1.812-2.158 1.986-2.709 1.972l-.013.002c-.112.003-.183 0-.183 0-1.352-2.06-.832-4.765-.52-4.269.243.388.676.802.967 1.031l1.727.271c.103-.055.899-.48 1.014-.5.56-.017-.283 1.493-.283 1.493z" opacity="1" data-original="#fffb7d" class=""></path><path fill="#f5d451" d="M50.729 29.412c-.061.07-.155.101-.234.144-.347.209-.404.96-.974 1.79-.17.248-.435.573-.724.662l-.013.002c-.112.003-.183 0-.183 0-.018-.027-.02-.042-.038-.069.023-.034.033-.066.056-.1l.188-.272c.023-.034.044-.083.068-.116.132-.437.094-.994.133-1.86.007-.413-.12-.366-.237-.594-.06-.125-.075-.334.02-.455.09-.296.561.129.72-.285.057-.1.129-.187.185-.287.078-.178.233-.156.303-.05.117.213.038.418.253.801.14-.008.296-.094.421-.01.152.098.218.55.056.7z" opacity="1" data-original="#f5d451" class=""></path><path fill="#f1ba2d" d="M50.274 33.897c-.954 1.657-2.453 1.54-2.993 1.42h-.013c-.111-.018-.18-.035-.18-.035-.533-1.239-.643-3.084.026-4.32.042-.078.145-.066.179.016.174.428.53.92.778 1.202l1.652.599c.1-.031.963-.3 1.08-.297.554.09-.53 1.415-.53 1.415z" opacity="1" data-original="#f1ba2d" class=""></path><path fill="#e2a723" d="M49.615 33.133c-.072.058-.17.07-.254.097-.225.083-.358.333-.489.538-.303.525-.99 1.486-1.59 1.55l-.014-.001c-.111-.018-.18-.035-.18-.035-.013-.03-.013-.045-.026-.075.029-.03.044-.059.072-.088l.23-.232c.029-.029.058-.073.086-.102.2-.396.254-.933.444-1.805.076-.41-.053-.373-.134-.63-.038-.135-.018-.343.096-.445.073-.145.216-.067.35-.034.184.086.321.033.406-.108.072-.087.158-.16.23-.247.106-.159.254-.11.306.009.079.233-.033.42.114.838.138.019.307-.036.415.071.134.127.123.583-.062.7z" opacity="1" data-original="#e2a723"></path><path fill="#fffb7d" d="M48.547 37.425c-1.096 1.553-2.577 1.284-3.103 1.11l-.014-.001a2.632 2.632 0 0 1-.176-.053c-.418-1.284-.369-3.134.408-4.3.05-.073.15-.051.177.034.135.444.446.97.668 1.276l1.59.764c.108-.022.985-.202 1.101-.187.543.147-.651 1.357-.651 1.357z" opacity="1" data-original="#fffb7d" class=""></path><path fill="#f5d451" d="M47.959 36.597c-.076.05-.175.052-.261.07-.387.1-.628.805-1.39 1.44-.23.192-.565.428-.864.428l-.014-.001a2.632 2.632 0 0 1-.176-.053c-.01-.032-.008-.047-.018-.078.03-.026.048-.054.08-.08l.248-.207c.031-.026.064-.067.095-.093.237-.38.347-.941.6-1.754.025-.086.05-.173.046-.264-.011-.137-.096-.253-.123-.376-.026-.139.013-.344.136-.433.034-.056.08-.08.148-.07.187.024.417.277.616.005.08-.08.171-.143.25-.223.12-.148.264-.083.304.04.058.24-.07.414.04.846.136.033.309-.005.407.113.12.139.07.593-.124.69z" opacity="1" data-original="#f5d451" class=""></path><path fill="#f1ba2d" d="M46.558 40.865c-1.095 1.553-2.576 1.284-3.102 1.11l-.014-.001c-.109-.03-.176-.053-.176-.053-.01-.032-.008-.046-.019-.078-.613-2.345.12-3.761.427-4.222.05-.073.15-.051.177.034.135.444.446.97.667 1.276l1.591.764c.108-.022.985-.202 1.101-.187.543.147-.652 1.357-.652 1.357z" opacity="1" data-original="#f1ba2d" class=""></path><path fill="#e2a723" d="M45.97 40.037c-.076.05-.174.052-.26.071-.387.1-.629.804-1.39 1.44a2.598 2.598 0 0 1-.533.35.83.83 0 0 1-.331.078l-.014-.002c-.109-.03-.176-.053-.176-.053-.01-.032-.008-.046-.019-.078.031-.026.049-.054.08-.08l.249-.207c.03-.026.064-.067.095-.093.034-.056.07-.111.09-.168.207-.463.247-.745.51-1.586.114-.402-.018-.37-.077-.64-.026-.139.013-.344.135-.433.086-.138.22-.046.35 0 .176.104.318.068.415-.065.08-.08.17-.143.25-.223.12-.148.264-.083.304.04.058.24-.07.414.04.846.136.033.308-.005.406.113.121.139.07.593-.124.69z" opacity="1" data-original="#e2a723"></path><path fill="#c0622c" d="M13.763 29.378s-.844-1.51-.283-1.493c.11.018.804.39.974.478.068-.484.33-.312.563-.298.213-.38.13-.578.253-.802.07-.105.223-.13.302.05.057.1.13.188.185.287.166.431.628-.022.72.286.294-.253.53-.515.711-.803.047-.075.15-.066.179.019.176.523.506 2.057-.61 4.08.03.022.053.06.085.067.159.062.46-.224.57-.002.247-.305.435-.608.564-.927.034-.082.137-.094.179-.016.263.485.857 1.951.068 4.19.23.24.355.002.58-.027.069-.01.114.015.148.07.218-.328.378-.65.479-.98.026-.086.127-.108.176-.034.307.46 1.041 1.877.427 4.222l-.008.034c.051.043.102.086.15.133.256.35.604-.192.764.066.218-.33.378-.65.48-.981.174-.575 1.359 1.888.584 4.265 0 0-.068.024-.176.053l-.014.002c-.526.174-2.007.443-3.103-1.11 0 0-1.194-1.21-.651-1.357.11-.014.871.141 1.058.177-.058-.485.235-.396.464-.451.067-.263.044-.404.029-.64-.643.152-1.916.21-2.888-1.17 0 0-1.195-1.21-.652-1.356.11-.014.872.141 1.058.177-.014-.118-.016-.253.058-.338.098-.118.27-.08.407-.113.045-.176.046-.308.04-.429-.683.057-1.845-.09-2.638-1.468 0 0-1.083-1.325-.529-1.416.111-.003.856.23 1.038.284-.014-.49.27-.37.503-.402.053-.15.07-.27.076-.38-.684-.083-1.778-.463-2.32-1.947z" opacity="1" data-original="#c0622c" class=""></path><path fill="#fffb7d" d="M14.435 29.167c.661 1.812 2.157 1.985 2.708 1.97l.014.003c.112.004.183 0 .183 0 1.352-2.059.831-4.765.52-4.269-.244.388-.677.803-.968 1.032l-1.727.27c-.102-.054-.898-.48-1.014-.5-.56-.017.284 1.494.284 1.494z" opacity="1" data-original="#fffb7d" class=""></path><path fill="#f5d451" d="M15.212 28.542c.06.07.155.101.233.145.208.125.297.395.392.622.21.573.725 1.651 1.306 1.829l.014.002c.112.004.183 0 .183 0 .017-.027.02-.042.037-.069-.023-.034-.033-.065-.056-.1l-.187-.272c-.023-.034-.045-.082-.068-.116-.13-.429-.093-.969-.134-1.86-.006-.413.12-.366.238-.593.06-.126.075-.334-.02-.456-.09-.296-.562.129-.72-.285-.057-.1-.13-.187-.186-.287-.078-.177-.233-.156-.303-.05-.117.213-.038.418-.253.801-.14-.008-.296-.094-.42-.01-.152.099-.219.55-.056.7z" opacity="1" data-original="#f5d451" class=""></path><path fill="#f1ba2d" d="M15.667 33.027c.954 1.657 2.453 1.54 2.992 1.42h.014c.11-.018.18-.035.18-.035.983-2.288.018-4.852-.205-4.304-.174.428-.53.92-.778 1.202l-1.652.599c-.1-.031-.963-.3-1.08-.297-.554.09.529 1.415.529 1.415z" opacity="1" data-original="#f1ba2d" class=""></path><path fill="#e2a723" d="M16.176 31.895c.011.375.178.392.403.465.377.14.556.865 1.258 1.574.21.213.524.482.822.513h.014c.11-.018.18-.035.18-.035.013-.03.012-.045.025-.075-.028-.03-.043-.059-.072-.088l-.23-.232c-.028-.029-.057-.072-.086-.101-.197-.392-.282-1.066-.443-1.806-.077-.41.053-.373.134-.63.038-.135.018-.343-.097-.444-.154-.307-.51.267-.755-.143-.073-.087-.158-.16-.23-.247-.106-.159-.255-.11-.306.01-.08.232.032.419-.114.837-.139.019-.308-.036-.416.072-.08.076-.09.21-.087.33z" opacity="1" data-original="#e2a723"></path><path fill="#fffb7d" d="M17.394 36.555c1.095 1.554 2.577 1.285 3.102 1.11l.014-.001a2.63 2.63 0 0 0 .176-.053c.778-2.383-.411-4.834-.584-4.266-.136.444-.446.97-.668 1.276l-1.59.764c-.108-.022-.986-.202-1.102-.186-.543.146.652 1.356.652 1.356z" opacity="1" data-original="#fffb7d" class=""></path><path fill="#f5d451" d="M17.982 35.727c.076.05.174.052.26.071.232.06.386.295.535.486.349.493 1.117 1.38 1.72 1.382l.013-.002a2.63 2.63 0 0 0 .176-.053c.01-.032.009-.046.019-.078-.031-.026-.048-.054-.08-.08l-.248-.207c-.032-.026-.065-.067-.096-.093-.233-.375-.335-.904-.6-1.753-.113-.403.018-.37.077-.641.026-.139-.012-.344-.135-.433-.161-.259-.506.288-.765-.065-.08-.08-.17-.143-.25-.223-.12-.148-.263-.083-.304.04-.058.24.07.414-.04.846-.135.033-.308-.004-.406.114-.121.138-.07.592.124.69z" opacity="1" data-original="#f5d451" class=""></path><path fill="#f1ba2d" d="M19.382 39.995c1.096 1.554 2.577 1.285 3.103 1.11l.013-.001c.109-.03.176-.053.176-.053.778-2.383-.411-4.834-.584-4.266-.136.445-.446.97-.668 1.276l-1.59.764c-.108-.022-.986-.202-1.102-.186-.543.146.652 1.356.652 1.356z" opacity="1" data-original="#f1ba2d" class=""></path><path fill="#e2a723" d="M19.97 39.167c.076.05.174.052.26.071.232.06.386.295.535.486.349.493 1.117 1.38 1.72 1.382l.013-.002c.109-.03.176-.053.176-.053.01-.032.009-.046.02-.078-.032-.026-.05-.053-.08-.08l-.25-.207c-.03-.026-.063-.067-.094-.093-.24-.385-.317-.845-.601-1.753-.113-.403.018-.37.078-.641.025-.139-.013-.344-.136-.433-.16-.258-.503.292-.764-.065-.08-.08-.171-.143-.251-.223-.12-.148-.263-.083-.304.04-.058.24.07.415-.039.846-.136.033-.309-.004-.407.114-.12.138-.07.592.124.69z" opacity="1" data-original="#e2a723"></path></g></svg>
