<svg id="Calque_2" data-name="Calque 2" xmlns="http://www.w3.org/2000/svg" viewBox="0 0 14.99 7">
  <defs>
    <style>
      .cls-1 {
        fill: #000;
        stroke-width: 0px;
      }
    </style>
  </defs>
  <g id="uiLtk8">
    <g>
      <path class="cls-1" d="M2.62,0s.07,0,.11.01c.11.01.21.02.32.04.15.03.3.05.44.12.03.01.06.03.08.06.05.05.06.11.04.17-.06.23-.21.39-.38.55-.21.2-.45.35-.68.51-.27.18-.55.37-.8.58-.12.1-.23.21-.33.33-.13.16-.26.32-.36.49-.11.18-.19.37-.26.58-.08.26-.11.52-.1.78,0,.03,0,.06-.04.08-.16.12-.3.26-.44.41-.03.03-.06.05-.08.08-.04.05-.1.08-.11.15h-.01c0-.08.02-.16.03-.24.01-.09.03-.18.05-.27.02-.07.03-.15.05-.22.02-.07.04-.15.07-.22.04-.11.07-.21.11-.32.05-.13.1-.25.16-.38.09-.2.18-.39.29-.58.1-.17.22-.34.34-.5.13-.17.28-.32.44-.47.24-.23.52-.42.8-.6.15-.1.3-.18.46-.27,0,0,.01,0,.02-.01.05-.04.05-.07-.01-.09-.08-.03-.17-.05-.25-.08-.07-.02-.14-.04-.21-.06-.08-.02-.17-.04-.25-.05-.04,0-.08-.02-.12-.02-.24,0-.45.08-.64.21-.11.07-.21.16-.3.26-.03.03-.07.06-.11.09-.03.02-.06.02-.09,0-.03-.02-.02-.05-.02-.08.01-.07.06-.12.1-.18.08-.12.18-.22.27-.33.17-.19.37-.36.61-.45.12-.05.24-.08.36-.09.01,0,.02,0,.03,0h.42Z"/>
      <path class="cls-1" d="M1.42,7s.03-.03.04-.04c.36-.26.71-.54,1.05-.83.05-.04.11-.08.17-.09.12-.01.22.11.17.22-.12.25-.27.48-.49.65-.03.02-.07.03-.11.04-.06.01-.11.02-.18.03,0-.02.02-.03.03-.04.19-.15.35-.32.46-.54.02-.03.04-.06,0-.08-.03-.02-.06,0-.09.02-.12.1-.24.2-.34.33-.1.12-.22.23-.34.34h-.39Z"/>
      <path class="cls-1" d="M0,5.06s.06,0,.08-.02c.07-.06.12-.12.18-.19.13-.14.25-.29.39-.41.02-.01.03-.04.05-.03.02,0,0,.04.01.06,0,.04.01.07.02.11.01.03,0,.05-.03.06-.12.08-.22.17-.32.26-.12.11-.23.23-.34.35-.01.02-.03.04-.05.05v-.23Z"/>
      <path class="cls-1" d="M5.9,2.97c0-.3,0-.61,0-.91,0-.18-.02-.35-.1-.51-.03-.07-.07-.14-.14-.2,0,0-.02-.01-.01-.02,0-.01.02,0,.02,0,0,0,.01,0,.02,0,.47,0,.95,0,1.42,0,.28,0,.55.07.8.21.37.2.6.52.7.92.1.39.09.78-.03,1.17-.13.43-.42.73-.84.88-.21.08-.43.12-.65.12-.56,0-1.13,0-1.7,0-.04,0-.05,0-.02-.04.04-.07.08-.14.11-.21.02-.03.03-.03.05,0,.04.06.09.13.14.18.02.02.03.02.05,0,.09-.11.14-.24.16-.38.02-.1.02-.2.02-.31,0-.29,0-.58,0-.88ZM6.55,2.96c0,.08,0,.16,0,.24,0,.3,0,.59,0,.89,0,.04.01.05.05.05.16,0,.32,0,.48,0,.41-.03.69-.25.81-.64.06-.21.07-.42.07-.63,0-.14-.02-.28-.06-.42-.04-.16-.12-.3-.24-.42-.16-.14-.35-.2-.55-.22-.17-.01-.33,0-.5,0-.05,0-.05,0-.05.05,0,.37,0,.74,0,1.12Z"/>
      <path class="cls-1" d="M12.33,2.9c0,.35,0,.69,0,1.04,0,.16.03.32.1.47.03.06.06.12.11.16,0,0,.02.01.02.03,0,.01-.02,0-.03,0-.01,0-.02,0-.03,0-.34,0-.67,0-1.01,0,0,0-.02,0-.02,0-.01,0-.03,0-.04-.01,0-.01.01-.02.02-.03.12-.11.17-.26.2-.41.02-.1.02-.2.02-.3,0-.61,0-1.21,0-1.82,0-.13,0-.25-.05-.38-.04-.12-.09-.23-.19-.32,0,0-.02-.01-.01-.02,0,0,.01,0,.02,0,0,0,.01,0,.02,0,.46,0,.91,0,1.37,0,.22,0,.43.04.63.14.3.15.46.4.5.73.02.18,0,.35-.05.52-.09.26-.27.43-.53.53-.05.02-.05.02-.02.06.14.23.29.47.43.7.11.17.24.32.41.43.05.03.1.05.15.08.01,0,.03,0,.03.02,0,.02-.02.01-.03.02-.17.03-.35.06-.52.09-.13.02-.26.05-.38.07-.02,0-.04,0-.04-.02-.09-.28-.25-.53-.4-.78-.18-.31-.36-.62-.55-.93-.03-.05-.03-.05.03-.05.13,0,.26,0,.39-.02.25-.04.4-.22.42-.47,0-.09,0-.17-.01-.26-.05-.21-.2-.33-.41-.38-.06-.01-.11-.02-.17-.02-.11,0-.21,0-.32,0-.03,0-.04,0-.04.04,0,.01,0,.02,0,.03,0,.35,0,.69,0,1.04Z"/>
      <path class="cls-1" d="M4.03,1.31c.19,0,.39,0,.58,0,.01,0,.03,0,.04,0,0,.01,0,.02-.02.03-.1.12-.12.26-.09.41.03.16.1.31.16.47.18.51.36,1.02.54,1.52,0,.03.01.05,0,.07-.14.17-.29.33-.46.47,0,0-.02.01-.02.02-.02.01-.03.01-.03-.01-.01-.12-.05-.23-.09-.34-.01-.03-.03-.05-.07-.05-.37,0-.74,0-1.12,0-.04,0-.06.01-.07.05-.06.16-.11.31-.09.48,0,.05.01.09.04.13,0,.01.03.02.02.04,0,.02-.03,0-.05,0-.26,0-.53,0-.79,0-.04,0-.08,0-.12,0,0,0-.02,0-.03,0,0-.01,0-.02.01-.02.22-.23.35-.5.46-.8.22-.63.44-1.26.65-1.89.04-.12.06-.25.03-.38-.02-.06-.04-.12-.08-.16,0,0-.02-.02-.02-.03,0-.01.02,0,.03,0,.2,0,.4,0,.59,0ZM4.01,1.96s0,0,0,0c0,0,0,.01,0,.02-.03.23-.09.46-.17.69-.08.24-.17.49-.25.73-.01.03,0,.04.03.04.27,0,.54,0,.81,0,.04,0,.04-.01.03-.04-.05-.13-.1-.27-.14-.4-.09-.27-.2-.54-.25-.82-.01-.07-.03-.14-.04-.21Z"/>
      <path class="cls-1" d="M9.77,1.31c.27,0,.54,0,.81,0,.15,0,.3,0,.45-.04.03,0,.04,0,.04.03.02.25.05.51.07.76,0,.02.01.05,0,.05-.02,0-.03-.02-.03-.04-.1-.16-.25-.23-.42-.27-.08-.02-.16-.03-.24-.03-.21,0-.41,0-.62,0-.04,0-.05.01-.05.05,0,.24,0,.49,0,.73,0,.04.01.05.05.05.26,0,.51,0,.77,0,.08,0,.15-.01.23-.02.05,0,.06,0,.05.05-.04.23-.08.46-.12.7,0,.02,0,.04-.02.05-.02,0-.02-.03-.03-.04-.07-.14-.19-.21-.34-.24-.04,0-.09,0-.13,0-.14,0-.27,0-.41,0-.04,0-.05.01-.05.05,0,.09,0,.18,0,.27,0,.23,0,.46,0,.69,0,.04.01.05.05.05.19,0,.38,0,.57,0,.29-.02.56-.12.76-.34.02-.03.05-.05.07-.08,0,0,.01-.02.02-.01.01,0,0,.02,0,.03-.01.09-.02.17-.04.26-.03.2-.06.41-.09.61,0,.03-.01.05-.05.04-.21-.03-.41-.03-.62-.03-.51,0-1.02,0-1.53,0-.02,0-.04,0-.05,0,0-.02.02-.03.03-.04.09-.09.13-.19.17-.31.04-.12.05-.25.05-.37,0-.62,0-1.24,0-1.85,0-.18-.02-.36-.11-.52-.03-.06-.07-.12-.12-.16,0,0-.03-.01-.02-.03,0-.01.02,0,.03,0,.09,0,.19,0,.28,0,.2,0,.39,0,.59,0Z"/>
      <path class="cls-1" d="M5.76,3.56s-.03.09-.05.14c-.09.19-.18.37-.28.55-.13.22-.27.42-.42.62-.06.08-.13.16-.19.25-.02.02-.03.03-.04,0-.06-.13-.12-.25-.2-.36-.02-.03-.02-.05,0-.07.12-.1.24-.2.35-.32.14-.15.28-.3.41-.46.09-.12.19-.24.28-.36.02-.03.04-.06.08-.06.05,0,.08.02.08.07Z"/>
      <path class="cls-1" d="M2.76,6.78s.04-.06.07-.08c.11-.12.18-.27.22-.43.05-.21-.09-.37-.3-.36-.09,0-.17.02-.26.05-.15.06-.27.15-.39.26-.27.25-.54.49-.83.71-.04.03-.07.04-.12.03-.03-.01-.07-.02-.1-.03-.03,0-.03-.02,0-.04.1-.07.19-.14.28-.22.28-.22.54-.45.83-.66.18-.14.39-.21.62-.2.06,0,.12.01.18.03.12.03.18.11.21.22.04.17.01.32-.04.48-.03.08-.08.13-.15.16-.07.03-.14.06-.21.1,0,0,0,0,0,0Z"/>
      <path class="cls-1" d="M1.91,5.61c-.06.05-.11.09-.17.13-.15.11-.27.25-.41.38-.21.2-.44.37-.7.51-.04.02-.06.02-.09-.01-.03-.04-.07-.07-.1-.1-.03-.03-.02-.04.01-.05.06-.02.12-.05.18-.08.13-.06.24-.16.35-.25.22-.18.44-.37.66-.55.03-.02.06-.04.1-.02.06.02.12.02.18.05Z"/>
      <path class="cls-1" d="M1.49,5.48s-.01.02-.02.02c-.23.16-.45.34-.67.51-.15.12-.29.24-.43.37-.02.02-.03.02-.04,0-.08-.13-.09-.08,0-.19.26-.3.55-.56.87-.8.06-.04.06-.04.12,0,.04.03.09.05.14.08.01,0,.02,0,.03.02Z"/>
      <path class="cls-1" d="M2.43,5.63s-.01.02-.02.02c-.22.09-.41.23-.59.39-.15.13-.29.28-.45.41-.16.13-.33.24-.5.35-.01,0-.03.01-.05,0-.03-.02-.06-.03-.09-.05-.02-.01-.02-.03,0-.04.09-.07.17-.14.27-.2.23-.13.43-.3.62-.49.12-.12.25-.23.4-.33.09-.05.18-.09.28-.08.04,0,.08,0,.13,0Z"/>
      <path class="cls-1" d="M3.65,6.09s0,.05,0,.07c0,.08-.04.15-.11.19-.04.02-.08.05-.12.08,0,0-.02.02-.03.01-.01,0,0-.02,0-.03.03-.11.03-.22.01-.33-.03-.17-.13-.28-.26-.37-.08-.05-.16-.08-.25-.1-.01,0-.03,0-.03-.02,0-.02.02-.01.03-.02.09-.01.18-.04.27-.07.04-.01.07-.01.11,0,.15.05.25.14.31.28.04.1.07.2.07.31Z"/>
      <path class="cls-1" d="M.09,5.88s.01-.04.02-.05c.12-.15.26-.27.41-.39.14-.11.27-.23.41-.34.05-.04.05-.04.09,0,.02.02.04.05.06.07.02.02.02.04,0,.05-.06.04-.12.08-.17.13-.21.18-.42.35-.61.56-.04.04-.07.09-.1.13-.02.02-.03.03-.04,0-.02-.05-.03-.1-.06-.15,0,0,0-.01,0-.01Z"/>
      <path class="cls-1" d="M3.82,6.02c0-.25-.11-.44-.3-.59-.05-.04-.05-.04,0-.07.05-.02.09-.04.14-.07.03-.01.05-.01.07,0,.16.16.27.34.33.55,0,.03,0,.06-.02.08-.06.05-.12.11-.19.16,0,0-.02.02-.03.01-.01,0,0-.02,0-.03,0-.02,0-.04,0-.07Z"/>
      <path class="cls-1" d="M.03,5.57s0-.05.02-.07c.2-.24.42-.47.67-.66.02-.02.04-.03.06-.05.01-.01.02,0,.03,0,.02.03.03.07.05.1.01.02,0,.04-.02.05-.16.11-.31.25-.44.39-.11.12-.21.24-.31.37,0,0-.01.02-.02.03-.01.01-.02.01-.03,0,0-.05-.03-.11-.02-.15Z"/>
      <path class="cls-1" d="M4.39,5.56s0,.03-.01.04c-.05.06-.1.11-.16.16-.02.02-.03.02-.04-.01-.05-.21-.15-.39-.3-.54-.02-.02-.02-.03,0-.04.05-.03.09-.05.14-.08.02-.01.04-.02.06,0,.13.13.23.26.29.43,0,.01,0,.03.01.04Z"/>
      <path class="cls-1" d="M4.38,4.85s.03.02.04.03c.06.07.12.15.18.23.03.04.06.08.09.12.01.02.02.03,0,.05-.05.05-.1.11-.14.16-.02.02-.03.02-.04,0-.06-.16-.15-.3-.27-.43-.01-.01-.02-.03,0-.04.05-.04.09-.07.14-.1,0,0,0,0,.01,0Z"/>
    </g>
  </g>
  <g>
    <path class="cls-1" d="M5.32,5.92s.04.05.07.06c.03.01.06.02.09.02.02,0,.03,0,.05,0,.02,0,.03-.01.05-.02.01-.01.03-.02.04-.04,0-.02.01-.03.01-.05,0-.03,0-.05-.03-.07-.02-.02-.04-.03-.07-.04s-.06-.02-.09-.03c-.03,0-.06-.02-.09-.04s-.05-.04-.07-.07c-.02-.03-.03-.07-.03-.12,0-.02,0-.05.01-.07s.02-.05.05-.07c.02-.02.05-.04.08-.05.03-.01.07-.02.12-.02.04,0,.08,0,.12.02.04.01.07.03.1.07l-.08.08s-.03-.04-.05-.05c-.02-.01-.05-.02-.08-.02s-.05,0-.07.01c-.02,0-.03.02-.05.03-.01.01-.02.02-.02.04,0,.01,0,.03,0,.04,0,.03,0,.06.03.07.02.02.04.03.07.04.03.01.06.02.09.03.03,0,.06.02.09.04s.05.04.07.06c.02.03.03.06.03.11,0,.04,0,.07-.02.1s-.03.05-.06.07c-.02.02-.05.04-.08.05-.03.01-.07.02-.1.02-.05,0-.09,0-.14-.03s-.08-.04-.1-.08l.08-.07Z"/>
    <path class="cls-1" d="M5.79,5.57h.11l.15.39h0l.14-.39h.1l-.24.61s-.02.04-.03.06c0,.02-.02.03-.03.05s-.03.02-.05.03c-.02,0-.04.01-.07.01-.01,0-.03,0-.04,0s-.03,0-.04-.01v-.09s.05.01.07.01c.01,0,.03,0,.04,0,.01,0,.02,0,.03-.02,0,0,.01-.02.02-.03,0,0,0-.02.01-.03l.03-.08-.21-.51Z"/>
    <path class="cls-1" d="M6.62,5.7s-.03-.03-.04-.04c-.02,0-.04-.01-.06-.01-.02,0-.04,0-.06.01-.02,0-.02.02-.02.04,0,.01,0,.03.01.04,0,0,.02.02.03.02.01,0,.03,0,.04.01.01,0,.03,0,.04,0,.02,0,.04.01.06.02.02,0,.03.02.05.03.01.01.02.03.03.04,0,.02.01.04.01.06,0,.03,0,.05-.02.07s-.03.04-.05.05c-.02.01-.04.02-.07.03-.02,0-.05,0-.07,0-.04,0-.08,0-.11-.02-.03-.01-.06-.04-.08-.07l.07-.06s.03.03.05.04c.02.01.04.02.07.02.01,0,.02,0,.04,0s.02,0,.03-.01c0,0,.02-.01.02-.02,0,0,0-.02,0-.03,0-.01,0-.03-.01-.04,0,0-.02-.02-.03-.02-.01,0-.03,0-.04-.01-.01,0-.03,0-.04,0-.02,0-.04-.01-.06-.02-.02,0-.03-.01-.05-.03-.01-.01-.03-.02-.03-.04,0-.02-.01-.04-.01-.06,0-.03,0-.05.02-.07.01-.02.03-.04.04-.05.02-.01.04-.02.06-.03.02,0,.05,0,.07,0,.03,0,.07,0,.1.02.03.01.06.03.07.06l-.07.06Z"/>
    <path class="cls-1" d="M7.07,5.65h-.14v.23s0,.03,0,.04c0,.01,0,.03,0,.04,0,.01.01.02.02.03,0,0,.02.01.04.01.01,0,.02,0,.04,0,.01,0,.02,0,.03-.01v.09s-.03.01-.04.01c-.02,0-.03,0-.04,0-.04,0-.07,0-.09-.02-.02-.01-.04-.02-.04-.04s-.02-.03-.02-.05,0-.04,0-.06v-.26h-.11v-.08h.11v-.14h.1v.14h.14v.08Z"/>
    <path class="cls-1" d="M7.25,5.86s0,.04.01.06c0,.02.02.03.04.05.02.01.03.02.05.03.02,0,.04.01.06.01.03,0,.06,0,.08-.02.02-.01.04-.03.06-.05l.07.06c-.05.07-.13.1-.22.1-.04,0-.08,0-.11-.02-.03-.01-.06-.03-.08-.06-.02-.02-.04-.05-.05-.08s-.02-.07-.02-.1,0-.07.02-.1c.01-.03.03-.06.05-.08.02-.02.05-.04.08-.06.03-.01.07-.02.1-.02.04,0,.08,0,.11.02.03.02.06.04.08.06s.03.05.04.09c0,.03.01.06.01.1v.03h-.4ZM7.47,5.47h-.09l-.16-.15h.14l.11.15ZM7.55,5.78s0-.04-.01-.06c0-.02-.02-.03-.03-.05-.01-.01-.03-.02-.05-.03s-.04-.01-.06-.01-.04,0-.06.01c-.02,0-.04.02-.05.03-.01.01-.02.03-.03.05,0,.02-.01.03-.01.05h.3Z"/>
    <path class="cls-1" d="M7.74,5.57h.09v.08h0s0-.02.02-.03c0-.01.02-.02.03-.03s.03-.02.05-.02.04-.01.06-.01c.04,0,.07,0,.09.02.03.02.05.04.06.07.02-.03.04-.05.07-.07.03-.02.06-.02.09-.02.04,0,.07,0,.1.02.02.01.04.03.06.05.01.02.02.04.03.07,0,.03,0,.05,0,.08v.29h-.1v-.28s0-.04,0-.06,0-.03-.02-.05c0-.01-.02-.02-.03-.03-.01,0-.03-.01-.06-.01-.05,0-.08.01-.1.04-.02.03-.03.06-.03.11v.28h-.1v-.26s0-.05,0-.07c0-.02,0-.04-.01-.05,0-.01-.02-.03-.03-.03-.01,0-.03-.01-.06-.01-.02,0-.03,0-.05.01-.02,0-.03.02-.04.03-.01.01-.02.03-.03.05,0,.02-.01.05-.01.07v.26h-.1v-.5Z"/>
    <path class="cls-1" d="M8.7,5.86s0,.04.01.06c0,.02.02.03.04.05.02.01.03.02.05.03.02,0,.04.01.06.01.03,0,.06,0,.08-.02.02-.01.04-.03.06-.05l.07.06c-.05.07-.13.1-.22.1-.04,0-.08,0-.11-.02-.03-.01-.06-.03-.08-.06-.02-.02-.04-.05-.05-.08-.01-.03-.02-.07-.02-.1s0-.07.02-.1.03-.06.05-.08.05-.04.08-.06c.03-.01.07-.02.1-.02.04,0,.08,0,.11.02.03.02.06.04.08.06.02.03.03.05.04.09,0,.03.01.06.01.1v.03h-.4ZM9,5.78s0-.04-.01-.06c0-.02-.02-.03-.03-.05-.01-.01-.03-.02-.05-.03-.02,0-.04-.01-.06-.01s-.04,0-.06.01c-.02,0-.04.02-.05.03-.01.01-.02.03-.03.05,0,.02-.01.03-.01.05h.3Z"/>
    <path class="cls-1" d="M9.98,6.07h-.1v-.07h0s-.04.05-.08.06-.07.02-.1.02c-.04,0-.07,0-.11-.02-.03-.01-.06-.03-.08-.06-.02-.02-.04-.05-.05-.08-.01-.03-.02-.07-.02-.1s0-.07.02-.1.03-.06.05-.08.05-.04.08-.06c.03-.01.07-.02.11-.02.04,0,.07,0,.1.02.03.02.06.04.07.06h0v-.37h.1v.8ZM9.71,6s.05,0,.07-.01c.02,0,.04-.02.05-.04.01-.02.03-.03.03-.06,0-.02.01-.05.01-.07s0-.05-.01-.07c0-.02-.02-.04-.03-.06-.01-.02-.03-.03-.05-.04-.02,0-.04-.01-.07-.01s-.05,0-.07.01c-.02,0-.04.02-.05.04s-.03.03-.03.06c0,.02-.01.05-.01.07s0,.05.01.07c0,.02.02.04.03.06s.03.03.05.04c.02,0,.04.01.07.01Z"/>
    <path class="cls-1" d="M10.17,5.86s0,.04.01.06c0,.02.02.03.04.05s.03.02.05.03c.02,0,.04.01.06.01.03,0,.06,0,.08-.02.02-.01.04-.03.06-.05l.07.06c-.05.07-.13.1-.22.1-.04,0-.08,0-.11-.02-.03-.01-.06-.03-.08-.06-.02-.02-.04-.05-.05-.08-.01-.03-.02-.07-.02-.1s0-.07.02-.1.03-.06.05-.08c.02-.02.05-.04.08-.06.03-.01.07-.02.1-.02.04,0,.08,0,.11.02.03.02.06.04.08.06.02.03.03.05.04.09,0,.03.01.06.01.1v.03h-.4ZM10.47,5.78s0-.04-.01-.06c0-.02-.02-.03-.03-.05-.01-.01-.03-.02-.05-.03s-.04-.01-.06-.01-.04,0-.06.01c-.02,0-.04.02-.05.03-.01.01-.02.03-.03.05,0,.02-.01.03-.01.05h.3Z"/>
    <path class="cls-1" d="M10.94,5.57h.1v.07h0s.04-.05.08-.06c.03-.01.07-.02.1-.02.04,0,.07,0,.11.02.03.01.06.03.08.06.02.02.04.05.05.08.01.03.02.07.02.1s0,.07-.02.1-.03.06-.05.08c-.02.02-.05.04-.08.06-.03.01-.07.02-.11.02-.04,0-.07,0-.1-.02-.03-.02-.06-.04-.07-.06h0v.37h-.1v-.8ZM11.2,5.65s-.05,0-.07.01c-.02,0-.04.02-.05.04-.01.02-.03.03-.03.06,0,.02-.01.05-.01.07s0,.05.01.07c0,.02.02.04.03.06.01.02.03.03.05.04.02,0,.04.01.07.01s.05,0,.07-.01c.02,0,.04-.02.05-.04.01-.02.03-.03.03-.06,0-.02.01-.05.01-.07s0-.05-.01-.07c0-.02-.02-.04-.03-.06-.01-.02-.03-.03-.05-.04-.02,0-.04-.01-.07-.01Z"/>
    <path class="cls-1" d="M11.54,5.82s0-.07.02-.1c.01-.03.03-.06.06-.08s.05-.04.09-.06c.03-.01.07-.02.11-.02s.07,0,.11.02c.03.01.06.03.09.06.02.02.04.05.06.08.01.03.02.07.02.1s0,.07-.02.1c-.01.03-.03.06-.06.08-.02.02-.05.04-.09.06-.03.01-.07.02-.11.02s-.07,0-.11-.02c-.03-.01-.06-.03-.09-.06-.02-.02-.04-.05-.06-.08-.01-.03-.02-.07-.02-.1ZM11.65,5.82s0,.05.01.07c0,.02.02.04.03.06s.03.03.05.04c.02,0,.04.01.07.01s.05,0,.07-.01c.02,0,.04-.02.05-.04.01-.02.03-.03.03-.06,0-.02.01-.05.01-.07s0-.05-.01-.07c0-.02-.02-.04-.03-.06-.01-.02-.03-.03-.05-.04-.02,0-.04-.01-.07-.01s-.05,0-.07.01c-.02,0-.04.02-.05.04s-.03.03-.03.06c0,.02-.01.05-.01.07Z"/>
    <path class="cls-1" d="M12.16,5.39s0-.04.02-.05.03-.02.05-.02.04,0,.05.02c.01.01.02.03.02.05s0,.04-.02.05-.03.02-.05.02-.04,0-.05-.02c-.01-.01-.02-.03-.02-.05ZM12.19,5.57h.1v.5h-.1v-.5Z"/>
    <path class="cls-1" d="M12.41,5.57h.1v.08h0s.03-.05.06-.07c.03-.02.06-.02.1-.02.02,0,.05,0,.07.01.02,0,.04.02.06.03.02.02.03.04.04.06,0,.02.01.05.01.09v.32h-.1v-.3s0-.04,0-.06c0-.02-.01-.03-.03-.04-.01-.01-.02-.02-.04-.02-.01,0-.03,0-.04,0-.02,0-.04,0-.06,0-.02,0-.03.02-.04.03s-.02.03-.03.05c0,.02-.01.05-.01.08v.26h-.1v-.5Z"/>
    <path class="cls-1" d="M13.25,5.65h-.14v.23s0,.03,0,.04,0,.03,0,.04c0,.01.01.02.02.03,0,0,.02.01.04.01.01,0,.02,0,.04,0,.01,0,.02,0,.03-.01v.09s-.03.01-.04.01c-.02,0-.03,0-.04,0-.04,0-.07,0-.09-.02-.02-.01-.04-.02-.04-.04s-.02-.03-.02-.05,0-.04,0-.06v-.26h-.11v-.08h.11v-.14h.1v.14h.14v.08Z"/>
    <path class="cls-1" d="M13.35,5.63s.06-.04.09-.06c.04-.01.07-.02.11-.02s.07,0,.1.01.05.02.07.04c.02.02.03.03.04.05s.01.04.01.06v.26s0,.03,0,.05,0,.03,0,.04h-.09s0-.05,0-.08h0s-.05.06-.08.07c-.03.01-.06.02-.1.02-.02,0-.05,0-.07,0s-.04-.02-.06-.03-.03-.03-.04-.05c0-.02-.01-.04-.01-.07,0-.03,0-.06.02-.08s.03-.04.06-.05c.03-.01.05-.02.09-.03.03,0,.07,0,.11,0h.07v-.02s0-.03,0-.04c0-.01-.01-.02-.02-.03,0-.01-.02-.02-.04-.02-.01,0-.03,0-.05,0-.02,0-.03,0-.05,0-.01,0-.03,0-.04.01-.01,0-.02.01-.03.02s-.02.01-.03.02l-.06-.06ZM13.62,5.83s-.05,0-.07,0c-.02,0-.05,0-.06.01s-.04.02-.05.03c-.01.01-.02.03-.02.05,0,.03,0,.05.03.06s.05.02.08.02c.03,0,.05,0,.07-.01.02,0,.03-.02.04-.03.01-.01.02-.03.02-.05,0-.02,0-.03,0-.05v-.03h-.05Z"/>
    <path class="cls-1" d="M14.39,6.07s0,.07-.02.1c-.01.03-.03.06-.06.08-.02.02-.05.04-.09.05s-.07.02-.11.02c-.05,0-.09,0-.13-.02s-.08-.04-.11-.07l.06-.08s.05.05.08.06c.03.01.06.02.1.02s.06,0,.09-.02c.02-.01.04-.02.06-.04s.02-.03.03-.06c0-.02,0-.04,0-.06v-.07h0s-.04.05-.07.07c-.03.01-.06.02-.1.02-.04,0-.07,0-.1-.02-.03-.01-.06-.03-.08-.05-.02-.02-.04-.05-.05-.08s-.02-.07-.02-.1,0-.07.02-.1c.01-.03.03-.06.05-.08.02-.02.05-.04.08-.06.03-.01.07-.02.11-.02.03,0,.07,0,.1.02.03.01.06.04.08.06h0v-.07h.1v.5ZM14.12,5.65s-.05,0-.07.01c-.02,0-.04.02-.05.04s-.03.03-.03.06c0,.02-.01.05-.01.07,0,.05.01.09.04.12.03.03.07.05.12.05s.09-.02.12-.05c.03-.03.04-.07.04-.12,0-.03,0-.05-.01-.07,0-.02-.02-.04-.03-.06-.01-.02-.03-.03-.05-.04-.02,0-.04-.01-.07-.01Z"/>
    <path class="cls-1" d="M14.58,5.86s0,.04.01.06c0,.02.02.03.04.05.02.01.03.02.05.03.02,0,.04.01.06.01.03,0,.06,0,.08-.02.02-.01.04-.03.06-.05l.07.06c-.05.07-.13.1-.22.1-.04,0-.08,0-.11-.02-.03-.01-.06-.03-.08-.06s-.04-.05-.05-.08-.02-.07-.02-.1,0-.07.02-.1c.01-.03.03-.06.05-.08.02-.02.05-.04.08-.06.03-.01.07-.02.1-.02.04,0,.08,0,.11.02.03.02.06.04.08.06.02.03.03.05.04.09,0,.03.01.06.01.1v.03h-.4ZM14.88,5.78s0-.04-.01-.06c0-.02-.02-.03-.03-.05-.01-.01-.03-.02-.05-.03-.02,0-.04-.01-.06-.01s-.04,0-.06.01c-.02,0-.04.02-.05.03-.01.01-.02.03-.03.05,0,.02-.01.03-.01.05h.3Z"/>
  </g>
</svg>