<svg width="155" height="46" viewBox="0 0 155 46" fill="none" xmlns="http://www.w3.org/2000/svg">
<g clip-path="url(#clip0_799_6358)">
<path d="M56.7507 6.71969V6.89311V15.4341H59.8289V6.89311V6.71969H60.0024H64.7281V4.20508H51.8516V6.71969H56.5773H56.7507Z" fill="#212121"/>
<path d="M69.1521 11.1419V10.9685H69.3255H75.5686H75.7421V11.1419V15.4341H78.8203V4.20508H75.7421V8.28048V8.4539H75.5686H69.3255H69.1521V8.28048V4.20508H66.1172V15.4341H69.1521V11.1419Z" fill="#212121"/>
<path d="M91.8266 12.9195H83.4157H83.2423V12.7461V11.1419V10.9685H83.4157H91.8266V8.54061H83.4157H83.2423V8.36719V6.89311V6.71969H83.4157H91.8266V4.20508H80.1641V15.4341H91.8266V12.9195Z" fill="#212121"/>
<path d="M97.5475 13.7862C98.1545 14.3065 98.9782 14.6967 99.9754 15.0002C100.973 15.3037 102.143 15.4337 103.444 15.4337C105.915 15.4337 107.779 14.9568 108.95 14.003V8.80036H103.27V10.8814H106.175V12.7023H106.088C105.612 12.9625 104.744 13.0925 103.444 13.0925C102.143 13.0925 101.84 13.0058 101.233 12.8324C100.582 12.659 100.105 12.3988 99.7586 12.0954C99.4118 11.7919 99.1516 11.445 99.0216 11.0548C98.8915 10.708 98.8048 10.2744 98.8048 9.84088C98.8048 9.40733 98.8915 9.01713 99.0216 8.62693C99.1516 8.28009 99.4118 7.93325 99.7586 7.58641C100.105 7.28292 100.582 7.02279 101.233 6.84937C101.84 6.67595 102.62 6.58923 103.444 6.58923C104.268 6.58923 104.398 6.63259 104.831 6.67594C105.308 6.7193 105.655 6.80601 105.958 6.89272C106.262 6.97943 106.565 7.06614 106.826 7.15285C107.129 7.23956 107.302 7.32627 107.346 7.36963H107.389C107.389 7.41299 108.82 5.462 108.82 5.462H108.777C108.646 5.33193 108.473 5.24522 108.17 5.11515C107.866 4.98509 107.519 4.85502 107.129 4.72496C106.739 4.59489 106.219 4.46482 105.568 4.37811C104.918 4.2914 104.224 4.24805 103.487 4.24805C102.187 4.24805 101.016 4.37811 100.019 4.6816C99.0216 4.98509 98.1978 5.37529 97.5908 5.89555C96.9839 6.41581 96.507 7.02279 96.2035 7.67312C95.9 8.32345 95.7266 9.06049 95.7266 9.88424C95.7266 10.708 95.9 11.4017 96.2035 12.052C96.4202 12.659 96.8972 13.266 97.5475 13.7862Z" fill="#212121"/>
<path d="M113.631 15.4341L114.585 13.6565V13.5698H120.958V13.6565C121.001 13.6565 121.999 15.4341 121.999 15.4341H125.25L119.094 4.20508H116.492L110.336 15.4341H113.631ZM116.015 11.0552L117.663 8.0637L117.793 7.80357L117.923 8.0637L119.571 11.0552L119.701 11.3154H115.842L116.015 11.0552Z" fill="#212121"/>
<path d="M129.719 9.10423V8.36719L130.022 9.01752L133.231 15.4341H135.268L138.477 9.01752L138.78 8.36719V9.10423V15.4341H141.858V4.20508H137.696L134.401 10.8818L134.271 11.1853L134.098 10.8818L130.803 4.20508H126.641V15.4341H129.719V9.10423Z" fill="#212121"/>
<path d="M143.117 15.4341H154.78V12.9195H146.369H146.195V12.7461V11.1419V10.9685H146.369H154.78V8.54061H146.369H146.195V8.36719V6.89311V6.71969H146.369H154.78V4.20508H143.117V15.4341Z" fill="#212121"/>
<path d="M63.5532 26.6198C63.4231 26.6631 63.2497 26.7498 62.9896 26.8365C62.7295 26.9232 62.4693 27.01 62.1658 27.0967C61.8623 27.1834 61.4722 27.2701 60.9952 27.3134C60.5617 27.3568 60.0848 27.4002 59.6079 27.4002C58.7408 27.4002 58.0037 27.3134 57.3968 27.14C56.7464 26.9666 56.2695 26.7065 55.9227 26.403C55.5758 26.0995 55.3157 25.7526 55.1856 25.3625C55.0556 25.0156 54.9689 24.5821 54.9689 24.1485C54.9689 23.7149 55.0556 23.3248 55.1856 22.9346C55.3157 22.5877 55.5758 22.2409 55.9227 21.894C56.2695 21.5905 56.7464 21.3304 57.3968 21.157C58.0037 20.9836 58.7841 20.8969 59.6079 20.8969C60.4316 20.8969 60.5617 20.9402 60.9952 20.9836C61.4722 21.0269 61.819 21.1136 62.1225 21.2003C62.426 21.2871 62.7295 21.3738 62.9896 21.4605C63.2931 21.5472 63.4665 21.6339 63.5099 21.6772H63.5532C63.5532 21.7206 64.9839 19.7696 64.9839 19.7696H64.9406C64.8105 19.6395 64.6371 19.5528 64.3336 19.4228C64.0301 19.2927 63.6833 19.1626 63.2931 19.0326C62.9029 18.9025 62.3826 18.7724 61.7323 18.6857C61.082 18.599 60.3883 18.5557 59.6512 18.5557C58.3506 18.5557 57.18 18.6857 56.1828 18.9892C55.1856 19.2927 54.3619 19.6829 53.7549 20.2032C53.1479 20.7234 52.671 21.3304 52.3675 21.9807C52.064 22.6311 51.8906 23.3681 51.8906 24.1485C51.8906 24.9289 52.064 25.6659 52.3675 26.3163C52.671 26.9666 53.1479 27.5736 53.7549 28.0938C54.3619 28.6141 55.1856 29.0043 56.1828 29.3078C57.18 29.6113 58.3506 29.7413 59.6512 29.7413C60.9519 29.7413 61.082 29.698 61.7323 29.6113C62.3826 29.5246 62.9029 29.3945 63.2931 29.3078C63.6833 29.1777 64.0301 29.0477 64.377 28.9176C64.7672 28.7442 64.9406 28.6575 64.9839 28.6141C65.0273 28.6141 65.0273 28.5707 65.0706 28.5707L63.5532 26.6198Z" fill="#212121"/>
<path d="M76.6093 22.6305V22.8039H76.4358H70.236H70.0626V22.6305V18.5117H66.9844V29.7407H70.0626V25.4486V25.2751H70.236H76.4358H76.6093V25.4486V29.7407H79.6875V18.5117H76.6093V22.6305Z" fill="#212121"/>
<path d="M87.8361 18.5117L81.6797 29.7407H84.9747L85.9285 27.9632V27.8765H92.3017V27.9632C92.3451 27.9632 93.3423 29.7407 93.3423 29.7407H96.5939L90.4375 18.5117H87.8361ZM90.9577 25.3619L91.0878 25.622H87.2292L87.3592 25.3619L89.0067 22.3703L89.1368 22.1102L89.2669 22.3703" fill="#212121"/>
<path d="M108.388 25.4919V25.9688L108.084 25.622L102.361 18.5117H98.6328V29.7407H101.711V22.7605V22.2836L102.015 22.6738L107.694 29.7407H111.466V18.5117H108.388V25.4919Z" fill="#212121"/>
<path d="M120.966 25.189H123.871V27.01H123.784C123.307 27.2701 122.44 27.4002 121.139 27.4002C119.838 27.4002 119.535 27.3134 118.928 27.14C118.278 26.9666 117.801 26.7065 117.454 26.403C117.107 26.0995 116.847 25.7526 116.717 25.3625C116.587 25.0156 116.5 24.5821 116.5 24.1485C116.5 23.7149 116.587 23.3248 116.717 22.9346C116.847 22.5877 117.107 22.2409 117.454 21.894C117.801 21.5905 118.278 21.3304 118.928 21.157C119.535 20.9836 120.315 20.8969 121.139 20.8969C121.963 20.8969 122.093 20.9402 122.526 20.9836C123.003 21.0269 123.35 21.1136 123.654 21.2003C123.957 21.2871 124.261 21.3738 124.521 21.4605C124.824 21.5472 124.998 21.6339 125.041 21.6772H125.084C125.084 21.7206 126.515 19.7696 126.515 19.7696H126.472C126.342 19.6395 126.168 19.5528 125.865 19.4228C125.561 19.2927 125.215 19.1626 124.824 19.0326C124.434 18.9025 123.914 18.7724 123.264 18.6857C122.613 18.599 121.92 18.5557 121.182 18.5557C119.882 18.5557 118.711 18.6857 117.714 18.9892C116.717 19.2927 115.893 19.6829 115.286 20.2032C114.679 20.7234 114.202 21.3304 113.899 21.9807C113.595 22.6311 113.422 23.3681 113.422 24.1485C113.422 24.9289 113.595 25.6659 113.899 26.3163C114.202 26.9666 114.679 27.5736 115.286 28.0938C115.893 28.6141 116.717 29.0043 117.714 29.3078C118.711 29.6113 119.882 29.7413 121.182 29.7413C123.654 29.7413 125.518 29.2644 126.689 28.3106V23.108H121.009V25.189H120.966Z" fill="#212121"/>
<path d="M128.547 29.7417H140.209V27.2271H131.799H131.625V27.097V25.4495V25.2761H131.799H140.209V22.8482H131.799H131.625V22.6748V21.2007V21.0273H131.799H140.209V18.5127H128.547V29.7417Z" fill="#212121"/>
<path d="M153.082 25.2318C153.255 25.1451 153.472 24.9717 153.645 24.7982C153.819 24.6248 154.036 24.408 154.166 24.1913C154.296 23.9745 154.426 23.7144 154.513 23.4109C154.599 23.1074 154.643 22.7605 154.643 22.4571C154.643 21.7634 154.513 21.1564 154.252 20.6361C153.992 20.1159 153.645 19.7257 153.212 19.4222C152.735 19.1187 152.215 18.9019 151.608 18.7285C151.001 18.5984 150.307 18.5117 149.57 18.5117H142.156V29.7407H145.234V26.1856H149.353V26.2723L151.348 29.7407H154.599L152.345 25.7521L152.258 25.5786L152.431 25.4919C152.648 25.4919 152.865 25.3619 153.082 25.2318ZM151.044 23.5843C150.741 23.8011 150.264 23.9311 149.613 23.9311H145.234V21.0697H149.613C150.264 21.0697 150.741 21.1564 151.044 21.4165C151.391 21.6333 151.521 22.0235 151.521 22.5438C151.521 22.9773 151.391 23.3675 151.044 23.5843Z" fill="#212121"/>
<path d="M57.7471 40.4501L58.0072 41.2305C57.1835 41.6207 56.3164 41.7941 55.4059 41.7941C54.4955 41.7941 53.4983 41.534 52.8913 40.9704C52.241 40.4067 51.9375 39.583 51.9375 38.4991C51.9375 37.4152 52.241 36.5481 52.8913 36.0279C53.5416 35.4642 54.3654 35.2041 55.4059 35.2041C56.4465 35.2041 57.1835 35.3775 58.0072 35.7677L57.7471 36.5481C57.0101 36.2013 56.2297 36.0279 55.3626 36.0279C54.4955 36.0279 53.9752 36.2446 53.4549 36.6348C52.978 37.025 52.7179 37.6754 52.7179 38.4991C52.7179 39.3229 52.978 39.9732 53.4549 40.3634C53.9318 40.7536 54.5822 40.9704 55.3626 40.9704C56.2297 40.9704 57.0101 40.7969 57.7471 40.4501Z" fill="#212121"/>
<path d="M73.0533 35.9839C73.7037 36.5475 74.0072 37.3713 74.0072 38.4552C74.0072 39.539 73.7037 40.4062 73.0533 40.9264C72.403 41.49 71.5793 41.7502 70.5387 41.7502C69.4982 41.7502 68.6311 41.49 68.0241 40.9264C67.3738 40.3628 67.0703 39.539 67.0703 38.4552C67.0703 37.3713 67.3738 36.5042 68.0241 35.9839C68.6745 35.4203 69.4982 35.1602 70.5387 35.1602C71.5793 35.1602 72.403 35.4203 73.0533 35.9839ZM72.403 40.3628C72.8799 39.9726 73.1401 39.3223 73.1401 38.4985C73.1401 37.6748 72.8799 37.0244 72.403 36.6342C71.9261 36.244 71.2758 36.0273 70.4954 36.0273C69.715 36.0273 69.108 36.244 68.5877 36.6342C68.0675 37.0244 67.8507 37.6748 67.8507 38.4985C67.8507 39.3223 68.1108 39.9726 68.5877 40.3628C69.0647 40.753 69.715 40.9698 70.4954 40.9698C71.2758 40.9698 71.9261 40.753 72.403 40.3628Z" fill="#212121"/>
<path d="M91.6504 41.6633H90.7833V36.8075L87.8351 41.6633H86.9246L83.9765 36.8075V41.6633H83.1094V35.29H84.0198L87.4016 40.8829L90.7833 35.29H91.6937V41.6633H91.6504Z" fill="#212121"/>
<path d="M104.531 39.5389H101.539V41.6633H100.672V35.29H104.531C105.224 35.29 105.788 35.4635 106.221 35.8103C106.655 36.1571 106.872 36.6774 106.872 37.3711C106.872 38.0648 106.655 38.6284 106.221 38.9752C105.744 39.3654 105.224 39.5389 104.531 39.5389ZM104.531 36.1138H101.539V38.6718H104.531C104.964 38.6718 105.268 38.585 105.571 38.3683C105.831 38.1515 105.961 37.848 105.961 37.3711C105.961 36.8942 105.831 36.6341 105.571 36.4173C105.268 36.2439 104.921 36.1138 104.531 36.1138Z" fill="#212121"/>
<path d="M122.39 41.6633L121.653 40.2325H117.578L116.841 41.6633H115.844L119.225 35.29H120.049L123.431 41.6633H122.39ZM121.22 39.4088L119.616 36.3306L117.968 39.4088H121.22Z" fill="#212121"/>
<path d="M138.693 41.6633H137.826L133.273 36.504V41.6633H132.406V35.29H133.273L137.826 40.4493V35.29H138.693V41.6633Z" fill="#212121"/>
<path d="M151.695 41.6633H150.828V39.2787L147.75 35.29H148.704L151.305 38.5417L153.863 35.29H154.817L151.739 39.2787V41.6633H151.695Z" fill="#212121"/>
<path d="M33.4147 5H13.0835L2.88281 22.6321L13.0835 40.2993H33.4147L43.6154 22.6321L33.4147 5Z" stroke="#212121" stroke-width="1.89291" stroke-miterlimit="10"/>
<path d="M33.4147 5L2.88281 22.6321" stroke="#212121" stroke-width="1.89291" stroke-miterlimit="10"/>
<path d="M33.4147 40.299L2.88281 22.6318" stroke="#212121" stroke-width="1.89291" stroke-miterlimit="10"/>
<path d="M33.4141 5V40.2993" stroke="#212121" stroke-width="1.89291" stroke-miterlimit="10"/>
<path d="M43.6147 22.6309H33.4141" stroke="#212121" stroke-width="1.89291" stroke-miterlimit="10"/>
<path d="M13.0781 5L18.1609 13.8336" stroke="#212121" stroke-width="1.89291" stroke-miterlimit="10"/>
<path d="M13.0781 40.2984L18.1609 31.4648" stroke="#212121" stroke-width="1.89291" stroke-miterlimit="10"/>
<path d="M18.1719 13.834V31.4661" stroke="#212121" stroke-width="1.89291" stroke-miterlimit="10"/>
<path d="M33.4203 22.6309L18.1719 31.4644" stroke="#212121" stroke-width="1.89291" stroke-miterlimit="10"/>
<path d="M18.1719 13.834L33.4203 22.6325" stroke="#212121" stroke-width="1.89291" stroke-miterlimit="10"/>
</g>
<defs>
<clipPath id="clip0_799_6358">
<rect width="154" height="46" fill="white" transform="translate(0.882812)"/>
</clipPath>
</defs>
</svg>
